<?xml version="1.0" encoding="utf-8"?>
<!-- Generator: Adobe Illustrator 25.0.0, SVG Export Plug-In . SVG Version: 6.00 Build 0)  -->
<svg version="1.1" id="Layer_1" xmlns="http://www.w3.org/2000/svg" xmlns:xlink="http://www.w3.org/1999/xlink" x="0px" y="0px"
	 viewBox="0 0 212.6 74.74" style="enable-background:new 0 0 212.6 74.74;" xml:space="preserve">
<style type="text/css">
	.st0{fill:#BF872B;}
</style>
<g>
	<g>
		<path d="M89.3,20.12l7.05-19.51h2.82l7.06,19.51h-2.55l-1.92-5.34h-7.97l-1.96,5.34H89.3z M94.42,12.49h6.68l-3.32-9.4
			L94.42,12.49z"/>
		<path d="M113.5,20.39c-0.73-0.01-1.41-0.11-2.06-0.32s-1.21-0.5-1.71-0.9c-0.49-0.4-0.88-0.89-1.17-1.48
			c-0.28-0.59-0.43-1.27-0.43-2.06V6.18h2.5v9.21c0,0.91,0.28,1.65,0.84,2.21c0.56,0.57,1.41,0.85,2.54,0.85
			c1.02,0,1.85-0.27,2.47-0.8c0.62-0.53,0.94-1.33,0.94-2.39V6.18h2.48v13.95h-1.98l-0.26-2.67c-0.17,0.7-0.46,1.27-0.87,1.7
			s-0.9,0.75-1.47,0.95C114.77,20.31,114.15,20.4,113.5,20.39z"/>
		<path d="M128.5,20.39c-0.97,0-1.87-0.15-2.7-0.45c-0.83-0.3-1.52-0.77-2.07-1.42c-0.55-0.64-0.9-1.46-1.04-2.46h2.27
			c0.13,0.55,0.35,1,0.68,1.37c0.33,0.36,0.74,0.64,1.23,0.82c0.49,0.18,1.03,0.28,1.62,0.28c0.94,0,1.69-0.18,2.27-0.53
			c0.58-0.35,0.86-0.89,0.86-1.62c0-0.51-0.15-0.92-0.45-1.23c-0.3-0.31-0.77-0.54-1.4-0.68l-2.89-0.71
			c-1.12-0.27-2.02-0.69-2.7-1.27c-0.67-0.58-1.01-1.38-1.01-2.41c-0.01-0.82,0.18-1.54,0.58-2.16c0.4-0.62,0.99-1.11,1.78-1.47
			c0.79-0.36,1.78-0.54,2.95-0.54c1.51,0,2.73,0.34,3.66,1.02c0.93,0.68,1.41,1.68,1.45,2.99h-2.2c-0.09-0.66-0.39-1.19-0.9-1.58
			c-0.51-0.39-1.19-0.59-2.04-0.59c-0.89,0-1.61,0.18-2.17,0.53c-0.56,0.36-0.84,0.91-0.84,1.65c0,0.49,0.2,0.88,0.59,1.17
			c0.4,0.28,0.98,0.52,1.75,0.71l2.79,0.7c0.65,0.17,1.18,0.4,1.6,0.67c0.42,0.28,0.75,0.59,1,0.93c0.25,0.34,0.42,0.7,0.53,1.07
			c0.1,0.37,0.16,0.73,0.16,1.07c0,0.85-0.21,1.59-0.64,2.21c-0.43,0.62-1.04,1.09-1.83,1.43C130.6,20.22,129.63,20.39,128.5,20.39z
			"/>
		<path d="M143.86,8h-3.14v8.67c0,0.49,0.05,0.86,0.16,1.09c0.1,0.23,0.28,0.38,0.53,0.44c0.25,0.06,0.59,0.09,1.02,0.09h1.52v1.67
			c-0.17,0.06-0.43,0.12-0.77,0.16c-0.35,0.04-0.78,0.07-1.29,0.07c-0.96,0-1.71-0.13-2.24-0.39c-0.53-0.26-0.9-0.65-1.11-1.16
			c-0.21-0.51-0.32-1.14-0.32-1.89V8h-2.27V6.18h2.33l0.61-4.06h1.83v4.05h3.14V8z"/>
		<path d="M147.18,20.12V6.18h2.37v2.68c0.23-0.67,0.56-1.22,0.98-1.65c0.42-0.44,0.91-0.76,1.45-0.98
			c0.54-0.22,1.11-0.32,1.69-0.32c0.21,0,0.41,0.01,0.61,0.04c0.2,0.03,0.35,0.07,0.46,0.13V8.5c-0.13-0.06-0.31-0.11-0.52-0.13
			c-0.21-0.02-0.39-0.03-0.53-0.03c-0.56-0.04-1.08,0-1.57,0.1c-0.49,0.1-0.91,0.28-1.28,0.53c-0.37,0.25-0.66,0.58-0.87,0.99
			c-0.21,0.41-0.32,0.91-0.32,1.49v8.67H147.18z"/>
		<path d="M160.87,20.39c-0.9,0-1.7-0.16-2.39-0.48c-0.69-0.32-1.23-0.78-1.63-1.38c-0.39-0.6-0.59-1.33-0.59-2.18
			c0-1.55,0.54-2.7,1.62-3.45c1.08-0.76,2.81-1.16,5.19-1.21l2.5-0.07v-1.09c0-0.85-0.26-1.53-0.77-2.03
			c-0.51-0.5-1.31-0.75-2.39-0.75c-0.8,0.01-1.5,0.2-2.11,0.57c-0.61,0.37-1,0.97-1.18,1.81h-2.2c0.05-0.91,0.31-1.67,0.77-2.3
			c0.46-0.63,1.1-1.1,1.92-1.42s1.8-0.49,2.92-0.49c1.21,0,2.22,0.17,3.03,0.51c0.8,0.34,1.41,0.85,1.81,1.51
			c0.4,0.67,0.6,1.48,0.6,2.45v9.74h-2.13l-0.17-2.62c-0.54,1.09-1.23,1.84-2.06,2.26C162.78,20.18,161.87,20.39,160.87,20.39z
			 M161.63,18.6c0.47,0,0.93-0.09,1.4-0.26c0.46-0.17,0.89-0.4,1.28-0.69c0.39-0.29,0.69-0.62,0.92-0.98s0.35-0.74,0.36-1.13v-2.39
			l-2.08,0.04c-1.06,0.02-1.95,0.13-2.66,0.32c-0.71,0.2-1.25,0.51-1.61,0.93c-0.36,0.42-0.53,0.98-0.53,1.66
			c0,0.78,0.27,1.39,0.82,1.83C160.06,18.38,160.76,18.6,161.63,18.6z"/>
		<path d="M175.28,20.3c-0.76,0-1.36-0.1-1.83-0.31c-0.46-0.21-0.82-0.49-1.07-0.84c-0.25-0.35-0.41-0.75-0.5-1.21
			c-0.09-0.45-0.13-0.92-0.13-1.41V0.08h2.46v16.21c0,0.7,0.14,1.23,0.41,1.58c0.27,0.35,0.66,0.54,1.15,0.58l0.76,0.01v1.62
			c-0.21,0.06-0.42,0.11-0.65,0.16C175.66,20.28,175.46,20.3,175.28,20.3z"/>
		<path d="M182.13,0.63v2.59h-2.55V0.63H182.13z M182.08,6.18v13.95h-2.41V6.18H182.08z"/>
		<path d="M190.05,20.39c-0.9,0-1.7-0.16-2.39-0.48c-0.69-0.32-1.23-0.78-1.63-1.38c-0.39-0.6-0.59-1.33-0.59-2.18
			c0-1.55,0.54-2.7,1.62-3.45c1.08-0.76,2.81-1.16,5.19-1.21l2.5-0.07v-1.09c0-0.85-0.26-1.53-0.77-2.03
			c-0.51-0.5-1.31-0.75-2.39-0.75c-0.8,0.01-1.5,0.2-2.11,0.57c-0.61,0.37-1,0.97-1.18,1.81h-2.2c0.05-0.91,0.31-1.67,0.77-2.3
			c0.46-0.63,1.1-1.1,1.92-1.42s1.8-0.49,2.92-0.49c1.21,0,2.22,0.17,3.03,0.51c0.8,0.34,1.41,0.85,1.81,1.51
			c0.4,0.67,0.6,1.48,0.6,2.45v9.74h-2.13l-0.17-2.62c-0.54,1.09-1.23,1.84-2.06,2.26C191.96,20.18,191.05,20.39,190.05,20.39z
			 M190.8,18.6c0.47,0,0.93-0.09,1.4-0.26c0.46-0.17,0.89-0.4,1.28-0.69c0.39-0.29,0.69-0.62,0.92-0.98s0.35-0.74,0.36-1.13v-2.39
			l-2.08,0.04c-1.06,0.02-1.95,0.13-2.66,0.32c-0.71,0.2-1.25,0.51-1.61,0.93c-0.36,0.42-0.53,0.98-0.53,1.66
			c0,0.78,0.27,1.39,0.82,1.83C189.24,18.38,189.94,18.6,190.8,18.6z"/>
		<path d="M200.82,20.12V6.18h2.42V8.2c0.22-0.39,0.54-0.75,0.94-1.09c0.4-0.34,0.89-0.62,1.46-0.82c0.57-0.21,1.23-0.31,1.98-0.31
			c0.88,0,1.69,0.18,2.43,0.53c0.74,0.35,1.34,0.9,1.78,1.64c0.45,0.74,0.67,1.7,0.67,2.87v9.12H210v-8.88
			c0-1.09-0.29-1.9-0.86-2.42c-0.57-0.53-1.31-0.79-2.22-0.79c-0.63,0-1.22,0.1-1.77,0.3c-0.55,0.2-0.99,0.51-1.34,0.92
			c-0.34,0.41-0.51,0.92-0.51,1.54v9.32H200.82z"/>
		<path d="M102.37,25.7h2.5v19.51h-2.23L92.17,29.83v15.38h-2.5V25.7h2.39l10.31,15.16V25.7z"/>
		<path d="M113,45.48c-0.9,0-1.7-0.16-2.39-0.48c-0.69-0.32-1.23-0.78-1.63-1.38c-0.39-0.6-0.59-1.33-0.59-2.18
			c0-1.55,0.54-2.7,1.62-3.45c1.08-0.76,2.81-1.16,5.19-1.21l2.5-0.07V35.6c0-0.85-0.26-1.53-0.77-2.03
			c-0.51-0.5-1.31-0.75-2.39-0.75c-0.8,0.01-1.5,0.2-2.11,0.57c-0.61,0.37-1,0.97-1.18,1.81h-2.2c0.05-0.91,0.31-1.67,0.77-2.3
			c0.46-0.63,1.1-1.1,1.92-1.42c0.82-0.32,1.8-0.49,2.92-0.49c1.21,0,2.22,0.17,3.03,0.51c0.81,0.34,1.41,0.85,1.81,1.51
			c0.4,0.67,0.6,1.48,0.6,2.45v9.74h-2.13l-0.17-2.62c-0.54,1.09-1.23,1.84-2.06,2.26C114.91,45.27,114,45.48,113,45.48z
			 M113.75,43.68c0.47,0,0.93-0.09,1.4-0.26c0.46-0.17,0.89-0.4,1.27-0.69c0.39-0.29,0.69-0.62,0.92-0.99
			c0.23-0.36,0.35-0.74,0.36-1.13v-2.39l-2.08,0.04c-1.06,0.02-1.95,0.13-2.66,0.32c-0.72,0.2-1.25,0.51-1.61,0.93
			c-0.36,0.42-0.53,0.98-0.53,1.66c0,0.78,0.27,1.39,0.82,1.83C112.19,43.46,112.89,43.68,113.75,43.68z"/>
		<path d="M130.27,33.08h-3.14v8.67c0,0.49,0.05,0.86,0.16,1.09c0.1,0.23,0.28,0.38,0.53,0.44c0.25,0.06,0.59,0.09,1.02,0.09h1.52
			v1.67c-0.17,0.06-0.43,0.12-0.77,0.16c-0.35,0.05-0.78,0.07-1.29,0.07c-0.96,0-1.71-0.13-2.24-0.39c-0.53-0.26-0.9-0.65-1.11-1.16
			c-0.21-0.51-0.32-1.14-0.32-1.89v-8.76h-2.27v-1.82h2.33l0.61-4.06h1.83v4.05h3.14V33.08z"/>
		<path d="M136.33,25.71v2.59h-2.55v-2.59H136.33z M136.28,31.26v13.95h-2.41V31.26H136.28z"/>
		<path d="M145.94,45.48c-1.29,0-2.41-0.28-3.37-0.83c-0.96-0.55-1.71-1.36-2.24-2.43c-0.53-1.07-0.8-2.38-0.8-3.93
			c0-1.46,0.25-2.73,0.74-3.83c0.49-1.1,1.22-1.95,2.18-2.56c0.96-0.61,2.12-0.91,3.49-0.91c1.29,0,2.4,0.28,3.35,0.84
			s1.68,1.39,2.21,2.48c0.52,1.09,0.78,2.41,0.78,3.98c0,1.42-0.24,2.67-0.72,3.75c-0.48,1.08-1.19,1.92-2.13,2.53
			C148.49,45.17,147.32,45.48,145.94,45.48z M145.94,43.51c0.84,0,1.54-0.21,2.12-0.63c0.58-0.42,1.01-1.03,1.31-1.82
			c0.3-0.79,0.45-1.73,0.45-2.82c0-1-0.13-1.9-0.39-2.69c-0.26-0.8-0.68-1.43-1.25-1.9c-0.57-0.47-1.32-0.7-2.23-0.7
			c-0.85,0-1.56,0.21-2.14,0.63c-0.58,0.42-1.03,1.02-1.33,1.81c-0.3,0.79-0.45,1.74-0.45,2.85c0,0.98,0.13,1.87,0.4,2.67
			c0.27,0.8,0.69,1.43,1.27,1.9C144.26,43.27,145.01,43.51,145.94,43.51z"/>
		<path d="M155.29,45.21V31.26h2.42v2.02c0.22-0.39,0.54-0.75,0.94-1.09c0.4-0.34,0.89-0.62,1.46-0.82
			c0.57-0.21,1.23-0.31,1.98-0.31c0.88,0,1.69,0.18,2.43,0.53c0.74,0.35,1.34,0.9,1.78,1.64c0.45,0.74,0.67,1.7,0.67,2.87v9.12h-2.5
			v-8.88c0-1.09-0.29-1.9-0.86-2.42c-0.57-0.53-1.31-0.79-2.22-0.79c-0.63,0-1.22,0.1-1.77,0.3c-0.55,0.2-0.99,0.51-1.34,0.92
			c-0.34,0.41-0.51,0.92-0.51,1.54v9.32H155.29z"/>
		<path d="M174.4,45.48c-0.9,0-1.7-0.16-2.39-0.48c-0.69-0.32-1.23-0.78-1.63-1.38c-0.39-0.6-0.59-1.33-0.59-2.18
			c0-1.55,0.54-2.7,1.62-3.45c1.08-0.76,2.81-1.16,5.19-1.21l2.5-0.07V35.6c0-0.85-0.26-1.53-0.77-2.03
			c-0.51-0.5-1.31-0.75-2.39-0.75c-0.8,0.01-1.5,0.2-2.11,0.57c-0.61,0.37-1,0.97-1.18,1.81h-2.2c0.05-0.91,0.31-1.67,0.77-2.3
			c0.46-0.63,1.1-1.1,1.92-1.42s1.8-0.49,2.92-0.49c1.21,0,2.22,0.17,3.03,0.51s1.41,0.85,1.81,1.51c0.4,0.67,0.6,1.48,0.6,2.45
			v9.74h-2.13l-0.17-2.62c-0.54,1.09-1.23,1.84-2.06,2.26C176.31,45.27,175.4,45.48,174.4,45.48z M175.16,43.68
			c0.47,0,0.93-0.09,1.4-0.26c0.46-0.17,0.89-0.4,1.28-0.69c0.39-0.29,0.69-0.62,0.92-0.99c0.23-0.36,0.35-0.74,0.36-1.13v-2.39
			l-2.08,0.04c-1.06,0.02-1.95,0.13-2.66,0.32c-0.71,0.2-1.25,0.51-1.61,0.93c-0.36,0.42-0.53,0.98-0.53,1.66
			c0,0.78,0.27,1.39,0.82,1.83C173.59,43.46,174.29,43.68,175.16,43.68z"/>
		<path d="M188.81,45.38c-0.76,0-1.36-0.1-1.83-0.31c-0.46-0.21-0.82-0.49-1.07-0.84c-0.25-0.35-0.41-0.75-0.5-1.21
			c-0.09-0.45-0.13-0.92-0.13-1.41V25.16h2.46v16.21c0,0.7,0.14,1.23,0.41,1.58s0.66,0.54,1.15,0.58l0.76,0.01v1.62
			c-0.21,0.06-0.42,0.11-0.65,0.16C189.19,45.36,188.99,45.38,188.81,45.38z"/>
		<path d="M103.93,63.54c0,1.5-0.25,2.77-0.74,3.82c-0.49,1.04-1.27,1.84-2.31,2.38c-1.05,0.54-2.41,0.82-4.08,0.82
			c-1.69,0-3.06-0.28-4.11-0.84c-1.05-0.56-1.81-1.38-2.29-2.46c-0.48-1.08-0.72-2.41-0.72-3.98v-12.5h2.59v12.88
			c0,1.57,0.39,2.75,1.17,3.53c0.78,0.78,1.9,1.17,3.36,1.17c0.98,0,1.81-0.17,2.5-0.51c0.69-0.34,1.21-0.86,1.58-1.56
			c0.36-0.7,0.55-1.58,0.55-2.64V50.78h2.51V63.54z"/>
		<path d="M107.58,70.29V56.34h2.41v2.02c0.23-0.39,0.54-0.75,0.94-1.09c0.4-0.34,0.89-0.62,1.46-0.82
			c0.57-0.21,1.23-0.31,1.98-0.31c0.88,0,1.69,0.17,2.43,0.53c0.74,0.35,1.34,0.9,1.78,1.64c0.44,0.74,0.67,1.7,0.67,2.87v9.12h-2.5
			v-8.88c0-1.09-0.29-1.9-0.86-2.42c-0.57-0.53-1.31-0.79-2.22-0.79c-0.63,0-1.22,0.1-1.77,0.3c-0.55,0.2-0.99,0.51-1.33,0.92
			c-0.34,0.41-0.51,0.92-0.51,1.54v9.32H107.58z"/>
		<path d="M125.54,50.79v2.59h-2.55v-2.59H125.54z M125.49,56.34v13.95h-2.41V56.34H125.49z"/>
		<path d="M140.5,56.34l-5.03,13.95h-2.27l-5.05-13.95h2.35l3.71,10.82h0.23l3.72-10.82H140.5z"/>
		<path d="M144.18,63.89c0,0.88,0.15,1.68,0.44,2.39c0.29,0.72,0.74,1.28,1.34,1.71c0.6,0.42,1.35,0.63,2.25,0.63
			c0.89,0,1.66-0.21,2.3-0.62c0.64-0.41,1.05-1.01,1.23-1.79h2.36c-0.17,0.94-0.55,1.74-1.13,2.39s-1.29,1.14-2.12,1.46
			c-0.83,0.33-1.69,0.49-2.59,0.49c-1.3,0-2.45-0.28-3.44-0.85c-0.99-0.57-1.76-1.38-2.32-2.44c-0.56-1.06-0.84-2.33-0.84-3.82
			c0-1.47,0.25-2.75,0.76-3.86c0.5-1.11,1.23-1.97,2.19-2.59c0.96-0.62,2.11-0.93,3.46-0.93c1.31,0,2.42,0.28,3.33,0.85
			c0.91,0.57,1.6,1.36,2.07,2.39c0.47,1.03,0.71,2.25,0.71,3.66v0.92H144.18z M144.2,62.21h7.58c0-0.8-0.13-1.52-0.4-2.17
			c-0.27-0.64-0.68-1.15-1.23-1.52c-0.55-0.37-1.25-0.56-2.08-0.56c-0.87,0-1.59,0.21-2.17,0.63c-0.57,0.42-1,0.95-1.28,1.61
			C144.33,60.84,144.19,61.51,144.2,62.21z"/>
		<path d="M157.32,70.29V56.34h2.37v2.68c0.23-0.66,0.56-1.22,0.98-1.65c0.42-0.44,0.91-0.76,1.45-0.98
			c0.54-0.22,1.11-0.32,1.69-0.32c0.21,0,0.41,0.01,0.61,0.04c0.2,0.03,0.35,0.07,0.46,0.14v2.41c-0.13-0.06-0.31-0.11-0.52-0.13
			c-0.21-0.02-0.39-0.03-0.53-0.03c-0.56-0.04-1.08,0-1.57,0.1c-0.49,0.1-0.91,0.28-1.28,0.53c-0.37,0.25-0.66,0.58-0.87,0.99
			c-0.21,0.41-0.32,0.91-0.32,1.49v8.67H157.32z"/>
		<path d="M172.36,70.56c-0.97,0-1.87-0.15-2.7-0.45c-0.83-0.3-1.52-0.77-2.07-1.42c-0.55-0.64-0.9-1.46-1.04-2.46h2.27
			c0.13,0.55,0.35,1.01,0.68,1.37c0.33,0.36,0.74,0.64,1.23,0.82c0.49,0.18,1.03,0.28,1.62,0.28c0.94,0,1.69-0.17,2.27-0.53
			c0.58-0.35,0.86-0.89,0.86-1.62c0-0.51-0.15-0.92-0.45-1.23c-0.3-0.31-0.77-0.54-1.4-0.68l-2.89-0.72
			c-1.12-0.27-2.02-0.69-2.7-1.27c-0.67-0.58-1.01-1.38-1.01-2.41c-0.01-0.82,0.18-1.54,0.58-2.16c0.4-0.62,0.99-1.11,1.78-1.47
			c0.79-0.36,1.78-0.54,2.95-0.54c1.51,0,2.73,0.34,3.66,1.02c0.93,0.68,1.41,1.68,1.45,2.99h-2.2c-0.09-0.66-0.39-1.19-0.9-1.58
			c-0.51-0.39-1.19-0.59-2.04-0.59c-0.89,0-1.61,0.18-2.17,0.53c-0.56,0.35-0.84,0.91-0.84,1.65c0,0.5,0.2,0.88,0.59,1.17
			c0.4,0.28,0.98,0.52,1.75,0.71l2.79,0.7c0.65,0.17,1.18,0.4,1.6,0.68c0.42,0.28,0.75,0.59,1,0.93c0.25,0.34,0.42,0.7,0.53,1.07
			c0.1,0.37,0.16,0.73,0.16,1.07c0,0.85-0.21,1.59-0.64,2.21c-0.43,0.62-1.04,1.09-1.83,1.43C174.46,70.39,173.5,70.56,172.36,70.56
			z"/>
		<path d="M183.69,50.79v2.59h-2.55v-2.59H183.69z M183.64,56.34v13.95h-2.41V56.34H183.64z"/>
		<path d="M194.76,58.16h-3.14v8.67c0,0.49,0.05,0.86,0.16,1.09c0.1,0.23,0.28,0.38,0.53,0.44c0.25,0.06,0.59,0.09,1.02,0.09h1.52
			v1.67c-0.17,0.06-0.43,0.12-0.77,0.16c-0.35,0.05-0.78,0.07-1.29,0.07c-0.96,0-1.71-0.13-2.24-0.39c-0.53-0.26-0.9-0.65-1.11-1.16
			c-0.21-0.51-0.32-1.14-0.32-1.89v-8.76h-2.27v-1.82h2.33l0.61-4.06h1.83v4.05h3.14V58.16z"/>
		<path d="M199.54,74.74c-0.82,0-1.53-0.12-2.14-0.35v-1.62l1.42,0.03c0.52,0.02,0.95-0.02,1.29-0.11c0.34-0.09,0.62-0.21,0.82-0.36
			c0.21-0.15,0.37-0.32,0.48-0.51c0.11-0.19,0.2-0.37,0.28-0.54l0.49-1.32l-5.45-13.61h2.52l4.11,10.76l4.09-10.76h2.44l-5.88,15
			c-0.36,0.88-0.76,1.57-1.21,2.06s-0.94,0.84-1.48,1.04C200.77,74.64,200.18,74.74,199.54,74.74z"/>
	</g>
	<g>
		<path class="st0" d="M58.05,2.09c0.12,2.63,0.51,11.71,0.51,22.83c0,13.54-0.89,20.76-3.27,26.64c-1.15,2.84-2.62,4.99-4.74,6.98
			c-1.91,1.78-4.44,3.53-8.72,6.03c-3.28,1.91-5.9,3.2-8,3.93c-1.9,0.66-3.04,0.75-3.81,0.75c-0.78,0-1.91-0.09-3.81-0.75
			c-2.11-0.74-4.72-2.02-8-3.93c-4.29-2.5-6.81-4.24-8.72-6.03c-2.12-1.98-3.59-4.14-4.74-6.98c-2.39-5.88-3.27-13.1-3.27-26.64
			c0-11.11,0.39-20.18,0.51-22.82L58.05,2.09 M1.32,0.73C1.16,0.73,1,0.78,0.88,0.88C0.75,1,0.67,1.15,0.66,1.32
			c0,0.1-0.55,10.39-0.55,23.59c0,13.74,0.91,21.09,3.37,27.15c2.49,6.15,6.35,9.18,14.03,13.66c7.36,4.29,10.44,4.86,12.49,4.86
			c2.05,0,5.13-0.58,12.49-4.86c7.69-4.48,11.54-7.51,14.03-13.66c2.46-6.06,3.37-13.41,3.37-27.15c0-13.2-0.54-23.49-0.55-23.59
			C59.35,1.15,59.28,1,59.15,0.88c-0.12-0.11-0.29-0.15-0.45-0.15C58.69,0.73,1.49,0.73,1.32,0.73z"/>
		<g>
			<polygon class="st0" points="47.29,17.36 46.65,15.55 46.01,17.33 44.1,17.4 45.62,18.58 45.07,20.4 46.64,19.32 48.22,20.4 
				47.68,18.56 49.2,17.4 			"/>
			<polygon class="st0" points="45.06,27.6 46.51,28.94 46.37,26.97 48.32,26.67 46.69,25.56 47.67,23.85 45.79,24.43 45.06,22.59 
				44.34,24.43 42.45,23.85 43.43,25.56 41.81,26.67 43.76,26.97 43.61,28.94 			"/>
			<polygon class="st0" points="52.93,16.78 54.38,18.12 54.23,16.15 56.18,15.85 54.56,14.74 55.54,13.03 53.65,13.61 52.93,11.77 
				52.2,13.61 50.32,13.03 51.3,14.74 49.67,15.85 51.62,16.15 51.48,18.12 			"/>
			<polygon class="st0" points="45.89,9.4 47.34,10.74 47.19,8.77 49.14,8.48 47.52,7.36 48.5,5.65 46.61,6.23 45.89,4.39 
				45.17,6.23 43.28,5.65 44.26,7.36 42.63,8.48 44.58,8.77 44.44,10.74 			"/>
			<polygon class="st0" points="37.58,15.8 39.03,17.13 38.88,15.17 40.83,14.87 39.2,13.76 40.19,12.05 38.3,12.62 37.58,10.79 
				36.85,12.62 34.97,12.05 35.95,13.76 34.32,14.87 36.27,15.17 36.13,17.13 			"/>
		</g>
		<g>
			<path class="st0" d="M45.13,32.28c-7.98-3.81-13.34-6.52-15.27-6.52c-1.93,0-6.98,2.71-14.96,6.52c-7.98,3.82-10.7,4.63-10.7,6.3
				c0,1.67,1.96,0.88,2.55,0.7c0.6-0.18,20.95-6.76,23.11-6.76c2.16,0,22.82,6.59,23.42,6.76c0.6,0.18,2.55,0.97,2.55-0.7
				C55.83,36.91,53.11,36.1,45.13,32.28z"/>
			<path class="st0" d="M49.72,44.75c-3.46,1.16-6.21,3.69-10.04,2.97c-3.36-0.63-6.15-3.53-9.67-3.49
				c-3.86,0.05-6.78,3.37-10.56,3.69c-3.72,0.31-6.62-2.7-10.09-3.41c-1.57-0.32-2.95-0.11-4.26,0.34c0.27,1.29,0.57,2.48,0.93,3.6
				c1.03-0.25,2.12-0.32,3.33-0.07c3.47,0.71,6.37,3.72,10.09,3.41c3.79-0.32,6.7-3.64,10.56-3.69c3.53-0.04,6.32,2.86,9.67,3.49
				c3.83,0.72,6.58-1.81,10.04-2.97c1.55-0.52,2.93-0.47,4.24-0.15c0.36-1.12,0.66-2.31,0.93-3.6
				C53.29,44.33,51.63,44.11,49.72,44.75z"/>
			<path class="st0" d="M49.72,52.5c-3.46,1.16-6.21,3.69-10.04,2.97c-3.36-0.63-6.15-3.53-9.67-3.49
				c-3.86,0.05-6.78,3.37-10.56,3.69c-3.72,0.31-6.62-2.7-10.09-3.41c-0.66-0.13-1.28-0.18-1.88-0.14c0.79,1.58,1.76,2.94,2.96,4.18
				c0.04,0.04,0.08,0.07,0.12,0.09c0.39,0.19,2.41,1.17,3.41,1.67c1.71,0.86,3.5,1.65,5.47,1.49c3.79-0.32,6.7-3.64,10.56-3.69
				c3.53-0.04,6.32,2.86,9.67,3.49c2.34,0.44,4.32-0.35,6.26-1.29c1.01-0.49,3.17-1.56,3.57-1.76c0.05-0.02,0.09-0.05,0.12-0.09
				c1.14-1.2,2.12-2.56,2.88-4.08C51.63,52.06,50.71,52.16,49.72,52.5z"/>
			<path class="st0" d="M20.49,63.25c1.54,0.87,2.91,1.58,4.13,2.13c1.71-0.89,3.43-1.76,5.39-1.78c1.96-0.02,3.69,0.86,5.42,1.76
				c1.23-0.57,2.61-1.28,4.17-2.16c-3.32-0.67-6.09-3.51-9.58-3.47C26.51,59.77,23.79,62.5,20.49,63.25z"/>
			<path class="st0" d="M42.49,39.96c-4.09-1.25-6.88-2.06-8.79-2.6c-1.82-0.51-2.67-0.7-3.23-0.84c-0.17-0.04-0.45-0.1-0.54-0.11
				c-0.13,0.02-0.3,0.06-0.53,0.11c-0.47,0.11-1.2,0.29-2.31,0.6c-1.89,0.52-4.91,1.4-9.71,2.89c-1.54,0.48-3.27,1.02-5.2,1.63
				c2.36,1.12,4.62,2.63,7.31,2.41c3.79-0.32,6.7-3.64,10.56-3.69c3.53-0.04,6.32,2.86,9.67,3.49c3.12,0.59,5.52-0.98,8.18-2.21
				C45.88,41,44.08,40.45,42.49,39.96z"/>
		</g>
	</g>
</g>
</svg>
