<?xml version="1.0" encoding="UTF-8" standalone="no"?>
<svg
   xmlns:dc="http://purl.org/dc/elements/1.1/"
   xmlns:cc="http://creativecommons.org/ns#"
   xmlns:rdf="http://www.w3.org/1999/02/22-rdf-syntax-ns#"
   xmlns:svg="http://www.w3.org/2000/svg"
   xmlns="http://www.w3.org/2000/svg"
   viewBox="0 0 378.84631 379.06805"
   height="379.06805"
   width="378.84631"
   version="1.1"
   id="svg2">
  <metadata
     id="metadata8">
    <rdf:RDF>
      <cc:Work
         rdf:about="">
        <dc:format>image/svg+xml</dc:format>
        <dc:type
           rdf:resource="http://purl.org/dc/dcmitype/StillImage" />
        <dc:title></dc:title>
      </cc:Work>
    </rdf:RDF>
  </metadata>
  <defs
     id="defs6" />
  <path
     id="path4140"
     d="m 129.61345,174.93872 c 0,-9.63765 0.17194,-15.32162 0.46902,-15.50523 0.25796,-0.15943 0.46902,-1.00366 0.46902,-1.87607 0,-0.87241 0.21105,-1.71664 0.46901,-1.87606 0.25796,-0.15943 0.48814,-0.85783 0.5115,-1.55199 0.0234,-0.69416 0.64926,-2.3174 1.39088,-3.6072 0.74161,-1.2898 1.54474,-2.77587 1.78472,-3.30239 0.23998,-0.52652 0.77491,-1.2383 1.18872,-1.58174 0.41381,-0.34343 0.75238,-0.86901 0.75238,-1.16794 0,-0.67397 5.23739,-5.90786 5.91181,-5.90786 0.27001,0 0.98661,-0.52764 1.59246,-1.17254 0.60585,-0.6449 1.3555,-1.17254 1.66589,-1.17254 0.31039,0 0.82345,-0.31221 1.14014,-0.6938 0.74872,-0.90215 3.20397,-2.1203 4.2736,-2.1203 0.46107,0 0.96874,-0.21106 1.12817,-0.46902 0.15943,-0.25796 1.32024,-0.46902 2.57959,-0.46902 1.25935,0 2.42016,-0.21105 2.57959,-0.46901 0.37769,-0.61111 5.71953,-0.61111 6.09722,0 0.15943,0.25796 1.21472,0.46901 2.34508,0.46901 1.13037,0 2.18566,0.21106 2.34509,0.46902 0.15943,0.25796 0.91058,0.46902 1.66924,0.46902 0.75865,0 1.37937,0.21105 1.37937,0.46901 0,0.25796 0.28416,0.46902 0.63146,0.46902 0.89534,0 3.38388,1.29746 4.06678,2.12031 0.31669,0.38158 0.8226,0.69379 1.12425,0.69379 0.30164,0 1.48055,0.94976 2.61981,2.11058 1.13926,1.16081 2.34924,2.11057 2.68886,2.11057 0.33961,0 0.80092,0.47488 1.02512,1.05529 0.2242,0.58041 0.95769,1.56696 1.62995,2.19233 0.67227,0.62538 1.22231,1.391 1.22231,1.70139 0,0.31038 0.31173,0.82306 0.69275,1.13927 0.38101,0.31621 1.23772,1.68881 1.90379,3.05021 2.54393,5.19961 2.68317,6.32884 2.90701,23.57543 l 0.20848,16.06383 h -31.23153 -31.23154 z"
     style="fill:#78bbe6;fill-opacity:1" />
  <path
     id="path4142"
     d="m 181.43678,378.7714 c -0.25629,-0.24052 -3.20974,-0.55748 -6.56321,-0.70435 -6.33401,-0.27742 -11.66034,-0.98675 -23.56809,-3.13869 -1.48327,-0.26805 -3.48964,-0.60693 -4.4586,-0.75307 -0.96897,-0.14614 -1.87841,-0.45446 -2.021,-0.68517 -0.14259,-0.23071 -0.97304,-0.41948 -1.84545,-0.41948 -0.87241,0 -1.71664,-0.21105 -1.87607,-0.46901 -0.15942,-0.25796 -0.7373,-0.46902 -1.28417,-0.46902 -0.54687,0 -1.64247,-0.2122 -2.43466,-0.47156 -0.79219,-0.25936 -3.76198,-1.21938 -6.59954,-2.13337 -4.98761,-1.60654 -6.59602,-2.20167 -8.31868,-3.07799 -0.44793,-0.22786 -1.12745,-0.4143 -1.51004,-0.4143 -0.38259,0 -1.44716,-0.42211 -2.36571,-0.93803 -0.91855,-0.51592 -1.86204,-0.93804 -2.09665,-0.93804 -1.13729,0 -14.32658,-6.49058 -21.297072,-10.4805 -2.54817,-1.45858 -4.81704,-2.65197 -5.04193,-2.65197 -0.22489,0 -0.40889,-0.18469 -0.40889,-0.41043 0,-0.22574 -0.5804,-0.70152 -1.28979,-1.05731 -1.38513,-0.69468 -11.453031,-7.40231 -11.842676,-7.89005 -0.12898,-0.16145 -1.597805,-1.34062 -3.264053,-2.62038 -4.43938,-3.40966 -4.732487,-3.6448 -5.823458,-4.67192 -0.547994,-0.51592 -2.262696,-1.99332 -3.810452,-3.28312 -3.43014,-2.85845 -12.273039,-11.69865 -15.477554,-15.47283 -1.289796,-1.51909 -2.776251,-3.19688 -3.303233,-3.72843 -0.526982,-0.53156 -2.417007,-2.86598 -4.200055,-5.18761 -1.783048,-2.32164 -3.409692,-4.29151 -3.614765,-4.37749 -0.205072,-0.086 -0.372859,-0.43775 -0.372859,-0.7817 0,-0.34394 -0.167899,-0.69571 -0.37311,-0.78169 -0.562099,-0.23553 -7.600176,-10.54849 -7.600176,-11.13661 0,-0.28085 -0.211057,-0.51064 -0.469016,-0.51064 -0.25796,0 -0.469017,-0.19362 -0.469017,-0.43027 0,-0.23664 -0.949759,-2.03671 -2.110576,-4.00015 -1.160816,-1.96344 -2.110575,-3.75728 -2.110575,-3.98631 0,-0.22903 -0.165284,-0.48677 -0.367297,-0.57276 -0.202014,-0.086 -2.013377,-3.53326 -4.025253,-7.66061 -3.536951,-7.25603 -4.117303,-8.50897 -5.10526,-11.0219 -0.253542,-0.64489 -0.647418,-1.53902 -0.875281,-1.98695 -0.227863,-0.44793 -0.414296,-1.13673 -0.414296,-1.53067 0,-0.39394 -0.186433,-1.08274 -0.414296,-1.53067 -0.880372,-1.73062 -1.472052,-3.34388 -3.1369594,-8.55319 -0.948111,-2.96653 -1.892918,-5.81581 -2.099572,-6.33173 -0.387351,-0.96703 -0.795185,-2.70552 -1.210298,-5.15918 -0.130925,-0.77388 -0.42034,-1.82917 -0.643144,-2.34509 -0.222803,-0.51592 -0.532998,-1.67673 -0.689322,-2.57959 -0.156323,-0.90286 -0.462632,-2.59132 -0.680685,-3.75214 -0.585126,-3.11494 -2.282738,-13.07922 -2.596953,-15.24304 -1.69121805,-11.64643 -1.83071705,-36.03781 -0.254828,-44.5566 0.238599,-1.28979 0.883164,-5.19436 1.432367,-8.67681 0.959461,-6.08387 1.250895,-7.63929 2.350737,-12.5462 0.274642,-1.2253 0.613523,-3.02062 0.753069,-3.98958 0.139546,-0.96897 0.442482,-1.87841 0.673193,-2.021 0.23071,-0.14259 0.419473,-0.86751 0.419473,-1.61094 0,-0.74343 0.211057,-1.48213 0.469016,-1.64156 0.25796,-0.15943 0.469017,-0.89813 0.469017,-1.64156 0,-0.74343 0.186724,-1.46709 0.414941,-1.60814 0.228218,-0.14104 0.516594,-0.83944 0.640836,-1.55198 0.274097,-1.57198 2.1342624,-7.00239 3.6971444,-10.79313 0.292473,-0.70939 0.714588,-1.76467 0.938034,-2.34508 0.223445,-0.58041 0.617321,-1.58293 0.875281,-2.22783 0.257959,-0.6449 0.648011,-1.64742 0.866782,-2.22783 1.058181,-2.8074 6.823246,-14.51028 9.068589,-18.408912 0.891399,-1.54776 1.922645,-3.34175 2.291658,-3.98665 0.369013,-0.64489 0.776461,-1.27807 0.905441,-1.40705 0.12898,-0.12898 0.49833,-0.70938 0.820779,-1.28979 l 1.172543,-2.11058 c 0.322449,-0.58041 0.717426,-1.16081 0.877727,-1.28979 0.259925,-0.209143 4.135167,-5.954838 5.336745,-7.912622 0.257959,-0.420305 0.590508,-0.869721 0.738998,-0.998701 0.148489,-0.12898 1.723291,-2.134026 3.499559,-4.45566 1.776269,-2.321633 3.448766,-4.447583 3.716662,-4.724331 0.267896,-0.276748 1.31563,-1.494958 2.328298,-2.707127 1.764554,-2.112189 2.500535,-2.921839 7.354432,-8.090629 3.467976,-3.692959 9.755325,-9.546026 14.038654,-13.06897 2.182771,-1.795282 4.197653,-3.483742 4.47752,-3.752134 0.279862,-0.268392 1.018564,-0.85765 1.641559,-1.309463 5.253355,-3.809894 7.359035,-5.386288 8.139145,-6.09329 0.50007,-0.453205 1.18601,-0.824009 1.52431,-0.824009 0.3383,0 0.61509,-0.211058 0.61509,-0.469017 0,-0.257959 0.20143,-0.469017 0.44762,-0.469017 0.2462,0 2.56168,-1.371874 5.14552,-3.048609 2.58385,-1.676735 4.89752,-3.048609 5.1415,-3.048609 0.24397,0 0.51394,-0.158293 0.59993,-0.351763 0.086,-0.193469 1.27193,-0.937078 2.63543,-1.652463 8.969302,-4.705908 11.532052,-5.96906 12.110352,-5.96906 0.35948,0 0.6536,-0.211057 0.6536,-0.469017 0,-0.257959 0.31946,-0.469017 0.70989,-0.469017 0.39044,0 1.07638,-0.193811 1.52431,-0.430691 1.43239,-0.757501 5.16293,-2.346322 8.42981,-3.590229 1.74459,-0.664276 3.53847,-1.403192 3.9864,-1.642036 0.44793,-0.238844 1.2394,-0.434262 1.75882,-0.434262 0.51941,0 0.9444,-0.211058 0.9444,-0.469017 0,-0.2579588 0.62071,-0.4690168 1.37936,-0.4690168 0.75866,0 1.49478,-0.186723 1.63582,-0.414941 0.14105,-0.228218 0.83944,-0.527432 1.55199,-0.66492 1.19598,-0.230769 2.83783,-0.670875 6.45472,-1.730222 5.26968,-1.543428 10.05375,-2.696141 12.89796,-3.107743 0.90286,-0.130657 2.06368,-0.425349 2.57959,-0.65487 0.51592,-0.229521 2.09885,-0.535717 3.51763,-0.680437 1.41878,-0.14472 4.16252,-0.463236 6.09722,-0.707814 17.05829,-2.15645297 34.90632,-2.16231997 51.59185,-0.01696 1.93469,0.248756 4.57291,0.573636 5.86271,0.721956 1.28979,0.14832 2.7672,0.457732 3.28312,0.687582 0.51591,0.22985 1.78226,0.521768 2.8141,0.648705 3.41439,0.420043 7.53602,1.437113 16.65009,4.108645 0.90286,0.264647 2.22455,0.593667 2.9371,0.731156 0.71254,0.137488 1.41094,0.436702 1.55198,0.66492 0.14105,0.228218 0.75918,0.414941 1.37363,0.414941 0.61445,0 1.24763,0.211058 1.40705,0.4690168 0.15943,0.257959 0.70239,0.469017 1.20659,0.469017 0.50419,0 1.2832,0.189994 1.73113,0.422209 0.44793,0.232215 2.29182,0.994916 4.09754,1.694892 3.14464,1.219002 4.15767,1.636093 8.09054,3.331079 5.17797,2.231601 17.60925,8.640536 17.86172,9.208595 0.086,0.19347 0.56087,0.351763 1.05528,0.351763 0.49443,0 0.89896,0.175393 0.89896,0.389762 0,0.214369 0.57432,0.689249 1.27627,1.055288 1.42634,0.74378 5.68584,3.460168 6.55996,4.183445 0.31156,0.257798 0.70575,0.468723 0.87597,0.468723 0.17022,0 1.81483,1.120677 3.65468,2.490394 1.83985,1.369716 4.08388,2.995243 4.98674,3.612283 0.90285,0.617039 1.74708,1.238788 1.87606,1.381664 0.12898,0.142875 1.00771,0.835787 1.95273,1.539804 0.94501,0.704018 2.0003,1.54941 2.34508,1.878649 0.34478,0.32924 1.89322,1.644473 3.44097,2.922739 6.7763,5.596434 20.86412,20.404993 26.36345,27.712204 0.5701,0.757514 1.37245,1.799416 1.783,2.315334 2.9022,3.647033 8.51381,12.055411 12.14133,18.192401 2.10757,3.56557 7.76538,14.614122 9.65791,18.859932 0.57491,1.2898 1.23325,2.71157 1.46298,3.1595 0.22973,0.44793 0.41769,1.02937 0.41769,1.29209 0,0.26273 0.47962,1.47917 1.06581,2.70321 0.58619,1.22405 1.36159,3.17529 1.72311,4.33611 0.36152,1.16082 0.83166,2.31108 1.04477,2.55614 0.2131,0.24506 0.38746,0.91854 0.38746,1.49663 0,0.57808 0.21106,1.1815 0.46902,1.34092 0.25796,0.15943 0.46901,0.89813 0.46901,1.64156 0,0.74343 0.21106,1.48213 0.46902,1.64156 0.25796,0.15943 0.46902,0.7926 0.46902,1.40705 0,0.61445 0.18774,1.23321 0.41719,1.37502 0.22946,0.14182 0.52072,0.94574 0.64724,1.7865 0.12653,0.84076 0.88855,4.0574 1.69338,7.14809 0.80484,3.09069 1.46334,6.08581 1.46334,6.65581 0,0.57 0.21106,1.16681 0.46902,1.32624 0.25795,0.15943 0.46901,1.39602 0.46901,2.74798 0,1.35196 0.19249,2.65861 0.42775,2.90367 0.23526,0.24506 0.53818,1.60638 0.67316,3.02516 0.13497,1.41877 0.51604,5.11228 0.84681,8.20779 0.77161,7.2211 0.77785,32.93787 0.01,39.86643 -0.3146,2.83755 -0.68283,6.32 -0.8183,7.73878 -0.13546,1.41877 -0.43699,3.00171 -0.67007,3.51762 -0.23307,0.51592 -0.52268,1.99333 -0.64357,3.28312 -0.26887,2.86858 -0.76318,5.17968 -2.40757,11.25641 -0.69805,2.57959 -1.37572,5.37806 -1.50593,6.21882 -0.1302,0.84076 -0.42448,1.64467 -0.65393,1.78649 -0.22945,0.14181 -0.41719,0.8661 -0.41719,1.60953 0,0.74343 -0.21106,1.48213 -0.46902,1.64156 -0.25796,0.15943 -0.46902,0.80792 -0.46902,1.44109 0,1.10879 -0.14955,1.53812 -1.33382,3.82898 -0.29823,0.57691 -0.54224,1.37124 -0.54224,1.76518 0,0.39394 -0.19332,1.08274 -0.42959,1.53067 -0.67606,1.28167 -1.9155,4.2098 -1.9155,4.52529 0,0.15729 -0.44315,1.28621 -0.98477,2.50871 -0.54163,1.22249 -1.15036,2.64483 -1.35273,3.16075 -0.92009,2.3456 -6.81668,14.08718 -7.14468,14.22684 -0.20195,0.086 -0.36717,0.56087 -0.36717,1.05529 0,0.49442 -0.21106,0.89895 -0.46902,0.89895 -0.25796,0 -0.46901,0.42212 -0.46901,0.93803 0,0.51592 -0.21106,0.93804 -0.46902,0.93804 -0.25796,0 -0.46902,0.2172 -0.46902,0.48268 0,0.26547 -1.37187,2.59673 -3.04861,5.18057 -1.67673,2.58385 -3.04861,4.89933 -3.04861,5.14553 0,0.24619 -0.21105,0.44762 -0.46901,0.44762 -0.25796,0 -0.46902,0.31659 -0.46902,0.70353 0,0.38693 -0.21106,0.70352 -0.46902,0.70352 -0.25796,0 -0.46901,0.299 -0.46901,0.66444 0,0.36544 -0.16908,0.73479 -0.37573,0.82078 -0.20665,0.086 -1.41949,1.63374 -2.69519,3.43946 -2.75285,3.89656 -2.59339,3.69035 -6.52863,8.4423 -8.94575,10.80231 -19.18833,20.97802 -28.08986,27.9065 -0.49713,0.38694 -1.55968,1.24463 -2.36122,1.90597 -0.80155,0.66134 -2.19606,1.70646 -3.09892,2.32248 -0.90286,0.61603 -1.74709,1.24551 -1.87607,1.39886 -0.4148,0.49315 -10.73498,7.50516 -11.04599,7.50516 -0.16507,0 -0.86034,0.39781 -1.54506,0.88401 -0.68472,0.48621 -2.30023,1.4705 -3.59003,2.18731 -1.28979,0.71682 -3.18931,1.7914 -4.22115,2.38795 -2.11552,1.22309 -9.82222,5.03566 -14.0705,6.9608 -1.54776,0.70137 -3.42694,1.57071 -4.17596,1.93185 -0.74902,0.36114 -1.75154,0.65662 -2.22783,0.65662 -0.47629,0 -0.86597,0.21106 -0.86597,0.46902 0,0.25795 -0.52765,0.46901 -1.17254,0.46901 -0.6449,0 -1.17255,0.21106 -1.17255,0.46902 0,0.25796 -0.51518,0.46902 -1.14486,0.46902 -0.62967,0 -1.2753,0.21105 -1.43473,0.46901 -0.15943,0.25796 -0.70239,0.46902 -1.20659,0.46902 -0.50419,0 -1.2832,0.19285 -1.73113,0.42855 -1.45397,0.7651 -11.19896,3.7926 -12.2077,3.7926 -0.53917,0 -1.11074,0.21106 -1.27017,0.46902 -0.15943,0.25796 -1.00366,0.46901 -1.87606,0.46901 -0.87241,0 -1.71664,0.21106 -1.87607,0.46902 -0.15943,0.25796 -0.94837,0.46902 -1.7532,0.46902 -0.80482,0 -2.11148,0.19836 -2.90367,0.44082 -1.65324,0.50597 -5.15779,1.16922 -9.88265,1.87033 -1.80572,0.26795 -4.76052,0.72163 -6.56624,1.00819 -7.68224,1.21913 -31.01025,2.27478 -31.89617,1.44338 z m 90.05426,-88.71673 c 0.15942,-0.25796 1.21471,-0.46902 2.34508,-0.46902 1.13037,0 2.1774,-0.19769 2.32673,-0.43932 0.30812,-0.49854 2.9915,-1.90576 3.63405,-1.90576 0.71339,0 5.99915,-5.41188 5.99915,-6.14229 0,-0.37724 0.42211,-0.99012 0.93803,-1.36198 0.54245,-0.39097 0.93804,-1.21414 0.93804,-1.95193 0,-0.70171 0.21105,-1.40627 0.46901,-1.5657 0.25796,-0.15942 0.46902,-0.9739 0.46902,-1.80994 0,-0.83604 0.20773,-1.7278 0.46162,-1.98169 0.74868,-0.74869 0.87223,-167.42294 0.12465,-168.17212 -0.32245,-0.32314 -0.58627,-0.9703 -0.58627,-1.43812 0,-1.38174 -0.9627,-2.73797 -4.68666,-6.602462 -3.44562,-3.57565 -5.46733,-5.0228 -7.01702,-5.0228 -0.42469,0 -1.03313,-0.26096 -1.35209,-0.57992 -0.39764,-0.39764 -2.23306,-0.56541 -5.83926,-0.53376 -4.45285,0.0391 -5.53123,0.19994 -7.03242,1.04895 -0.97519,0.55152 -2.08324,1.00277 -2.46233,1.00277 -0.3791,0 -0.68926,0.21106 -0.68926,0.46901 0,0.25796 -0.29008,0.46902 -0.64463,0.46902 -0.8971,0 -6.39062,5.42547 -6.39062,6.31146 0,0.39809 -0.21106,0.723792 -0.46902,0.723792 -0.25796,0 -0.46902,0.31946 -0.46902,0.70989 0,0.39044 -0.19748,1.07638 -0.43885,1.52431 -1.90726,3.53949 -1.90623,3.52905 -1.90623,19.38496 0,9.74595 -0.17177,15.48397 -0.46902,15.66768 -0.3092,0.1911 -0.46902,23.52465 -0.46902,68.47645 0,44.9518 0.15982,68.28536 0.46902,68.47646 0.25796,0.15942 0.48444,0.75229 0.5033,1.31747 0.0189,0.56519 0.43864,1.66078 0.93287,2.43466 0.49422,0.77388 1.03563,1.72364 1.20313,2.11058 0.45783,1.05762 5.90072,6.58437 6.97555,7.08301 0.51591,0.23935 1.5712,0.83874 2.34508,1.33197 0.83877,0.5346 2.29564,0.91064 3.6072,0.93107 1.21008,0.0189 2.33059,0.24534 2.49002,0.5033 0.15943,0.25796 1.21471,0.46902 2.34508,0.46902 1.13037,0 2.18566,-0.21106 2.34509,-0.46902 z m -53.90323,-2.14791 c 3.79757,-1.21722 4.52463,-1.65941 7.60719,-4.62662 2.73899,-2.63651 4.1312,-4.84044 5.79388,-9.17204 0.51038,-1.32963 0.65597,-11.30994 0.76618,-52.52244 0.0853,-31.90713 0.30499,-51.0498 0.58908,-51.33389 0.55703,-0.55703 0.60756,-9.49487 0.0556,-9.83599 -0.21858,-0.13509 -0.52589,-2.41641 -0.68291,-5.06961 -0.30474,-5.1491 -1.05555,-9.93542 -1.76733,-11.26662 -0.23951,-0.44793 -0.43547,-1.22693 -0.43547,-1.73113 0,-0.5042 -0.21106,-1.04716 -0.46901,-1.20659 -0.25796,-0.15942 -0.46902,-0.7926 -0.46902,-1.40705 0,-0.61445 -0.21106,-1.24762 -0.46902,-1.40705 -0.25796,-0.15942 -0.46902,-0.91058 -0.46902,-1.66924 0,-0.75865 -0.21105,-1.37937 -0.46901,-1.37937 -0.25796,0 -0.46902,-0.63317 -0.46902,-1.40705 0,-0.77387 -0.21106,-1.40705 -0.46902,-1.40705 -0.25795,0 -0.48444,-0.36935 -0.50329,-0.82078 -0.0189,-0.45142 -0.43116,-1.45395 -0.91623,-2.22783 -0.48507,-0.77387 -1.52236,-2.69818 -2.30509,-4.27623 -0.78273,-1.57805 -1.7423,-3.13406 -2.13238,-3.4578 -0.39008,-0.32374 -0.70924,-0.89299 -0.70924,-1.26499 0,-0.37201 -0.63317,-1.20916 -1.40705,-1.86033 -0.77388,-0.65118 -1.40705,-1.46911 -1.40705,-1.81762 0,-0.85555 -12.44687,-13.35346 -13.29893,-13.35346 -0.37092,0 -1.32299,-0.7387 -2.11571,-1.64156 -0.79272,-0.90285 -1.62639,-1.64156 -1.8526,-1.64156 -0.62344,0 -3.31496,-1.408372 -3.61294,-1.890522 -0.14415,-0.23324 -1.61754,-1.07097 -3.27419,-1.86161 -1.65665,-0.79065 -3.13829,-1.64174 -3.29254,-1.89131 -0.15424,-0.24958 -0.90116,-0.45377 -1.65982,-0.45377 -0.75865,0 -1.37936,-0.21106 -1.37936,-0.46902 0,-0.25796 -0.62072,-0.46902 -1.37937,-0.46902 -0.75866,0 -1.50982,-0.21106 -1.66924,-0.46902 -0.15943,-0.25795 -0.7926,-0.46901 -1.40705,-0.46901 -0.61445,0 -1.24763,-0.21106 -1.40705,-0.46902 -0.15943,-0.25796 -0.97391,-0.46902 -1.80995,-0.46902 -0.83604,0 -1.72058,-0.1916 -1.96564,-0.42577 -0.45302,-0.43291 -1.77409,-0.61053 -10.52943,-1.41574 -6.47167,-0.59518 -18.50876,0.22269 -20.74763,1.40972 -0.44793,0.23749 -1.43799,0.43179 -2.20014,0.43179 -0.76216,0 -1.51618,0.21106 -1.67561,0.46902 -0.15943,0.25796 -1.12164,0.46902 -2.13826,0.46902 -1.01661,0 -1.84838,0.21106 -1.84838,0.46901 0,0.25796 -0.40966,0.46902 -0.91035,0.46902 -0.5007,0 -1.0408,0.21106 -1.20023,0.46902 -0.15943,0.25796 -0.7926,0.46902 -1.40705,0.46902 -0.61445,0 -1.24338,0.20419 -1.39763,0.45377 -0.15424,0.24957 -1.61612,1.09123 -3.24863,1.87035 -1.63249,0.77912 -3.23305,1.73574 -3.55679,2.12582 -0.32374,0.39008 -0.9383,0.70924 -1.36568,0.70924 -0.42739,0 -1.08131,0.42212 -1.45316,0.938032 -0.37186,0.51592 -0.91957,0.93804 -1.21713,0.93804 -0.29757,0 -1.34751,0.7387 -2.3332,1.64156 -0.98569,0.90285 -2.0113,1.64155 -2.27912,1.64155 -0.70807,0 -10.58614,9.95672 -10.58614,10.67042 0,0.33141 -0.7387,1.31994 -1.64156,2.19673 -0.90286,0.8768 -1.64156,1.88176 -1.64156,2.23326 0,0.3515 -0.42211,0.94333 -0.93803,1.31518 -0.51592,0.37186 -0.95346,0.99886 -0.97232,1.39334 -0.0189,0.39448 -0.43783,1.35041 -0.93106,2.12429 -0.49324,0.77388 -1.089002,1.83784 -1.323922,2.36436 -0.23491,0.52652 -0.76569,1.2383 -1.1795,1.58173 -0.41381,0.34343 -0.75239,1.01428 -0.75239,1.49077 0,0.47648 -0.42211,1.61787 -0.93803,2.53642 -0.51592,0.91856 -0.93803,1.98026 -0.93803,2.35936 0,0.37909 -0.21106,0.68925 -0.46902,0.68925 -0.25796,0 -0.46902,0.53051 -0.46902,1.17891 0,0.6484 -0.2044,1.54539 -0.45424,1.99332 -0.65335,1.17142 -1.69166,4.59419 -2.38124,7.84967 -0.32784,1.54775 -0.77373,3.0146 -0.99087,3.25967 -0.21714,0.24506 -0.3948,1.8683 -0.3948,3.60719 0,1.7389 -0.21106,3.29208 -0.46902,3.45151 -0.30711,0.18981 -0.46901,15.00418 -0.46901,42.91504 0,27.91085 -0.16191,42.72523 -0.46902,42.91503 -0.64203,0.3968 -0.64203,28.84454 0,28.84454 0.25796,0 0.46902,0.69726 0.46902,1.54947 0,1.75721 1.90104,5.87658 3.29355,7.13678 0.51018,0.46171 0.9276,1.05903 0.9276,1.32738 0,0.63074 2.37908,3.11884 2.98217,3.11884 0.25388,0 0.85204,0.35335 1.32926,0.78523 1.79694,1.6262 6.869262,2.9669 11.224822,2.9669 4.13747,0 4.73446,-0.14225 9.13221,-2.1761 3.28469,-1.51908 9.56977,-8.36033 9.56977,-10.4166 0,-0.52438 0.21105,-1.08387 0.46901,-1.24329 0.25796,-0.15943 0.46902,-1.12165 0.46902,-2.13826 0,-1.01661 0.21106,-1.84839 0.46902,-1.84839 0.30476,0 0.46901,-6.48919 0.46901,-18.52953 v -18.52954 l 30.83786,0.12063 30.83785,0.12062 0.29124,19.69871 c 0.28267,19.11955 0.53001,23.21633 1.40164,23.21633 0.22973,0 0.4177,0.42212 0.4177,0.93804 0,0.51591 0.21106,0.93803 0.46901,0.93803 0.25796,0 0.46902,0.3872 0.46902,0.86044 0,0.99539 6.20795,7.11285 7.21806,7.11285 0.37238,0 0.74741,0.16289 0.8334,0.36199 0.086,0.19909 1.21162,0.70656 2.50142,1.1277 3.11853,1.01824 9.69268,1.07754 12.69716,0.11453 z"
     style="fill:#78bbe6;fill-opacity:1" />
</svg>
