<?xml version="1.0" encoding="UTF-8" standalone="no"?>
<!-- Created with Inkscape (http://www.inkscape.org/) -->

<svg
   xmlns:dc="http://purl.org/dc/elements/1.1/"
   xmlns:cc="http://creativecommons.org/ns#"
   xmlns:rdf="http://www.w3.org/1999/02/22-rdf-syntax-ns#"
   xmlns:svg="http://www.w3.org/2000/svg"
   xmlns="http://www.w3.org/2000/svg"
   xmlns:sodipodi="http://sodipodi.sourceforge.net/DTD/sodipodi-0.dtd"
   xmlns:inkscape="http://www.inkscape.org/namespaces/inkscape"
   width="11.542032mm"
   height="11.357539mm"
   viewBox="0 0 40.896965 40.243249"
   id="svg4171"
   version="1.1"
   inkscape:version="0.91 r13725"
   sodipodi:docname="biomedisa_icon.svg">
  <defs
     id="defs4173" />
  <sodipodi:namedview
     id="base"
     pagecolor="#ffffff"
     bordercolor="#666666"
     borderopacity="1.0"
     inkscape:pageopacity="0.0"
     inkscape:pageshadow="2"
     inkscape:zoom="1.2837891"
     inkscape:cx="84.649756"
     inkscape:cy="-150.80186"
     inkscape:document-units="px"
     inkscape:current-layer="layer1"
     showgrid="false"
     fit-margin-top="0"
     fit-margin-left="0"
     fit-margin-right="0"
     fit-margin-bottom="0"
     inkscape:window-width="1855"
     inkscape:window-height="1056"
     inkscape:window-x="65"
     inkscape:window-y="24"
     inkscape:window-maximized="1" />
  <metadata
     id="metadata4176">
    <rdf:RDF>
      <cc:Work
         rdf:about="">
        <dc:format>image/svg+xml</dc:format>
        <dc:type
           rdf:resource="http://purl.org/dc/dcmitype/StillImage" />
        <dc:title></dc:title>
      </cc:Work>
    </rdf:RDF>
  </metadata>
  <g
     inkscape:label="Ebene 1"
     inkscape:groupmode="layer"
     id="layer1"
     transform="translate(-141.57191,-341.3171)">
    <path
       inkscape:connector-curvature="0"
       id="path3419-9"
       d="m 162.47391,381.45924 c -1.67264,-0.6196 -4.17974,-2.72 -4.93262,-4.1326 -0.67044,-1.2579 -0.73377,-1.5952 -0.89531,-4.7687 -0.10264,-2.0163 -0.14854,-2.3473 -0.32552,-2.3473 -0.0622,0 -0.41322,0.2188 -0.78004,0.4862 -1.02071,0.7442 -1.32243,0.636 -1.32243,-0.4741 0,-0.3212 -0.0335,-0.6048 -0.0745,-0.6301 -0.041,-0.025 -0.46764,0.081 -0.94814,0.2357 -1.83972,0.5934 -2.63642,0.7115 -4.81701,0.7138 -1.98378,0 -2.00245,10e-5 -2.54395,-0.2648 -0.38089,-0.1864 -0.80931,-0.5429 -1.41972,-1.1814 -0.75419,-0.7889 -0.94784,-1.0655 -1.41036,-2.015 -0.6419,-1.3176 -1.20547,-2.8098 -1.34638,-3.565 -0.1938,-1.0384 -0.0735,-1.7174 0.49774,-2.8098 0.28075,-0.5368 0.709,-1.203 0.95167,-1.4804 0.59195,-0.6767 1.60355,-1.3716 2.55538,-1.7552 0.47276,-0.1906 0.82635,-0.3969 0.89451,-0.5218 0.0655,-0.12 0.14172,-0.9606 0.18191,-2.0057 0.0635,-1.6519 0.0941,-1.8746 0.37353,-2.7229 0.39479,-1.1984 0.76312,-2.7349 1.3113,-5.4703 0.51846,-2.587 0.82722,-3.5893 1.34416,-4.3635 0.92398,-1.3836 1.61299,-1.416 3.10987,-0.1461 1.88515,1.5993 3.40808,4.0485 4.96911,7.9916 0.9528,2.4067 1.26616,3.3622 1.72305,5.254 0.6809,2.8194 1.3449,4.2939 2.04331,4.5376 0.0829,0.029 0.38919,-0.05 0.68072,-0.1761 0.67894,-0.2929 1.01043,-0.2985 1.20525,-0.02 0.1914,0.2733 0.19558,1.0158 0.008,1.4642 -0.23916,0.5723 -0.13853,0.5967 1.86709,0.4512 2.72642,-0.1978 5.27074,-0.1607 6.77481,0.099 2.30249,0.3972 6.0022,1.5669 7.9844,2.5243 1.212,0.5853 2.1244,1.223 2.29933,1.6069 0.15155,0.3327 -0.17739,0.8954 -0.99884,1.7087 -1.43389,1.4197 -2.95057,2.375 -4.33147,2.7282 -1.46394,0.3744 -5.04334,0.4747 -6.79086,0.1903 -0.30942,-0.05 -0.59994,-0.069 -0.6456,-0.04 -0.0457,0.028 -0.008,0.191 0.0834,0.3618 0.13117,0.2449 0.17445,0.6372 0.20459,1.8545 0.0779,3.1469 -0.3938,4.9099 -1.67816,6.2718 -1.54629,1.6397 -4.53413,2.8815 -5.80241,2.4117 l 0,0 z m 12.85543,-12.5446 c 0.2767,-0.1462 0.52843,-0.3876 0.71032,-0.6813 0.23952,-0.3867 0.28172,-0.5552 0.28172,-1.1247 0,-0.5297 -0.0469,-0.7459 -0.22401,-1.0324 -0.25667,-0.4153 -0.95059,-0.8914 -1.43051,-0.9814 -0.62788,-0.1178 -1.60117,0.4154 -2.09182,1.146 -0.49727,0.7404 -0.27198,1.7956 0.51674,2.4203 0.67699,0.5362 1.52116,0.6318 2.23756,0.2535 z m -25.19851,-2.8355 c 0.36403,-0.1882 0.64836,-0.5964 0.7935,-1.139 0.10433,-0.3901 0.0945,-0.4823 -0.0928,-0.8692 -0.33696,-0.6961 -0.79467,-1.0756 -1.36289,-1.1302 -0.45875,-0.044 -0.50308,-0.026 -0.9368,0.3733 -0.57817,0.533 -0.73206,0.8354 -0.73206,1.4386 0,0.3839 0.0543,0.5481 0.2634,0.7966 0.50177,0.5963 1.46292,0.8427 2.06766,0.5299 z"
       style="fill:#78bbe6;fill-opacity:1" />
  </g>
</svg>
