<?xml version="1.0" encoding="UTF-8" standalone="no"?>
<!-- Created with Inkscape (http://www.inkscape.org/) -->

<svg
   xmlns:dc="http://purl.org/dc/elements/1.1/"
   xmlns:cc="http://creativecommons.org/ns#"
   xmlns:rdf="http://www.w3.org/1999/02/22-rdf-syntax-ns#"
   xmlns:svg="http://www.w3.org/2000/svg"
   xmlns="http://www.w3.org/2000/svg"
   xmlns:sodipodi="http://sodipodi.sourceforge.net/DTD/sodipodi-0.dtd"
   xmlns:inkscape="http://www.inkscape.org/namespaces/inkscape"
   version="1.1"
   id="svg2"
   width="21.308649"
   height="27.690769"
   viewBox="0 0 21.308649 27.69077"
   sodipodi:docname="file_blank.svg"
   inkscape:version="0.92.3 (2405546, 2018-03-11)">
  <metadata
     id="metadata8">
    <rdf:RDF>
      <cc:Work
         rdf:about="">
        <dc:format>image/svg+xml</dc:format>
        <dc:type
           rdf:resource="http://purl.org/dc/dcmitype/StillImage" />
        <dc:title />
      </cc:Work>
    </rdf:RDF>
  </metadata>
  <defs
     id="defs6" />
  <sodipodi:namedview
     pagecolor="#ffffff"
     bordercolor="#666666"
     borderopacity="1"
     objecttolerance="10"
     gridtolerance="10"
     guidetolerance="10"
     inkscape:pageopacity="0"
     inkscape:pageshadow="2"
     inkscape:window-width="1853"
     inkscape:window-height="1025"
     id="namedview4"
     showgrid="false"
     inkscape:zoom="6.016162"
     inkscape:cx="-6.2893992"
     inkscape:cy="22.041549"
     inkscape:window-x="67"
     inkscape:window-y="27"
     inkscape:window-maximized="1"
     inkscape:current-layer="svg2" />
  <path
     style="fill:#000000;stroke-width:0.05417607"
     d="M 3.8194132,27.676839 C 3.0005825,27.549065 2.4846925,27.365484 1.9214494,27.001442 1.0338394,26.427752 0.3915013,25.521569 0.1011851,24.433491 0.0040881,24.06958 0,23.641663 0,13.842068 0,4.042473 0.00409,3.6145558 0.1011851,3.2506452 0.4547699,1.9254418 1.2780114,0.93509077 2.4924402,0.37399012 3.3347535,-0.01518268 3.0948164,8.0749376e-5 8.3702036,8.0749376e-5 c 4.5124514,0 4.7545864,0.0049353006 5.0352784,0.102631920624 0.428697,0.14921108 0.864438,0.42016178 1.428807,0.88845404 0.6739,0.55917629 5.059301,4.95540939 5.55051,5.56421899 0.452172,0.5604255 0.801849,1.218771 0.881505,1.6596315 0.03626,0.2006725 0.04951,2.9751068 0.03868,8.0993238 -0.01839,8.702388 0.01326,7.995607 -0.398332,8.89605 -0.438361,0.959006 -1.129711,1.647806 -2.107214,2.099439 -0.854391,0.394754 -0.313292,0.368999 -7.964224,0.379079 -3.7841994,0.005 -6.9413096,-4.34e-4 -7.0158008,-0.01207 z M 17.387749,25.544873 c 0.914803,-0.149802 1.639868,-0.89829 1.768356,-1.825483 0.03126,-0.225569 0.04586,-3.155455 0.03695,-7.414076 C 19.179345,9.7490843 19.171875,9.2523937 19.084605,9.0929009 18.957221,8.8600993 18.756006,8.7118665 18.425959,8.6076827 18.195691,8.5349957 17.769857,8.5161062 15.900678,8.4956655 14.652392,8.4820142 13.575562,8.4472906 13.479684,8.4175973 13.237527,8.3426008 13.043261,8.176835 12.926184,7.9452984 12.835032,7.7650345 12.823332,7.540595 12.79583,5.4447762 12.777389,4.0394171 12.742078,3.0473034 12.705204,2.8985007 12.621292,2.5598724 12.406249,2.2541471 12.187766,2.1628589 12.034276,2.0987269 11.353616,2.0859119 8.1146076,2.0861739 5.8491638,2.0863581 4.091194,2.1085189 3.9034485,2.1392629 3.0021374,2.2868558 2.2681892,3.0333109 2.1378383,3.9349604 c -0.066184,0.4578036 -0.066184,19.3564116 0,19.8142156 0.12659,0.875635 0.8682458,1.649887 1.7168159,1.792272 0.3846036,0.06453 13.1402038,0.06776 13.5330948,0.0034 z"
     id="path817"
     inkscape:connector-curvature="0" />
</svg>
