<?xml version="1.0" encoding="UTF-8" standalone="no"?>
<!-- Created with Inkscape (http://www.inkscape.org/) -->

<svg
   version="1.1"
   id="svg2"
   width="402.79013"
   height="379.2641"
   viewBox="0 0 402.79013 379.2641"
   xmlns="http://www.w3.org/2000/svg"
   xmlns:svg="http://www.w3.org/2000/svg">
  <defs
     id="defs6" />
  <g
     id="g8"
     transform="translate(-53.253904,-52.056654)">
    <path
       style="fill:#78bbe6;fill-opacity:1"
       d="m 62.123679,429.15732 c -2.62884,-1.33248 -5.26391,-3.67726 -6.46189,-5.75 -1.93997,-3.35656 -2.03569,-5.44669 -2.33562,-51 -0.34177,-51.90654 0.44514,-67.38295 4.16934,-82 8.49613,-33.34632 31.44757,-62.32858 61.754301,-77.98116 28.50424,-14.72164 60.69346,-18.05328 90.77713,-9.39559 11.20396,3.22435 28.78422,11.75398 37.59056,18.23827 7.38213,5.43562 8.03543,5.73383 9.03132,4.12244 1.1039,-1.78614 14.74001,-10.58131 22.33566,-14.4063 35.7153,-17.98539 81.41464,-16.49169 115.90233,3.78831 22.07374,12.98016 38.13615,30.56599 49.32562,54.00387 8.71853,18.26215 12.45103,37.75135 11.74839,61.34408 -0.41931,14.07919 -1.41409,17.19403 -7.17582,22.46887 -6.64634,6.0847 0.55368,5.81721 -156.58295,5.81721 H 148.6282 l -34.99465,35.09995 c -19.404808,19.4632 -36.428181,35.72366 -38.212521,36.5 -4.54409,1.97706 -8.17823,1.74477 -13.29735,-0.84995 z M 163.63891,177.99233 c -9.74011,-2.25672 -16.82661,-5.33238 -24.17276,-10.49138 -11.53751,-8.10248 -19.5309,-18.92594 -24.01327,-32.51522 -2.2634,-6.86196 -2.66464,-9.81008 -2.66464,-19.57841 0,-9.76833 0.40124,-12.71645 2.66464,-19.578406 4.651,-14.10052 13.06329,-25.18504 25.35042,-33.40317 11.20506,-7.4944 21.00137,-10.36909 35.33561,-10.36909 9.8126,0 12.70532,0.39729 19.71451,2.70763 19.4624,6.41511 34.52072,21.50764 40.97152,41.06463 2.2634,6.861956 2.66464,9.810076 2.66464,19.578406 0,9.76833 -0.40124,12.71645 -2.66464,19.57841 -4.651,14.10052 -13.06329,25.18504 -25.35042,33.40317 -13.53713,9.05418 -33.18319,12.99831 -47.83561,9.60343 z m 160,0 c -9.74011,-2.25672 -16.82661,-5.33238 -24.17276,-10.49138 -11.53751,-8.10248 -19.5309,-18.92594 -24.01327,-32.51522 -2.2634,-6.86196 -2.66464,-9.81008 -2.66464,-19.57841 0,-9.76833 0.40124,-12.71645 2.66464,-19.578406 4.651,-14.10052 13.06329,-25.18504 25.35042,-33.40317 11.20506,-7.4944 21.00137,-10.36909 35.33561,-10.36909 9.8126,0 12.70532,0.39729 19.71451,2.70763 19.4624,6.41511 34.52072,21.50764 40.97152,41.06463 2.2634,6.861956 2.66464,9.810076 2.66464,19.578406 0,9.76833 -0.40124,12.71645 -2.66464,19.57841 -4.651,14.10052 -13.06329,25.18504 -25.35042,33.40317 -13.53713,9.05418 -33.18319,12.99831 -47.83561,9.60343 z"
       id="path971" />
    <path
       style="fill:#5a9dc8;fill-opacity:1;stroke-width:1.01473"
       d="m 222.70128,355.92727 c -2.45143,-1.30295 -5.82244,-4.31863 -7.49112,-6.70151 l -3.03396,-4.3325 -0.32403,-16.95919 c -0.23593,-12.34778 0.13058,-19.6964 1.3479,-27.02568 4.26379,-25.67146 15.91046,-48.79968 33.54782,-66.62006 6.95905,-7.03126 8.6705,-8.28196 10.20312,-7.4562 3.77335,2.03308 17.70873,17.80565 23.13156,26.18116 11.6322,17.96585 17.80707,37.04739 19.67947,60.8135 2.20081,27.93446 -0.71082,37.94437 -12.47672,42.89366 -3.07724,1.29443 -8.77989,1.57581 -31.93652,1.57581 -27.55875,0 -28.29021,-0.053 -32.64752,-2.36899 z"
       id="path1027" />
  </g>
</svg>
