<svg id="Ebene_1" data-name="Ebene 1" xmlns="http://www.w3.org/2000/svg" viewBox="0 0 543.87 188.7"><defs><style>.cls-1{fill:#94bc3a;}.cls-2{fill:#999;}.cls-2,.cls-3,.cls-5{stroke:#666;}.cls-2,.cls-3,.cls-4,.cls-5{stroke-miterlimit:10;}.cls-2,.cls-3,.cls-4{stroke-width:0.25px;}.cls-3{fill:#666;}.cls-4{fill:#fff;stroke:#fff;}.cls-5{fill:none;stroke-width:0.75px;}</style></defs><title>HD_Stiftung_Chirurgie_Logo2</title><path class="cls-1" d="M54.56,105.27c-.75,1.23-1.53,2.44-2.24,3.7s-1.39,2.67-2.08,4c-.18.4-.4.78-.54,1.18a46.51,46.51,0,0,0-2.5,10.59,30.59,30.59,0,0,0-.07,4.69c.11,1.91.44,3.81.58,5.72a4.11,4.11,0,0,1-.79,3.34h0a4.08,4.08,0,0,1-2,.42,11.34,11.34,0,0,1-3.66-1,2.52,2.52,0,0,0-.47-.13c-1.09-.63-2.22-1.19-3.24-1.92-1.38-1-2.67-2.07-4-3.12a.92.92,0,0,0-.16-.27l-2.16-2.17a2.54,2.54,0,0,0-.28-.16c-.51-.6-1.06-1.19-1.55-1.82-.76-.94-1.47-1.91-2.21-2.87-.14-.18-.28-.34-.43-.52l-1.36-2.11-1.81-3a1.57,1.57,0,0,1-.09-.23l-.62-1.23c-.27-.5-.53-1-.79-1.51l0-.14-1.74-4.57a.9.9,0,0,0-.1-.12v0c0-.11,0-.22,0-.32a63.56,63.56,0,0,1-2.09-13.91,43.27,43.27,0,0,1,.85-10c.15-.71.29-1.43.43-2.15v0l.69-2.44a58.19,58.19,0,0,1,3.18-7.67,50.25,50.25,0,0,1,6.33-9.7A40.28,40.28,0,0,1,37,58.87a57.23,57.23,0,0,1,5.13-3.36A40.88,40.88,0,0,1,50.33,52c1.11-.34,2.25-.62,3.38-.93L56,50.48l.4,0c2.14-.29,4.27-.62,6.42-.86a37.84,37.84,0,0,1,4-.17c1.19,0,2.37.14,3.56.21a40.84,40.84,0,0,1,6.77,1l2.46.6h0a2,2,0,0,0,.25.13l2.92,1a2.2,2.2,0,0,0,.37.07l1.39.54,1.92,1c1,.81,2.15,1.56,3.11,2.46a7.6,7.6,0,0,1,2.18,3.42l.06.41c.12.71.27,1.41.35,2.13a10.32,10.32,0,0,1-.87,5,4.94,4.94,0,0,0-.13.52,20.17,20.17,0,0,1-4.34,6.62c-1.59,1.61-3.17,3.23-4.85,4.74-1.84,1.66-3.77,3.22-5.71,4.78C73.86,86,71.4,87.83,69,89.78c-1.83,1.52-3.57,3.16-5.35,4.75a1,1,0,0,0-.31.17q-1.66,1.64-3.3,3.3a1.17,1.17,0,0,0-.17.31c-.77.88-1.57,1.73-2.31,2.63s-1.23,1.63-1.85,2.45c-.28.4-.57.79-.84,1.2a7.24,7.24,0,0,0-.35.68" transform="translate(-18.13 -3.51)"/><path class="cls-1" d="M75.83,138.74l1.39-2.49A20.32,20.32,0,0,0,78,134.3a21.9,21.9,0,0,0,.39-9.36,19.85,19.85,0,0,0-.75-2.54,13.74,13.74,0,0,0-2.26-4c-.65-.86-1.45-1.6-2.16-2.42A15,15,0,0,1,70.77,113a.74.74,0,0,0,0-.21,6.79,6.79,0,0,1-.09-3.66l.18-1c.28-.7.54-1.4.85-2.08a25.93,25.93,0,0,1,4.09-6.25q1.7-1.95,3.48-3.81c.8-.83,1.67-1.6,2.54-2.37a26.66,26.66,0,0,1,2.51-2.13c1.35-1,2.73-1.86,4.15-2.7a28.61,28.61,0,0,1,5.21-2.41,1.11,1.11,0,0,1,.25-.05,21.81,21.81,0,0,1,6.49-1.28,38.57,38.57,0,0,1,4,.14,17.29,17.29,0,0,1,2.1.41,7.65,7.65,0,0,1,4.28,3.7.8.8,0,0,0,0,.24,12.83,12.83,0,0,1,1.21,4.82,38.81,38.81,0,0,1-.17,8,54.19,54.19,0,0,1-2.25,10.31,5.21,5.21,0,0,0-.1.57c0,.06-.06.11-.08.16-.41,1-.8,2-1.2,3.07a.48.48,0,0,0,0,.17c-.19.42-.39.83-.59,1.26-.31.6-.63,1.21-.93,1.82a5.87,5.87,0,0,0-.26.65l-1.44,2.37c-.34.54-.68,1.07-1,1.62-1,1.26-2,2.52-3,3.77-.28.34-.62.65-.93,1l-2.43,2.43c-.5.47-1,1-1.5,1.41s-1.34,1.11-2,1.66a2.17,2.17,0,0,1-.33.19,7.42,7.42,0,0,0-.64.46c-.25.2-.48.43-.72.65l-1.44.92-1.59,1a1.29,1.29,0,0,0-.2.25l-4.15,2.36-2.32,1.11c-.06,0-.1.12-.15.18l-1.26.41c-.54.16-1.07.35-1.61.49a7.14,7.14,0,0,1-3.08.31l-1-.25-.5-.41a1.76,1.76,0,0,1-.15-1.77c.24-.62.55-1.2.83-1.81" transform="translate(-18.13 -3.51)"/><path class="cls-1" d="M59.91,98.31a1.17,1.17,0,0,1,.17-.31q1.64-1.66,3.3-3.3a1,1,0,0,1,.31-.17l-3.78,3.78" transform="translate(-18.13 -3.51)"/><path class="cls-2" d="M198.08,91.78V79.38H184.55v12.4H180.8V65h3.75V76.22h13.53V65h3.74V91.78Z" transform="translate(-18.13 -3.51)"/><polygon class="cls-2" points="183.69 88.27 183.69 61.48 179.94 61.48 179.94 72.71 166.41 72.71 166.41 61.48 162.67 61.48 162.67 88.27 166.41 88.27 166.41 75.87 179.94 75.87 179.94 88.27 183.69 88.27"/><path class="cls-2" d="M208.29,91.78V65H225.1v3.16H212V76.1h11.3v3.12H212v9.4h13.45v3.16Z" transform="translate(-18.13 -3.51)"/><polygon class="cls-2" points="207.36 88.27 207.36 85.11 193.9 85.11 193.9 75.71 205.21 75.71 205.21 72.59 193.9 72.59 193.9 64.64 206.97 64.64 206.97 61.48 190.16 61.48 190.16 88.27 207.36 88.27"/><path class="cls-2" d="M229.93,91.78V65h3.75V91.78Z" transform="translate(-18.13 -3.51)"/><path class="cls-2" d="M240.15,91.74V65h9.79a16.64,16.64,0,0,1,5.9,1,14,14,0,0,1,4.59,2.81,12.71,12.71,0,0,1,3,4.21,13,13,0,0,1,1.05,5.23,13.55,13.55,0,0,1-1.11,5.57,12.48,12.48,0,0,1-3.08,4.27,13.53,13.53,0,0,1-4.66,2.73,17.41,17.41,0,0,1-5.89,1Zm9.71-3.12a11.65,11.65,0,0,0,4.29-.76,10.16,10.16,0,0,0,3.37-2.12,9.45,9.45,0,0,0,2.2-3.24,10.66,10.66,0,0,0,.78-4.13,10.55,10.55,0,0,0-.78-4.1A9.54,9.54,0,0,0,257.54,71a10.12,10.12,0,0,0-3.37-2.12,11.83,11.83,0,0,0-4.31-.76h-6V88.62Z" transform="translate(-18.13 -3.51)"/><rect class="cls-2" x="211.8" y="61.48" width="3.74" height="26.79"/><path class="cls-2" d="M249.7,91.78a17.41,17.41,0,0,0,5.89-1,13.44,13.44,0,0,0,4.66-2.73,12.48,12.48,0,0,0,3.08-4.27,13.55,13.55,0,0,0,1.11-5.57A13,13,0,0,0,263.39,73a12.71,12.71,0,0,0-3-4.21A14,14,0,0,0,255.85,66a16.7,16.7,0,0,0-5.91-1h-9.79V91.74Zm-5.81-3.16V68.15h6a11.79,11.79,0,0,1,4.31.76A9.87,9.87,0,0,1,257.54,71a9.4,9.4,0,0,1,2.18,3.24,10.37,10.37,0,0,1,.79,4.1,10.48,10.48,0,0,1-.79,4.13,9.37,9.37,0,0,1-2.2,3.23,10.19,10.19,0,0,1-3.37,2.13,11.65,11.65,0,0,1-4.29.76Z" transform="translate(-18.13 -3.51)"/><path class="cls-2" d="M269.32,91.78V65h16.8v3.16H273.06V76.1h11.31v3.12H273.06v9.4h13.45v3.16Z" transform="translate(-18.13 -3.51)"/><polygon class="cls-2" points="268.38 88.27 268.38 85.11 254.93 85.11 254.93 75.71 266.24 75.71 266.24 72.59 254.93 72.59 254.93 64.64 267.99 64.64 267.99 61.48 251.19 61.48 251.19 88.27 268.38 88.27"/><path class="cls-2" d="M290.92,91.78V65h3.74V88.58h13v3.2Z" transform="translate(-18.13 -3.51)"/><path class="cls-2" d="M311.74,91.78V65h9.4a12.05,12.05,0,0,1,3.35.45,8.23,8.23,0,0,1,2.71,1.31,6.23,6.23,0,0,1,1.8,2,5.57,5.57,0,0,1,.64,2.64,5.77,5.77,0,0,1-1.27,3.7A6.71,6.71,0,0,1,325,77.39a8.29,8.29,0,0,1,2.22.66,7,7,0,0,1,1.95,1.35,6.74,6.74,0,0,1,1.39,2,6.4,6.4,0,0,1,.52,2.65,7.1,7.1,0,0,1-.82,3.41A7.18,7.18,0,0,1,328,90a8.35,8.35,0,0,1-3.66,1.43,37.14,37.14,0,0,1-5.46.33ZM319,76.1a10.92,10.92,0,0,0,5-1,3.34,3.34,0,0,0,1.87-3.2,3,3,0,0,0-1.79-3,11.76,11.76,0,0,0-4.83-.82h-3.79V76.1Zm2.07,12.52a9.48,9.48,0,0,0,2.36-.29,5.82,5.82,0,0,0,1.95-.9A4.44,4.44,0,0,0,326.69,86a4.12,4.12,0,0,0,.49-2,4.06,4.06,0,0,0-.5-2,4.34,4.34,0,0,0-1.39-1.47,6.35,6.35,0,0,0-2.05-.87,9.85,9.85,0,0,0-2.45-.3h-5.31v9.4Z" transform="translate(-18.13 -3.51)"/><path class="cls-2" d="M336,91.78V65H352.8v3.16H339.74V76.1h11.31v3.12H339.74v9.4h13.45v3.16Z" transform="translate(-18.13 -3.51)"/><path class="cls-2" d="M372.8,91.78l-5.73-9.48a3.27,3.27,0,0,1-.54,0h-4.45v9.44h-3.74V65h7.72q5,0,7.66,2.11a7.41,7.41,0,0,1,2.67,6.2,8.61,8.61,0,0,1-1.5,5.16,8.84,8.84,0,0,1-4.11,3.1l6.08,10.22ZM366,79.22a7.09,7.09,0,0,0,5-1.59,5.54,5.54,0,0,0,1.72-4.26,4.55,4.55,0,0,0-1.74-4,7.92,7.92,0,0,0-4.77-1.27h-4.1V79.22Z" transform="translate(-18.13 -3.51)"/><polygon class="cls-2" points="289.51 88.27 289.51 85.07 276.53 85.07 276.53 61.48 272.79 61.48 272.79 88.27 289.51 88.27"/><path class="cls-2" d="M315.48,88.62v-9.4h5.31a10.42,10.42,0,0,1,2.46.29,6.63,6.63,0,0,1,2,.88,4.34,4.34,0,0,1,1.39,1.47,4.06,4.06,0,0,1,.5,2,4.22,4.22,0,0,1-.48,2,4.58,4.58,0,0,1-1.33,1.48,6,6,0,0,1-1.95.9,9.48,9.48,0,0,1-2.36.29Zm0-12.52V68.15h3.79a11.73,11.73,0,0,1,4.83.82,3,3,0,0,1,1.8,3,3.34,3.34,0,0,1-1.88,3.2,10.92,10.92,0,0,1-5,1Zm3.4,15.68a37,37,0,0,0,5.46-.33A8.3,8.3,0,0,0,328,90a7.24,7.24,0,0,0,3-6,6.4,6.4,0,0,0-.52-2.65,6.56,6.56,0,0,0-1.39-2,7,7,0,0,0-1.95-1.35,7.45,7.45,0,0,0-2.22-.66,6.77,6.77,0,0,0,3.41-2.26,5.78,5.78,0,0,0,1.27-3.71,5.42,5.42,0,0,0-.64-2.63,6.37,6.37,0,0,0-1.8-2.05,8.32,8.32,0,0,0-2.71-1.3,12,12,0,0,0-3.35-.45h-9.4V91.78Z" transform="translate(-18.13 -3.51)"/><polygon class="cls-2" points="335.06 88.27 335.06 85.11 321.61 85.11 321.61 75.71 332.92 75.71 332.92 72.59 321.61 72.59 321.61 64.64 334.67 64.64 334.67 61.48 317.86 61.48 317.86 88.27 335.06 88.27"/><path class="cls-2" d="M362.08,79.22V68.15h4.1A7.88,7.88,0,0,1,371,69.42a4.55,4.55,0,0,1,1.74,4A5.5,5.5,0,0,1,371,77.62a7,7,0,0,1-5,1.6Zm14.78,12.56-6.08-10.22a8.84,8.84,0,0,0,4.11-3.1,8.61,8.61,0,0,0,1.5-5.16,7.45,7.45,0,0,0-2.67-6.21Q371,65,366.06,65h-7.72V91.78h3.74V82.34h4.45a3.27,3.27,0,0,0,.54,0l5.73,9.48Z" transform="translate(-18.13 -3.51)"/><path class="cls-3" d="M399,82.27H393.2v-3h9.36v10.1a14.61,14.61,0,0,1-4.14,2.13,16.72,16.72,0,0,1-10.76-.27,13.41,13.41,0,0,1-4.48-2.87A13,13,0,0,1,380.25,84a14.18,14.18,0,0,1-1.05-5.52,15.16,15.16,0,0,1,.94-5.34,12.33,12.33,0,0,1,2.78-4.42,13.82,13.82,0,0,1,4.57-3,16.27,16.27,0,0,1,6.29-1.13c.39,0,.92,0,1.58.06l2.11.14,2.18.17c.72.07,1.33.14,1.85.22v6h-2.1l-1-3.51h-4.83a11.6,11.6,0,0,0-4.13.72,9.56,9.56,0,0,0-3.32,2.11,9.91,9.91,0,0,0-2.22,3.35,11.49,11.49,0,0,0-.82,4.47,12,12,0,0,0,.78,4.44,10,10,0,0,0,2.16,3.4,10.13,10.13,0,0,0,3.22,2.18,10,10,0,0,0,3.94.78,17.42,17.42,0,0,0,3.12-.27A13.15,13.15,0,0,0,399,88Z" transform="translate(-18.13 -3.51)"/><path class="cls-2" d="M399,88a12.54,12.54,0,0,1-2.65.77,16.54,16.54,0,0,1-3.12.28,9.91,9.91,0,0,1-7.16-3,9.85,9.85,0,0,1-2.16-3.39,12.06,12.06,0,0,1-.78-4.44,11.46,11.46,0,0,1,.82-4.47,10.06,10.06,0,0,1,2.22-3.35,9.56,9.56,0,0,1,3.32-2.11,11.6,11.6,0,0,1,4.13-.72h4.83l1,3.51h2.1v-6c-.52-.08-1.13-.15-1.85-.22l-2.18-.17-2.11-.14c-.66,0-1.19-.06-1.58-.06a16.36,16.36,0,0,0-6.3,1.13,13.86,13.86,0,0,0-4.56,3,12.46,12.46,0,0,0-2.78,4.43,15.16,15.16,0,0,0-.94,5.34A14.21,14.21,0,0,0,380.25,84a13,13,0,0,0,7.41,7.21,15.55,15.55,0,0,0,5.77,1,16,16,0,0,0,5-.76,14.48,14.48,0,0,0,4.14-2.13V79.22H393.2v3H399Z" transform="translate(-18.13 -3.51)"/><path class="cls-4" d="M408.05,91.78V65h16.81v3.16H411.8V76.1h11.31v3.12H411.8v9.4h13.45v3.16Z" transform="translate(-18.13 -3.51)"/><path class="cls-4" d="M444.86,91.78l-5.73-9.48a3.27,3.27,0,0,1-.54,0h-4.45v9.44H430.4V65h7.72q5,0,7.66,2.11a7.41,7.41,0,0,1,2.67,6.2,8.61,8.61,0,0,1-1.5,5.16,8.84,8.84,0,0,1-4.11,3.1l6.08,10.22ZM438,79.22a7.09,7.09,0,0,0,5-1.59,5.57,5.57,0,0,0,1.72-4.26,4.55,4.55,0,0,0-1.74-4,7.93,7.93,0,0,0-4.78-1.27h-4.09V79.22Z" transform="translate(-18.13 -3.51)"/><polygon class="cls-2" points="407.12 88.27 407.12 85.11 393.67 85.11 393.67 75.71 404.97 75.71 404.97 72.59 393.67 72.59 393.67 64.64 406.73 64.64 406.73 61.48 389.92 61.48 389.92 88.27 407.12 88.27"/><path class="cls-2" d="M434.14,79.22V68.15h4.1A7.92,7.92,0,0,1,443,69.42a4.55,4.55,0,0,1,1.74,4A5.5,5.5,0,0,1,443,77.62a7,7,0,0,1-5,1.6Zm14.78,12.56-6.08-10.22a8.84,8.84,0,0,0,4.11-3.1,8.61,8.61,0,0,0,1.5-5.16,7.45,7.45,0,0,0-2.67-6.21q-2.67-2.1-7.66-2.1H430.4V91.78h3.74V82.34h4.45a3.27,3.27,0,0,0,.54,0l5.74,9.48Z" transform="translate(-18.13 -3.51)"/><path class="cls-2" d="M180.1,134a9.27,9.27,0,0,0,3.12,1.41,16.17,16.17,0,0,0,4.25.54c2.29,0,4-.42,5-1.27a3.9,3.9,0,0,0,1.6-3.21,3.35,3.35,0,0,0-.61-2.07,4.84,4.84,0,0,0-1.57-1.36,12.06,12.06,0,0,0-2.23-1l-2.53-.84a27.08,27.08,0,0,1-2.93-1.13,10.63,10.63,0,0,1-2.39-1.48,6.38,6.38,0,0,1-1.64-2,6.06,6.06,0,0,1-.61-2.83,6.82,6.82,0,0,1,.65-3,6.38,6.38,0,0,1,1.95-2.34,9.75,9.75,0,0,1,3.29-1.54,18,18,0,0,1,4.68-.54c.57,0,1.17,0,1.79.05l1.86.14q.91.08,1.77.18l1.56.17v6.08H195l-1-3.51h-4.64a9.77,9.77,0,0,0-2.73.34,5.44,5.44,0,0,0-1.87.91,3.57,3.57,0,0,0-1.09,1.35,3.75,3.75,0,0,0-.35,1.62,2.9,2.9,0,0,0,.41,1.59,3.79,3.79,0,0,0,1.2,1.19,9.91,9.91,0,0,0,2,1q1.22.45,2.85,1c1,.37,2.05.76,3,1.17a11.81,11.81,0,0,1,2.59,1.5,6.6,6.6,0,0,1,1.8,2.11,6.14,6.14,0,0,1,.66,2.94,7.4,7.4,0,0,1-.66,3.12,7,7,0,0,1-2,2.52,10,10,0,0,1-3.3,1.68,15.75,15.75,0,0,1-4.58.6,18.5,18.5,0,0,1-4.91-.6,10,10,0,0,1-3.32-1.47Z" transform="translate(-18.13 -3.51)"/><path class="cls-2" d="M179.17,137a10,10,0,0,0,3.31,1.47,18.55,18.55,0,0,0,4.91.6,15.75,15.75,0,0,0,4.58-.6,9.85,9.85,0,0,0,3.3-1.68,7,7,0,0,0,2-2.52,7.4,7.4,0,0,0,.66-3.12,6.14,6.14,0,0,0-.66-2.94,6.7,6.7,0,0,0-1.79-2.11,12.12,12.12,0,0,0-2.6-1.5c-1-.41-2-.8-3-1.17s-2-.69-2.85-1a10.47,10.47,0,0,1-2-1,3.79,3.79,0,0,1-1.2-1.19,2.91,2.91,0,0,1-.41-1.6,3.78,3.78,0,0,1,.35-1.62,3.72,3.72,0,0,1,1.09-1.34,5.63,5.63,0,0,1,1.87-.92,9.9,9.9,0,0,1,2.73-.33h4.64l1,3.51h2.1v-6.08l-1.56-.18-1.77-.17-1.85-.14q-.94-.06-1.8-.06a18,18,0,0,0-4.68.55,9.57,9.57,0,0,0-3.29,1.54,6.38,6.38,0,0,0-1.95,2.34,6.82,6.82,0,0,0-.65,3,6.06,6.06,0,0,0,.61,2.83,6.38,6.38,0,0,0,1.64,2,10.63,10.63,0,0,0,2.39,1.48,27.08,27.08,0,0,0,2.93,1.13l2.53.84a12.46,12.46,0,0,1,2.23,1,5,5,0,0,1,1.58,1.37,3.39,3.39,0,0,1,.6,2.07,3.9,3.9,0,0,1-1.6,3.21q-1.59,1.28-5,1.27a15.76,15.76,0,0,1-4.25-.55,9.17,9.17,0,0,1-3.12-1.4Z" transform="translate(-18.13 -3.51)"/><path class="cls-2" d="M208.64,138.57V115h-8.3v-3.24h20.43V115h-8.38v23.55Z" transform="translate(-18.13 -3.51)"/><polygon class="cls-2" points="194.26 135.06 194.26 111.51 202.64 111.51 202.64 108.27 182.21 108.27 182.21 111.51 190.51 111.51 190.51 135.06 194.26 135.06"/><path class="cls-2" d="M224.36,138.57V111.78h3.74v26.79Z" transform="translate(-18.13 -3.51)"/><path class="cls-2" d="M234.57,138.57V111.78h16.54v3.16H238.32v8.58h11v3.16h-11v11.89Z" transform="translate(-18.13 -3.51)"/><path class="cls-2" d="M262.14,138.57V115h-8.3v-3.24h20.43V115h-8.38v23.55Z" transform="translate(-18.13 -3.51)"/><path class="cls-2" d="M295.91,111.78h3.74v15.56c0,3.82-.94,6.74-2.82,8.74s-4.61,3-8.17,3-6.14-1-8-3-2.75-4.92-2.75-8.8V111.78h3.75v15.8a9.6,9.6,0,0,0,1.79,6.23,6.47,6.47,0,0,0,5.3,2.19,6.54,6.54,0,0,0,5.35-2.17,9.58,9.58,0,0,0,1.79-6.25Z" transform="translate(-18.13 -3.51)"/><path class="cls-2" d="M323.48,138.57l-13.57-20.51-.78-1.56h-.08l.12,1.91c0,1.82,0,3.66.06,5.5s0,3.73,0,5.65v9h-3.51V111.78h4.17q3.34,5,6.8,10.16t6.77,10.35l.78,1.56h.08l-.12-1.91c0-1.82-.05-3.65-.06-5.5s0-3.72,0-5.65v-9h3.51v26.79Z" transform="translate(-18.13 -3.51)"/><path class="cls-2" d="M352.26,129.06h-5.78v-3h9.36v10.1a14.53,14.53,0,0,1-4.13,2.12,15.72,15.72,0,0,1-5,.76,15.51,15.51,0,0,1-5.77-1,13.45,13.45,0,0,1-4.49-2.87,13.11,13.11,0,0,1-2.92-4.35,14.13,14.13,0,0,1-1.05-5.51,15.4,15.4,0,0,1,.93-5.35,12.44,12.44,0,0,1,2.79-4.42,13.51,13.51,0,0,1,4.56-3,16.18,16.18,0,0,1,6.3-1.13c.39,0,.92,0,1.58.05l2.1.14c.75,0,1.47.11,2.19.18s1.33.13,1.85.21v6h-2.11l-1-3.51h-4.84a11.6,11.6,0,0,0-4.13.73,9.35,9.35,0,0,0-3.31,2.1,10.12,10.12,0,0,0-2.23,3.36,11.63,11.63,0,0,0-.81,4.46,12.12,12.12,0,0,0,.77,4.45,10.07,10.07,0,0,0,2.17,3.39,10,10,0,0,0,7.15,3,17.26,17.26,0,0,0,3.12-.27,12.06,12.06,0,0,0,2.66-.78Z" transform="translate(-18.13 -3.51)"/><rect class="cls-2" x="206.23" y="108.27" width="3.74" height="26.79"/><polygon class="cls-2" points="220.19 135.06 220.19 123.17 231.18 123.17 231.18 120.01 220.19 120.01 220.19 111.43 232.98 111.43 232.98 108.27 216.44 108.27 216.44 135.06 220.19 135.06"/><polygon class="cls-2" points="247.75 135.06 247.75 111.51 256.14 111.51 256.14 108.27 235.7 108.27 235.7 111.51 244.01 111.51 244.01 135.06 247.75 135.06"/><path class="cls-2" d="M295.91,127.58a9.6,9.6,0,0,1-1.79,6.25,7.59,7.59,0,0,1-10.65,0,9.6,9.6,0,0,1-1.79-6.23v-15.8h-3.75V127.3c0,3.87.92,6.81,2.75,8.8s4.49,3,8,3,6.28-1,8.17-3,2.83-4.92,2.83-8.74V111.78h-3.75Z" transform="translate(-18.13 -3.51)"/><path class="cls-2" d="M327.65,138.57V111.78h-3.51v9c0,1.92,0,3.81,0,5.65s0,3.68.06,5.5l.12,1.91h-.08l-.78-1.56q-3.32-5.14-6.77-10.35t-6.8-10.16h-4.17v26.79h3.51v-9c0-1.92,0-3.81,0-5.65s0-3.68-.06-5.5l-.12-1.91h.08l.78,1.56,13.57,20.51Z" transform="translate(-18.13 -3.51)"/><path class="cls-2" d="M352.26,134.83a12.63,12.63,0,0,1-2.66.78,17.23,17.23,0,0,1-3.11.27,9.81,9.81,0,0,1-9.32-6.36,12,12,0,0,1-.78-4.44,11.53,11.53,0,0,1,.82-4.47,9.91,9.91,0,0,1,2.22-3.35,9.35,9.35,0,0,1,3.31-2.1,11.44,11.44,0,0,1,4.14-.73h4.83l1,3.51h2.1v-6c-.52-.08-1.14-.15-1.85-.22l-2.19-.17-2.1-.14c-.66,0-1.19-.06-1.58-.06a16.36,16.36,0,0,0-6.3,1.13,13.68,13.68,0,0,0-4.56,3,12.36,12.36,0,0,0-2.79,4.42,15.4,15.4,0,0,0-.93,5.35,14.16,14.16,0,0,0,1.05,5.51,13.11,13.11,0,0,0,2.92,4.35A13.45,13.45,0,0,0,341,138a16.72,16.72,0,0,0,10.76.27,14.75,14.75,0,0,0,4.14-2.13V126h-9.36v3h5.77Z" transform="translate(-18.13 -3.51)"/><path class="cls-1" d="M393.08,136.93a9.93,9.93,0,0,1-3.33,1.47,18,18,0,0,1-4.74.6,15.51,15.51,0,0,1-5.77-1,13.45,13.45,0,0,1-4.49-2.87,13.11,13.11,0,0,1-2.92-4.35,14.13,14.13,0,0,1-1.05-5.51,15.4,15.4,0,0,1,.93-5.35,12.44,12.44,0,0,1,2.79-4.42,13.51,13.51,0,0,1,4.56-3,16.18,16.18,0,0,1,6.3-1.13c.39,0,.92,0,1.58.05l2.1.14c.75,0,1.47.11,2.19.18s1.33.13,1.85.21v6H391l-1-3.51h-4.84a11.6,11.6,0,0,0-4.13.73,9.35,9.35,0,0,0-3.31,2.1,10.12,10.12,0,0,0-2.23,3.36,11.63,11.63,0,0,0-.81,4.46,12.12,12.12,0,0,0,.77,4.45,10.07,10.07,0,0,0,2.17,3.39,10,10,0,0,0,7.15,3,16.12,16.12,0,0,0,4.25-.54,9.27,9.27,0,0,0,3.12-1.41Z" transform="translate(-18.13 -3.51)"/><path class="cls-1" d="M415.19,138.57v-12.4H401.66v12.4h-3.74V111.78h3.74V123h13.53V111.78h3.74v26.79Z" transform="translate(-18.13 -3.51)"/><path class="cls-1" d="M425.41,138.57V111.78h3.74v26.79Z" transform="translate(-18.13 -3.51)"/><path class="cls-1" d="M450.09,138.57l-5.73-9.47a5.28,5.28,0,0,1-.55,0h-4.45v9.43h-3.74V111.78h7.72c3.33,0,5.88.71,7.66,2.11a7.42,7.42,0,0,1,2.68,6.2,8.64,8.64,0,0,1-1.51,5.17,8.91,8.91,0,0,1-4.11,3.1l6.08,10.21ZM443.26,126a7.07,7.07,0,0,0,5-1.6,5.52,5.52,0,0,0,1.72-4.25,4.58,4.58,0,0,0-1.73-4,7.93,7.93,0,0,0-4.78-1.27h-4.1V126Z" transform="translate(-18.13 -3.51)"/><path class="cls-1" d="M475.71,111.78h3.74v15.56c0,3.82-.94,6.74-2.83,8.74s-4.6,3-8.17,3-6.14-1-8-3-2.75-4.92-2.75-8.8V111.78h3.74v15.8a9.54,9.54,0,0,0,1.8,6.23,7.58,7.58,0,0,0,10.64,0,9.52,9.52,0,0,0,1.8-6.25Z" transform="translate(-18.13 -3.51)"/><path class="cls-1" d="M500,138.57l-5.73-9.47a5.28,5.28,0,0,1-.55,0h-4.44v9.43h-3.75V111.78h7.72c3.33,0,5.88.71,7.66,2.11a7.42,7.42,0,0,1,2.68,6.2,8.57,8.57,0,0,1-1.51,5.17,8.91,8.91,0,0,1-4.11,3.1l6.08,10.21ZM493.18,126a7.11,7.11,0,0,0,5-1.6,5.54,5.54,0,0,0,1.71-4.25,4.58,4.58,0,0,0-1.73-4,7.93,7.93,0,0,0-4.78-1.27h-4.09V126Z" transform="translate(-18.13 -3.51)"/><path class="cls-1" d="M526.16,129.06h-5.77v-3h9.36v10.1a14.53,14.53,0,0,1-4.13,2.12,15.77,15.77,0,0,1-5,.76,15.51,15.51,0,0,1-5.77-1,13.35,13.35,0,0,1-4.49-2.87,13,13,0,0,1-2.92-4.35,14,14,0,0,1-1.06-5.51,15.4,15.4,0,0,1,.94-5.35,12.31,12.31,0,0,1,2.79-4.42,13.51,13.51,0,0,1,4.56-3,16.14,16.14,0,0,1,6.3-1.13c.39,0,.91,0,1.58.05l2.1.14q1.11.08,2.19.18c.71.06,1.33.13,1.85.21v6h-2.11l-1-3.51h-4.84a11.6,11.6,0,0,0-4.13.73,9.48,9.48,0,0,0-3.32,2.1,10.26,10.26,0,0,0-2.22,3.36,11.62,11.62,0,0,0-.82,4.46,12.12,12.12,0,0,0,.78,4.45,9.88,9.88,0,0,0,9.32,6.35,17.42,17.42,0,0,0,3.12-.27,12,12,0,0,0,2.65-.78Z" transform="translate(-18.13 -3.51)"/><path class="cls-1" d="M534.59,138.57V111.78h3.74v26.79Z" transform="translate(-18.13 -3.51)"/><path class="cls-1" d="M544.77,138.57V111.78h16.81v3.16H548.52v8h11.31V126H548.52v9.39H562v3.16Z" transform="translate(-18.13 -3.51)"/><path class="cls-1" d="M392.15,133.93a9.26,9.26,0,0,1-3.12,1.4,15.81,15.81,0,0,1-4.25.55,9.81,9.81,0,0,1-9.32-6.36,12,12,0,0,1-.78-4.44,11.63,11.63,0,0,1,.81-4.46,10,10,0,0,1,2.23-3.36,9.35,9.35,0,0,1,3.31-2.1,11.44,11.44,0,0,1,4.14-.73H390l1,3.51h2.1v-6c-.52-.08-1.14-.15-1.85-.22l-2.18-.17-2.11-.14c-.66,0-1.19-.06-1.58-.06a16.36,16.36,0,0,0-6.3,1.13,13.88,13.88,0,0,0-4.56,3,12.5,12.5,0,0,0-2.79,4.42,15.4,15.4,0,0,0-.93,5.35,14.13,14.13,0,0,0,1.05,5.51,13,13,0,0,0,2.93,4.35,13.31,13.31,0,0,0,4.48,2.87,15.71,15.71,0,0,0,5.77,1,18,18,0,0,0,4.74-.6,9.84,9.84,0,0,0,3.33-1.47Z" transform="translate(-18.13 -3.51)"/><polygon class="cls-1" points="400.8 135.06 400.8 108.27 397.06 108.27 397.06 119.5 383.53 119.5 383.53 108.27 379.79 108.27 379.79 135.06 383.53 135.06 383.53 122.66 397.06 122.66 397.06 135.06 400.8 135.06"/><rect class="cls-1" x="407.27" y="108.27" width="3.74" height="26.79"/><path class="cls-1" d="M439.37,126V114.94h4.09a7.93,7.93,0,0,1,4.78,1.27,4.58,4.58,0,0,1,1.73,4,5.56,5.56,0,0,1-1.71,4.25,7.11,7.11,0,0,1-5,1.6Zm14.78,12.55-6.09-10.22a8.9,8.9,0,0,0,4.12-3.09,8.66,8.66,0,0,0,1.5-5.17,7.41,7.41,0,0,0-2.67-6.2c-1.79-1.41-4.34-2.11-7.67-2.11h-7.72v26.79h3.75v-9.43h4.44a3.41,3.41,0,0,0,.55,0l5.73,9.48Z" transform="translate(-18.13 -3.51)"/><path class="cls-1" d="M475.71,127.58a9.54,9.54,0,0,1-1.8,6.25,7.58,7.58,0,0,1-10.64,0,9.54,9.54,0,0,1-1.8-6.23v-15.8h-3.74V127.3c0,3.87.92,6.81,2.75,8.8s4.49,3,8,3,6.28-1,8.17-3,2.82-4.92,2.82-8.74V111.78h-3.74Z" transform="translate(-18.13 -3.51)"/><path class="cls-1" d="M489.28,126V114.94h4.09a7.93,7.93,0,0,1,4.78,1.27,4.56,4.56,0,0,1,1.74,4,5.57,5.57,0,0,1-1.72,4.25,7.11,7.11,0,0,1-5,1.6Zm14.78,12.55L498,128.35a8.8,8.8,0,0,0,4.12-3.09,8.66,8.66,0,0,0,1.5-5.17,7.41,7.41,0,0,0-2.67-6.2c-1.78-1.41-4.34-2.11-7.66-2.11h-7.73v26.79h3.75v-9.43h4.44a3.41,3.41,0,0,0,.55,0l5.73,9.48Z" transform="translate(-18.13 -3.51)"/><path class="cls-1" d="M526.17,134.83a12.71,12.71,0,0,1-2.65.78,17.45,17.45,0,0,1-3.13.27,9.92,9.92,0,0,1-3.93-.78,9.73,9.73,0,0,1-5.38-5.58,12,12,0,0,1-.78-4.44,11.71,11.71,0,0,1,.81-4.47,10.08,10.08,0,0,1,2.23-3.35,9.35,9.35,0,0,1,3.31-2.1,11.44,11.44,0,0,1,4.14-.73h4.83l1,3.51h2.1v-6c-.52-.08-1.14-.15-1.85-.22l-2.18-.17-2.11-.14c-.66,0-1.19-.06-1.58-.06a16.36,16.36,0,0,0-6.3,1.13,13.68,13.68,0,0,0-4.56,3,12.5,12.5,0,0,0-2.79,4.42,15.4,15.4,0,0,0-.93,5.35,14.16,14.16,0,0,0,1.05,5.51,13.11,13.11,0,0,0,2.92,4.35,13.45,13.45,0,0,0,4.49,2.87,16.72,16.72,0,0,0,10.76.27,14.56,14.56,0,0,0,4.13-2.13V126h-9.36v3h5.78Z" transform="translate(-18.13 -3.51)"/><rect class="cls-1" x="516.46" y="108.27" width="3.74" height="26.79"/><polygon class="cls-1" points="543.87 135.06 543.87 131.9 530.41 131.9 530.41 122.51 541.72 122.51 541.72 119.39 530.41 119.39 530.41 111.43 543.48 111.43 543.48 108.27 526.67 108.27 526.67 135.06 543.87 135.06"/><line class="cls-5" x1="125.97" x2="125.97" y2="188.7"/></svg>