<?xml version="1.0" encoding="UTF-8" standalone="no"?>
<!-- Created with Inkscape (http://www.inkscape.org/) -->

<svg
   xmlns:dc="http://purl.org/dc/elements/1.1/"
   xmlns:cc="http://creativecommons.org/ns#"
   xmlns:rdf="http://www.w3.org/1999/02/22-rdf-syntax-ns#"
   xmlns:svg="http://www.w3.org/2000/svg"
   xmlns="http://www.w3.org/2000/svg"
   xmlns:sodipodi="http://sodipodi.sourceforge.net/DTD/sodipodi-0.dtd"
   xmlns:inkscape="http://www.inkscape.org/namespaces/inkscape"
   version="1.1"
   id="svg2"
   width="417.16656"
   height="416.98459"
   viewBox="0 0 417.16656 416.98459"
   sodipodi:docname="mesh.svg"
   inkscape:version="0.92.3 (2405546, 2018-03-11)">
  <metadata
     id="metadata8">
    <rdf:RDF>
      <cc:Work
         rdf:about="">
        <dc:format>image/svg+xml</dc:format>
        <dc:type
           rdf:resource="http://purl.org/dc/dcmitype/StillImage" />
        <dc:title></dc:title>
      </cc:Work>
    </rdf:RDF>
  </metadata>
  <defs
     id="defs6" />
  <sodipodi:namedview
     pagecolor="#ffffff"
     bordercolor="#666666"
     borderopacity="1"
     objecttolerance="10"
     gridtolerance="10"
     guidetolerance="10"
     inkscape:pageopacity="0"
     inkscape:pageshadow="2"
     inkscape:window-width="1853"
     inkscape:window-height="1025"
     id="namedview4"
     showgrid="false"
     inkscape:zoom="1.3037281"
     inkscape:cx="208"
     inkscape:cy="208.65727"
     inkscape:window-x="67"
     inkscape:window-y="27"
     inkscape:window-maximized="1"
     inkscape:current-layer="svg2" />
  <path
     style="fill:#000000"
     d="m 229,415.37691 c -9.07195,-1.67303 -122.70808,-20.62757 -130,-21.68404 -4.33358,-0.62786 -1.85398,2.08457 -55.961644,-61.21673 L 0,282.12497 v -71.89595 -71.89595 l 3.319516,-3.75288 C 5.145249,132.51611 26.135952,107.42731 49.965522,78.827311 73.79509,50.227311 93.56381,26.528374 93.89601,26.163008 94.2282,25.797641 124.875,20.070503 162,13.436034 199.125,6.801566 231.70605,0.95829197 234.40234,0.45098197 c 4.22973,-0.795829 5.41644,-0.627486 8.64937,1.22697403 2.06086,1.182145 30.72261,17.35332 63.69278,35.935944 l 59.94576,33.786591 25.23816,68.272559 25.23815,68.27257 -4.43421,11.44084 c -2.43881,6.29247 -13.80234,36.91202 -25.25228,68.04345 l -20.81807,56.6026 -63.44559,36.3974 c -34.89508,20.01857 -63.73153,36.46525 -64.081,36.54818 -0.34948,0.0829 -4.91041,-0.6376 -10.13541,-1.60118 z m -39.62899,-40.2996 c -1.9676,-3.29239 -52.82724,-54.68761 -53.45495,-54.01787 -0.39582,0.42233 -3.40983,10.44287 -6.69781,22.26787 -5.17666,18.61756 -5.75961,21.55373 -4.34819,21.90078 2.18366,0.53693 62.27261,10.8752 63.93896,11.00066 0.78847,0.0594 1.01195,-0.39852 0.56199,-1.15144 z m 64.98047,-50.46685 C 266.25817,299.19119 276,278.23265 276,278.03593 c 0,-0.19673 -21.4875,3.55352 -47.75,8.33388 -26.2625,4.78036 -52.15617,9.4829 -57.54148,10.45009 -5.38532,0.96718 -9.66032,2.09007 -9.5,2.49529 0.7921,2.00218 70.3077,72.88231 70.85711,72.24797 0.35053,-0.40472 10.37917,-21.53343 22.28585,-46.9527 z m 47.99526,19.56376 c 15.48429,-8.8842 28.2881,-16.25653 28.4529,-16.38297 0.1648,-0.12643 -5.2352,-8.80869 -12,-19.2939 -6.7648,-10.48521 -12.56658,-18.75037 -12.89285,-18.36703 -0.32627,0.38334 -7.71728,15.99699 -16.42447,34.69699 -8.7072,18.7 -16.00431,34.3375 -16.21581,34.75 -0.2115,0.4125 -0.0895,0.75 0.27121,0.75 0.36066,0 13.32472,-7.26889 28.80902,-16.15309 z M 102.09318,322.0449 c 2.84644,-10.33032 4.89695,-19.06079 4.55671,-19.40104 -0.6674,-0.66739 -50.87421,-6.42557 -51.40427,-5.8955 -0.1758,0.1758 8.80492,10.97377 19.95715,23.99549 16.19171,18.90599 20.42166,23.31399 20.99593,21.87966 0.39553,-0.98791 3.04805,-10.24828 5.89448,-20.57861 z m 258.40299,-53.54462 c 5.3257,-14.47987 9.53026,-26.46962 9.34346,-26.6439 -0.18679,-0.17427 -9.86121,4.47289 -21.49869,10.32704 l -21.15906,10.64389 11.14844,17.19795 c 6.53827,10.08615 11.42432,16.70256 11.81559,16 0.36694,-0.65887 5.02455,-13.04511 10.35026,-27.52498 z M 91.25026,267.07731 c -0.54704,-0.6875 -13.72142,-17.675 -29.2764,-37.75 -15.554974,-20.075 -28.662491,-36.9275 -29.127815,-37.45 C 32.38072,191.35481 32,206.90558 32,226.43458 v 35.50726 l 27.75,3.0623 c 33.86522,3.73712 32.76674,3.66482 31.50026,2.07317 z m 123.70993,-10.79486 c 30.50311,-5.5232 55.57299,-10.15499 55.71086,-10.29286 0.13787,-0.13787 -16.35984,-16.85663 -36.66157,-37.1528 l -36.91224,-36.90213 -1.923,4.44632 c -1.05764,2.44548 -10.34581,23.34633 -20.64037,46.44633 -10.29456,23.1 -18.95801,42.58536 -19.25211,43.3008 -0.3827,0.93098 0.14091,1.14382 1.84176,0.74866 1.30706,-0.30367 27.33357,-5.07112 57.83667,-10.59432 z m -48.2521,-95.58038 c -0.21498,-0.21498 -26.79321,-0.27475 -59.06274,-0.13282 l -58.671864,0.25806 37.647954,48.32416 37.64796,48.32417 21.41479,-48.19135 c 11.77813,-26.50523 21.23889,-48.36724 21.0239,-48.58222 z m 146.27389,6.29899 c 8.90936,-31.25444 15.99088,-57.03422 15.7367,-57.2884 -0.25417,-0.25418 -24.03236,8.56106 -52.84041,19.58941 -28.80805,11.02835 -53.03066,20.291 -53.82802,20.58366 -0.96966,0.3559 10.94253,12.92769 35.97251,37.96434 20.58223,20.58773 37.72332,37.10486 38.09131,36.70474 0.36798,-0.40013 7.95854,-26.29931 16.86791,-57.55375 z m 66.76644,32.02812 c -6.34837,-17.80108 -23.26127,-63.40405 -23.71671,-63.94832 -0.53091,-0.63448 -26.15498,87.35589 -26.06377,89.5003 0.0176,0.41461 11.32189,-4.89455 25.12058,-11.79814 15.36971,-7.68958 24.92248,-13.01756 24.6599,-13.75384 z M 154.4615,125.07731 c -15.70064,-18.78563 -50.96948,-59.734889 -51.40323,-59.682269 -0.63292,0.0768 -51.377247,60.796349 -51.891603,62.092369 -0.183334,0.46195 23.594173,0.8399 52.838893,0.8399 h 53.17223 z M 268.20189,98.081311 c 26.23604,-10.03762 47.38604,-18.54222 47,-18.89912 C 312.42846,76.618161 245.72474,40.223872 245.09716,40.932283 244.41176,41.705972 219,114.6896 219,115.8844 c 0,0.2436 0.3375,0.44386 0.75,0.44502 0.4125,0.001 22.21585,-8.21049 48.45189,-18.248109 z m -68.82661,-23.67105 c 6.94317,-20.02938 12.41278,-36.628227 12.15468,-36.886325 -0.79364,-0.793638 -77.55385,13.231709 -77.25893,14.11647 0.68014,2.040425 51.29667,60.482804 51.85464,59.871914 0.34412,-0.37676 6.30644,-17.072679 13.24961,-37.102059 z"
     id="path817"
     inkscape:connector-curvature="0" />
</svg>
