<?xml version="1.0" encoding="utf-8"?>
<!-- Generator: Adobe Illustrator 16.0.3, SVG Export Plug-In . SVG Version: 6.00 Build 0)  -->
<!DOCTYPE svg PUBLIC "-//W3C//DTD SVG 1.1//EN" "http://www.w3.org/Graphics/SVG/1.1/DTD/svg11.dtd">
<svg version="1.1" id="Ebene_1" xmlns="http://www.w3.org/2000/svg" xmlns:xlink="http://www.w3.org/1999/xlink" x="0px" y="0px"
	 width="1360.629px" height="340.158px" viewBox="0 0 1360.629 340.158" enable-background="new 0 0 1360.629 340.158"
	 xml:space="preserve">
<g id="novastor_1_">
	<g id="bg">
		<rect fill="#FFFFFF" width="1360.629" height="340.157"/>
	</g>
	<g id="novastor">
		<g>
			<g>
				<path d="M739.622,273.245v-17.959h12.043c0,0,13.254-0.1,20.184-0.1c4.043,0,9.242-0.35,15.598-1.047
					c6.354-0.699,11.611-1.975,15.77-3.834c5.779-2.559,10.055-5.695,12.826-9.419c2.771-3.719,4.85-10.37,4.85-15.602
					c0-4.765-1.213-8.626-3.637-11.595c-2.428-2.963-5.781-5.84-10.053-8.627c-4.621-3.141-10.947-6.479-18.977-10.026
					c-8.029-3.546-14.76-6.944-20.188-10.199c-7.738-4.767-13.66-10.403-17.76-16.913c-4.104-6.51-6.154-14.064-6.154-22.666
					c0-8.602,2.344-16.332,7.033-23.188c4.684-6.858,10.965-12.38,18.834-16.565c6.826-3.719,14.375-6.188,22.648-7.408
					c8.275-1.222,16.289-1.832,24.045-1.832h17.439h7.609l0.002,17.956h-7.344c0,0-12.961-0.004-20.486-0.004
					c-5.332,0-10.396,0.465-15.199,1.395c-4.809,0.932-8.891,2.269-12.246,4.011c-4.98,2.559-8.539,5.638-10.682,9.241
					c-2.146,3.602-4.816,9.161-4.795,15.001c0.016,4.646,1.506,8.66,4.516,12.028c3.012,3.376,6.543,6.22,10.596,8.544
					c4.746,2.788,11.232,6.104,19.451,9.939c8.221,3.835,14.188,6.915,17.889,9.241c8.102,5.115,14.27,10.813,18.496,17.086
					c4.227,6.279,6.34,13.716,6.34,22.316c0,8.604-2.088,16.274-6.248,23.017c-4.164,6.741-9.604,12.203-16.314,16.387
					c-7.061,4.422-15.422,7.763-25.084,10.026c-1.473,0.349-3.246,0.605-5.188,0.795"/>
				<path d="M892.411,113.961h-28.691V96.266h30.229V55.553h24.762v40.725l61.145-0.012v17.695h-61.145v23.897v26.461v17.702v24.912
					c0,14.895,1.5,31.648,9.473,38.235c7.971,6.586,19.891,10.368,38.859,10.368h7.344h5.469v17.695h-8.996l-8.822,0.013
					c-23.342,0-40.254-4.384-52.203-14.181c-11.955-9.799-17.418-27.39-17.418-47.666"/>
				<g>
					<path fill="none" stroke="#000000" stroke-width="3.1122" stroke-miterlimit="10" d="M1056.79,136.78
						c-8.154,32.279,7.645,118.68,38.766,118.68"/>
					<path fill="none" stroke="#000000" stroke-width="4.6683" stroke-miterlimit="10" d="M1056.292,117.896
						c0,27.152,0,56.347,39.271,56.347c39.268,0,39.268-29.194,39.268-56.347"/>
					<path fill="none" stroke="#000000" stroke-width="3.1122" stroke-miterlimit="10" d="M1134.333,136.78
						c8.146,31.423-7.664,118.68-38.777,118.68"/>
					
						<line fill="none" stroke="#000000" stroke-width="1.5561" stroke-miterlimit="10" x1="1095.563" y1="174.242" x2="1095.555" y2="255.46"/>
					<path fill="none" stroke="#000000" stroke-width="1.5561" stroke-miterlimit="10" d="M1130.84,203.226
						c-2.35,6.125-17.127,12.256-35.279,12.256"/>
					<path fill="none" stroke="#000000" stroke-width="1.5561" stroke-miterlimit="10" d="M1060.188,203.226
						c2.336,6.125,17.211,12.256,35.375,12.256"/>
					<path d="M1041.075,254.22c0.563,0.445,1.121,0.898,1.691,1.331h-40.928v17.697h93.693c11.832,0,23.678-2.417,34.563-7.095
						l-20.467,35.666l15.232,8.851l46.859-81.669l0,0l0,0c5.906-10.309,9.752-21.823,11.164-33.645l20.465,35.668l15.234-8.85
						l-46.863-81.666l0,0c-5.924-10.296-13.906-19.409-23.373-26.549h40.93V96.266h-93.721l0,0c-11.826,0-23.66,2.422-34.539,7.091
						l20.465-35.662l-15.232-8.85l-46.857,81.665l0,0c-5.904,10.313-9.748,21.822-11.164,33.642l-20.463-35.663l-15.234,8.849
						l46.855,81.656C1024.969,238.675,1032.327,247.293,1041.075,254.22C1041.639,254.665,1040.739,253.951,1041.075,254.22z
						 M1037.971,225.399c-4.645-6.672-8.156-14.142-10.285-22.006c-4.566-16.855-2.756-35.375,5.264-50.906
						c8.01-15.526,21.471-27.799,37.781-33.967c16.973-6.478,35.936-5.877,52.604,1.202c16.043,6.81,28.926,19.836,36.227,35.655
						c7.359,15.946,8.355,34.842,2.828,51.512c-5.484,16.533-16.916,30.735-32.002,39.362c-15.016,8.604-32.98,11.376-49.867,7.66
						C1063.391,250.126,1048.047,239.843,1037.971,225.399C1037.567,224.819,1038.278,225.84,1037.971,225.399z"/>
				</g>
				<path d="M1262.651,127.798l-6.227,10.901v-12.428v-29.74h-26.846v176.755h26.844c0.139,0.293,0.002-30.771,0.002-30.771v-28.742
					v-19.123v-20.602l21.508-37.515c13.047-22.528,51.215-22.551,51.215-22.551V96.234
					C1329.147,96.234,1280.637,96.229,1262.651,127.798z"/>
			</g>
			<g>
				<path d="M521.382,29.698l-89.016,154.205l-70.659-108.84C336.668,31.68,281.21,16.82,237.84,41.862
					c-43.369,25.047-58.23,80.512-33.188,123.891c25.037,43.38,80.494,58.24,123.864,33.2c26.82-15.491,42.723-42.617,45.04-71.319
					l43.102,83.48h31.418L552.798,29.698H521.382z M321.715,187.167c-36.864,21.291-84.002,8.658-105.286-28.214
					c-21.282-36.871-8.653-84.02,28.212-105.309c36.864-21.287,84.003-8.654,105.287,28.22l3.185,6.164
					C369.733,123.837,356.557,167.049,321.715,187.167z"/>
				<path d="M110.943,29.699h-5.76h-5.76c-15.818,0-29.444,5.371-40.268,13.667V29.699H31.482v181.418h27.674V93.966h0.107
					c2.146-20.777,21.881-37.053,45.92-37.053l0,0l0,0c24.039,0,43.879,16.275,46.025,37.053v117.151h27.676V93.966
					C177.348,64.409,151.211,29.699,110.943,29.699z"/>
				<path fill="#CB1416" d="M434.151,205.446L356.328,78.394c-0.002-0.002-0.002-0.005-0.004-0.007
					c-23.322-40.396-74.977-54.237-115.373-30.914c-40.395,23.321-54.235,74.979-30.913,115.375
					c23.323,40.396,74.977,54.236,115.372,30.913c35.629-20.568,50.581-63.174,37.619-100.66l63.55,112.346L434.151,205.446
					L434.151,205.446z M324.707,192.542c-39.723,22.934-90.516,9.323-113.449-30.399c-22.934-39.724-9.324-90.518,30.398-113.451
					c39.723-22.933,90.515-9.323,113.45,30.4h-0.002l0.014,0.022C378.033,118.835,364.422,169.612,324.707,192.542z"/>
				<g>
					<path d="M233.287,78.671c-7.855,9.412-13.091,21.077-14.63,33.88c0.626,2.307,1.183,4.196,2.146,7.278
						c2.582-0.026,4.189-0.033,7.852-0.051c1.833-4.502,2.827-6.845,4.964-11.578c-1.991-4.448-2.926-6.585-4.673-10.638
						c-3.287,0.528-4.964,0.853-7.127,1.418c0.146-0.421,0.282-0.838,0.436-1.258c1.979-0.521,3.644-0.854,6.726-1.364
						c1.982-4.638,3.481-6.781,6.181-11.146c-1.023-2.517-1.653-4.111-2.375-5.93C232.951,79.077,233.12,78.871,233.287,78.671z"/>
					<path d="M297.931,72.181c-2.377,3.635-3.658,5.613-6.342,9.796c2.93,4.253,4.458,6.463,7.438,11.313
						c5.691,0.154,8.534,0.257,13.823,0.564c2.394-4.518,3.499-6.637,5.451-10.534c-2.927-4.474-4.402-6.671-7.332-10.729
						C306.098,71.952,303.25,72.287,297.931,72.181z"/>
					<path d="M330.785,85.623c-4.239-0.709-6.554-1.03-11.402-1.604c-0.071,0.149-0.104,0.219-0.179,0.365
						c-1.872,3.781-2.926,5.827-5.219,10.186c2.862,4.839,4.219,7.342,6.791,12.281c4.928,0.228,7.258,0.352,11.463,0.644
						c2.022-4.456,2.971-6.593,4.753-10.654C334.968,92.187,333.508,90.007,330.785,85.623z"/>
					<path d="M235.956,85.623c-2.723,4.384-4.185,6.563-6.21,11.217c1.782,4.062,2.732,6.198,4.757,10.654
						c4.205-0.292,6.534-0.416,11.463-0.644c2.571-4.939,3.926-7.442,6.79-12.281c-2.379-4.525-3.471-6.646-5.398-10.551
						C242.508,84.593,240.198,84.914,235.956,85.623z"/>
					<path d="M320.803,132.614c4.924-0.197,7.255-0.317,11.456-0.588c2.173-4.758,3.182-7.104,5.052-11.624
						c-1.87-4.521-2.879-6.871-5.052-11.626c-4.201-0.266-6.532-0.383-11.456-0.584c-0.086,0.179-0.128,0.261-0.218,0.433
						c-2.282,4.585-3.471,6.958-5.966,11.777c2.495,4.818,3.686,7.193,5.968,11.769
						C320.675,132.353,320.716,132.438,320.803,132.614z"/>
					<path d="M255.769,72.591c-2.93,4.054-4.405,6.255-7.33,10.729c1.953,3.897,3.059,6.017,5.449,10.534
						c5.29-0.308,8.133-0.41,13.827-0.564c2.979-4.85,4.506-7.06,7.439-11.315c-2.688-4.18-3.97-6.158-6.347-9.793
						C263.485,72.287,260.638,71.952,255.769,72.591z"/>
					<path d="M277.016,63.305c-2.701,2.958-4.136,4.647-7.062,8.349c2.393,3.6,3.683,5.568,6.382,9.722
						c5.61-0.065,8.456-0.065,14.066,0c2.7-4.153,3.985-6.122,6.381-9.722c-2.925-3.701-4.357-5.391-7.061-8.349
						C284.648,63.275,282.092,63.275,277.016,63.305z"/>
					<path d="M276.307,82.55c-2.924,4.271-4.441,6.51-7.421,11.373c2.74,4.727,4.177,7.212,7.091,12.256
						c5.896-0.035,8.89-0.035,14.786,0c2.917-5.044,4.354-7.529,7.093-12.256c-2.979-4.863-4.503-7.102-7.424-11.373
						C284.796,82.481,281.94,82.481,276.307,82.55z"/>
					<path d="M275.967,107.586c-2.978,5.096-4.476,7.69-7.399,12.816c2.923,5.13,4.421,7.719,7.399,12.818
						c5.904,0.033,8.901,0.033,14.801,0c2.98-5.1,4.48-7.688,7.403-12.818c-2.923-5.126-4.423-7.721-7.403-12.816
						C284.868,107.552,281.871,107.552,275.967,107.586z"/>
					<path d="M312.919,145.652c0.213-0.363,0.322-0.546,0.537-0.912c2.645-4.505,3.904-6.822,6.305-11.413
						c-2.378-4.742-3.623-7.215-6.227-12.227c-5.225,0.004-8.324,0.006-14.149,0.016c-2.916,5.12-4.414,7.715-7.391,12.797
						c1.069,1.86,1.601,2.78,2.65,4.601c1.805,3.133,2.692,4.675,4.417,7.669C304.764,146.038,307.633,145.951,312.919,145.652z"/>
					<path d="M313.533,119.7c2.604-5.013,3.849-7.483,6.227-12.225c-2.595-4.958-3.961-7.46-6.841-12.317
						c-5.286-0.297-8.155-0.389-13.859-0.538c-2.725,4.736-4.159,7.229-7.067,12.273c2.978,5.083,4.477,7.673,7.391,12.793
						C305.209,119.692,308.31,119.692,313.533,119.7z"/>
					<path d="M253.821,95.158c-2.881,4.857-4.249,7.364-6.842,12.32c2.379,4.741,3.621,7.212,6.225,12.226
						c5.225-0.012,8.324-0.012,14.15-0.018c2.914-5.12,4.412-7.71,7.392-12.793c-2.909-5.045-4.342-7.537-7.069-12.273
						C261.974,94.77,259.106,94.861,253.821,95.158z"/>
					<path d="M290.432,158.262c1.813-2.651,2.734-4.021,4.584-6.854c1.139-1.734,1.703-2.672,2.836-4.523
						c-2.74-4.728-4.178-7.217-7.092-12.258c-5.896,0.04-8.89,0.04-14.784,0c-1.88,3.251-2.812,4.855-4.625,7.995
						c-1,1.726-1.494,2.581-2.465,4.263c2.979,4.867,4.5,7.106,7.421,11.377C281.94,158.325,284.797,158.325,290.432,158.262z"/>
					<path d="M248.484,136.171c2.05,3.82,3.118,5.736,5.337,9.481c5.285,0.299,8.152,0.386,13.857,0.53
						c1.723-2.994,2.611-4.536,4.417-7.669c1.049-1.82,1.58-2.74,2.651-4.601c-2.979-5.082-4.477-7.677-7.391-12.797
						c-5.827-0.01-8.925-0.012-14.15-0.016c-2.604,5.012-3.846,7.484-6.225,12.227C247.575,134.465,247.875,135.033,248.484,136.171
						z"/>
					<path d="M289.723,177.501c1.957-2.146,2.98-3.325,5.063-5.861c0.792-0.97,1.193-1.463,2-2.481
						c-2.396-3.605-3.686-5.571-6.383-9.728c-5.611,0.063-8.456,0.063-14.066,0c-1.638,2.522-2.435,3.741-3.967,6.072
						c-0.989,1.509-1.475,2.238-2.415,3.653c2.925,3.697,4.36,5.387,7.062,8.346C282.092,177.533,284.646,177.533,289.723,177.501z"
						/>
					<path d="M236.126,84.508c4.237-0.726,6.541-1.055,11.37-1.649c2.92-4.443,4.398-6.627,7.329-10.646
						c-1.896-3.373-2.736-4.877-4.294-7.641c-0.355,0.054-0.687,0.102-1.013,0.146c0.418-0.253,0.826-0.518,1.253-0.764
						c0.55-0.317,1.111-0.607,1.667-0.907c-0.275,0.305-0.56,0.625-0.864,0.968c1.566,2.718,2.416,4.206,4.333,7.552
						c4.847-0.642,7.687-0.294,12.981-0.396c2.937-3.671,4.378-5.345,7.098-8.262c-2.336-2.882-3.414-4.138-5.343-6.187
						c-0.431,0.003-0.831,0.002-1.227,0.002c-14.236,3.101-26.729,10.853-35.819,21.586
						C234.378,80.24,235.033,81.869,236.126,84.508z"/>
					<path d="M218.479,126.645c0.501-1.873,1.006-3.626,1.794-6.242c-0.783-2.594-1.288-4.341-1.784-6.215
						c0.049-0.513,0.096-1.033,0.156-1.545c-0.303,2.546-0.476,5.138-0.476,7.767c0,2.47,0.15,4.903,0.418,7.3
						C218.55,127.354,218.514,126.997,218.479,126.645z"/>
					<path d="M269.439,56.718c0.633-0.139,1.266-0.264,1.898-0.382C270.703,56.453,270.069,56.58,269.439,56.718z"/>
					<path d="M330.613,156.302c-4.237,0.719-6.541,1.054-11.372,1.646c-2.919,4.448-4.396,6.623-7.327,10.649
						c1.896,3.372,2.734,4.877,4.291,7.637c0.359-0.053,0.696-0.104,1.023-0.147c-0.424,0.258-0.838,0.527-1.271,0.774
						c-0.549,0.317-1.108,0.606-1.663,0.906c0.276-0.306,0.563-0.629,0.869-0.975c-0.6-1.043-0.908-1.578-1.553-2.705
						c-1.043-1.813-1.598-2.779-2.779-4.843c-4.844,0.644-7.685,0.294-12.979,0.392c-2.937,3.674-4.38,5.346-7.101,8.266
						c1.717,2.115,2.527,3.076,4.027,4.755c0.541,0.603,0.803,0.888,1.314,1.431c0.441-0.002,0.847-0.002,1.25,0.001
						c14.227-3.108,26.712-10.86,35.795-21.593C332.361,160.564,331.706,158.938,330.613,156.302z"/>
					<path d="M295.064,184.372c-1.946-1.988-3.036-3.225-5.39-6.063c-5.04,0.031-7.574,0.031-12.612,0
						c-1.296,1.563-1.913,2.282-3.089,3.596c-0.961,1.074-1.424,1.572-2.301,2.468c0.102,0.076,0.181,0.133,0.28,0.204
						c-0.846-0.149-1.691-0.309-2.528-0.49c0.394-0.002,0.79-0.002,1.219,0c1.929-2.048,3.007-3.303,5.343-6.186
						c-1.519-1.625-2.3-2.506-3.896-4.375c-1.262-1.481-1.903-2.267-3.203-3.891c-5.293-0.098-8.133,0.252-12.98-0.392
						c-1.917,3.349-2.767,4.831-4.333,7.548c0.343,0.386,0.643,0.723,0.921,1.027c-1.037-0.555-2.062-1.135-3.071-1.75
						c0.352,0.054,0.719,0.105,1.105,0.164c1.27-2.248,1.945-3.45,3.431-6.094c0.34-0.602,0.511-0.917,0.865-1.544
						c-2.932-4.026-4.409-6.201-7.33-10.646c-4.829-0.589-7.135-0.923-11.371-1.647c-1.091,2.637-1.749,4.263-2.529,6.19
						c-0.27-0.318-0.545-0.634-0.811-0.96c0.722-1.825,1.352-3.418,2.376-5.941c-2.699-4.365-4.198-6.509-6.181-11.146
						c-3.081-0.511-4.747-0.837-6.724-1.364c-0.155-0.415-0.308-0.833-0.454-1.258c2.171,0.571,3.849,0.893,7.144,1.418
						c1.108-2.563,1.684-3.886,2.887-6.605c0.699-1.584,1.055-2.396,1.786-4.03c-2.139-4.733-3.131-7.073-4.964-11.577
						c-3.663-0.014-5.27-0.021-7.852-0.045c-0.963,3.083-1.523,4.973-2.147,7.271c3.877,32.304,31.361,57.352,64.71,57.352
						c3.894,0,7.697-0.361,11.401-1.017C294.867,184.517,294.956,184.454,295.064,184.372z"/>
					<path d="M271.673,56.438c0.974,0.995,1.489,1.549,2.569,2.762c1.079,1.219,1.643,1.88,2.819,3.299
						c5.038-0.028,7.577-0.028,12.617,0c2.351-2.84,3.441-4.072,5.387-6.061c-0.098-0.073-0.171-0.125-0.264-0.196
						c0.823,0.15,1.648,0.303,2.465,0.481c-0.38,0-0.759,0.001-1.173-0.002c-1.929,2.049-3.007,3.305-5.34,6.187
						c2.719,2.917,4.161,4.591,7.1,8.262c5.295,0.103,8.13-0.245,12.978,0.396c1.917-3.346,2.765-4.834,4.334-7.552
						c-0.315-0.354-0.61-0.685-0.893-0.999c1.013,0.545,2.016,1.113,3.002,1.712c-0.342-0.05-0.694-0.1-1.068-0.155
						c-0.057,0.102-0.083,0.158-0.142,0.258c-1.508,2.677-2.324,4.133-4.152,7.383c2.933,4.02,4.411,6.203,7.33,10.646
						c4.83,0.595,7.135,0.924,11.372,1.649c1.089-2.632,1.745-4.258,2.521-6.182c0.271,0.32,0.548,0.635,0.815,0.964
						c-0.722,1.815-1.352,3.408-2.374,5.922c2.7,4.362,4.202,6.509,6.185,11.148c3.074,0.508,4.737,0.838,6.707,1.355
						c0.158,0.424,0.311,0.84,0.457,1.265c-2.166-0.564-3.84-0.889-7.131-1.413c-1.747,4.048-2.68,6.182-4.673,10.633
						c2.139,4.733,3.129,7.08,4.964,11.578c3.664,0.018,5.271,0.024,7.855,0.051c0.959-3.073,1.517-4.965,2.139-7.259
						c-3.872-32.307-31.357-57.36-64.712-57.36c-3.894,0-7.698,0.362-11.403,1.016C271.863,56.297,271.778,56.357,271.673,56.438z"
						/>
					<path d="M297.26,184.104c-0.611,0.135-1.224,0.254-1.837,0.369C296.039,184.358,296.651,184.237,297.26,184.104z"/>
					<path d="M330.781,155.189c2.103-3.377,3.406-4.958,5.028-8.552c0.481-1.066,0.719-1.6,1.183-2.665
						c-1.784-4.063-2.731-6.201-4.753-10.661c-4.207,0.295-6.538,0.422-11.464,0.645c-2.574,4.941-3.928,7.447-6.791,12.283
						c2.38,4.521,3.473,6.645,5.398,10.551C324.23,156.219,326.543,155.894,330.781,155.189z"/>
					<path d="M268.807,168.628c2.376-3.637,3.659-5.614,6.345-9.794c-2.931-4.258-4.459-6.461-7.437-11.312
						c-5.694-0.156-8.537-0.26-13.827-0.57c-2.391,4.523-3.496,6.642-5.449,10.539c2.925,4.471,4.4,6.667,7.33,10.726
						C260.637,168.858,263.485,168.524,268.807,168.628z"/>
					<path d="M231.849,148.336c1.592,2.76,2.419,4.139,4.107,6.854c4.239,0.704,6.551,1.029,11.4,1.601
						c1.485-3.008,2.243-4.58,4.047-7.985c0.537-1.013,0.808-1.528,1.353-2.565c-2.863-4.836-4.219-7.342-6.79-12.283
						c-4.929-0.223-7.26-0.35-11.466-0.645c-2.023,4.46-2.973,6.599-4.754,10.661C230.517,145.738,230.874,146.649,231.849,148.336z
						"/>
					<path d="M310.968,168.217c2.929-4.059,4.408-6.255,7.335-10.726c-1.955-3.897-3.063-6.016-5.454-10.539
						c-5.289,0.311-8.132,0.414-13.823,0.57c-2.98,4.851-4.508,7.054-7.438,11.312c2.684,4.18,3.963,6.157,6.342,9.794
						C303.25,168.524,306.098,168.853,310.968,168.217z"/>
					<path d="M245.936,132.614c2.362-4.738,3.592-7.209,6.184-12.212c-2.592-5.003-3.822-7.469-6.184-12.21
						c-4.924,0.201-7.252,0.315-11.457,0.584c-2.173,4.755-3.179,7.105-5.05,11.626c1.871,4.521,2.877,6.866,5.053,11.624
						C238.683,132.292,241.014,132.417,245.936,132.614z"/>
					<path d="M348.563,120.409c0-2.484-0.153-4.927-0.423-7.344c0.038,0.378,0.078,0.754,0.111,1.121
						c-0.497,1.872-1,3.618-1.786,6.216c0.781,2.589,1.285,4.332,1.779,6.183c-0.05,0.532-0.096,1.063-0.158,1.585
						C348.389,125.627,348.563,123.036,348.563,120.409z"/>
					<path d="M333.414,162.179c7.877-9.428,13.129-21.117,14.665-33.948c-0.624-2.292-1.181-4.171-2.141-7.247
						c-2.585,0.023-4.193,0.031-7.855,0.045c-1.835,4.504-2.828,6.844-4.965,11.577c1.993,4.446,2.926,6.585,4.673,10.64
						c3.283-0.524,4.96-0.851,7.121-1.416c-0.146,0.421-0.28,0.84-0.436,1.255c-1.975,0.527-3.639,0.856-6.717,1.364
						c-1.982,4.639-3.48,6.783-6.183,11.148c1.021,2.52,1.654,4.11,2.375,5.929C333.773,161.746,333.594,161.962,333.414,162.179z"
						/>
				</g>
			</g>
			<path fill="#CB1416" d="M717.635,233.548V137.47c0-22.987-1.875-40.548-6.627-52.679c-4.746-12.125-11.785-22.315-21.115-30.56
				c-9.988-8.718-22.557-15.024-37.706-18.908c-15.138-3.882-32.279-5.825-51.6-5.825c-12.604,0-22.644-0.021-29.939-0.014
				c-1.714,0-3.109,0.003-4.248,0.004l-14.282,24.739c22.092,0,0,0,22.092,0c5.171,0,15.59,0,22.961,0
				c11.785,0,18.417,0.418,27.256,1.609c8.843,1.186,16.938,3.421,23.936,6.72c10.796,5.088,16.979,10.573,22.387,18.501
				c5.403,7.929,9.341,24.368,10.33,36.734c-22.76,1.744-43.788,3.784-61.548,7.192c-17.766,3.408-31.968,7.253-42.605,11.534
				c-17.03,6.821-30.331,15.734-39.913,26.754c-9.577,11.022-14.36,24.06-14.36,39.119c0,14.273,4.053,26.483,12.147,36.625
				c8.111,10.147,18.71,18.156,31.809,24.019c9.825,4.442,21.311,10.237,35.121,10.229c40.813-0.019,27.39-0.019,40.813-0.019
				h75.095v-39.696H717.635z M681.077,249.047h-14.984l-12.8-0.539c-10.801,0-21.077-0.095-30.819-1.288
				c-9.741-1.187-18.622-3.123-26.641-5.824c-10.483-3.487-18.747-8.52-24.808-15.101c-6.06-6.579-9.088-15.257-9.088-26.039
				c0-9.83,3.563-18.073,10.682-24.733c7.122-6.663,15.27-11.655,24.437-14.983c12.282-4.597,27.427-8.127,45.438-10.582
				c18.008-2.456,31.38-3.309,38.585-3.623l-0.004,28.539c0,8.244,0,8.244,0,8.244v50.017L681.077,249.047z"/>
		</g>
	</g>
</g>
</svg>
