<?xml version="1.0" encoding="UTF-8" standalone="no"?>
<!DOCTYPE svg PUBLIC "-//W3C//DTD SVG 1.1//EN" "http://www.w3.org/Graphics/SVG/1.1/DTD/svg11.dtd">
<svg width="100%" height="100%" viewBox="0 0 246 95" version="1.1" xmlns="http://www.w3.org/2000/svg" xmlns:xlink="http://www.w3.org/1999/xlink" xml:space="preserve" xmlns:serif="http://www.serif.com/" style="fill-rule:evenodd;clip-rule:evenodd;stroke-linejoin:round;stroke-miterlimit:2;">
    <g>
        <path d="M93.6,41.7L95.3,42.9C90.2,49.8 86.5,50.1 80.9,50.1C78.2,50.1 77.3,51.4 76.7,52.8C76.1,54.3 75.1,55.7 74.5,56.6L74.2,57.1C73.4,58.3 72.3,58.8 71.3,58.4C70.6,58.1 69.8,57.3 69.8,55.3C69.8,54.8 69.9,54.2 70,53.6C69.6,53.7 69.3,53.8 69,53.9C67.7,54.4 66.3,54.9 65.6,53.8C64.5,52.1 63.6,51.6 59,52.1C56.6,52.4 54.9,51.8 53.6,51.4C53.1,51.3 52.5,51.1 52.3,51.1C51.8,51.1 50.8,52.4 50.4,53.6C49.7,55.6 48.4,55.6 48,55.6C47.4,55.6 46,55 45.7,51.8C45.7,51.4 45.6,51 44.5,50.5C43.6,50 41.8,50.1 40.6,50.3C38.6,50.7 36.8,50 35.7,48.4C34.4,46.6 34.3,44.1 35.3,42.4C36.1,41.1 37.5,40.3 39.1,40.3C40.9,40.3 42.6,41.5 43.7,43.4C43.8,43.6 43.9,43.7 43.9,43.7L44.2,43.6C44.8,43.4 46.1,43.1 47.2,44.7C47.7,45.1 49.8,45.9 50.4,45.8C51.8,44.3 53.7,42.8 55.1,43C55.6,43.1 56.1,43.4 56.3,43.8C57.1,45.1 58.5,45.9 60.8,46.1C62.4,46.2 63.3,45.7 63.4,44.5C63.4,44.1 63.3,43.9 63.1,43.6C62.7,43.1 61.9,42.7 60.9,42.8L60.1,42.9C59,43.1 57.8,43.3 57.1,42.5C56.9,42.3 56.5,41.7 56.8,40.8C57.5,38.7 59.4,37.9 61,37.5C60.3,36.9 59.7,36.3 59.1,35.6C58.9,36.1 58.5,36.5 58,36.8C56.4,37.8 54.4,37.7 53.1,36.6C52.4,36 52,35.1 52,34.2C52,33.8 52.1,33.3 52.3,32.8C52.8,31.6 53.9,30.7 55.2,30.4C54.4,29.7 53.5,29.5 53,29.5C52,29.4 50.9,29.7 50.3,30.3C48.6,31.9 48.6,33.7 48.9,35C49.4,37.1 50.9,39.7 53.1,39.9L53.7,39.9C54.4,39.8 54.9,40.3 55,40.9C55.1,41.6 54.6,42.1 54,42.2L53.8,42.2C50.6,42.5 49,42.6 46.2,40.7C42.5,38.2 39.5,37.6 36.2,38.7C33.5,39.6 31.1,43.5 31.7,47.8C32.1,50.6 32.8,53.2 34.8,54.6C36,55.4 37.2,55.7 38.5,55.5C42.1,54.8 44.8,56.1 46.4,56.9C48,57.7 49,58 51.8,56.7L53.1,56C56.1,54.6 58.4,53.4 63.3,54.8C67.5,56 68.5,57.9 68.9,59.8C69.2,61.1 68.9,62.4 68,63.2C67.3,63.9 66.3,64.2 65.4,64C65.1,64 64.3,63.8 64.1,64.3C64,64.6 64,65 64.2,65.2C65.1,65.7 67.7,67.2 67.9,69.5C68,70.9 67.2,72.3 65.6,73.5C63.3,75.3 60.9,75.6 59.3,74.3C57.8,73.1 57.4,70.8 58.3,68.6C58.6,67.9 58.6,67.5 58.5,67.4C58.5,67.4 58.2,67.2 57.7,67.3C57,67.4 56.1,67.8 55.7,68.7C55.1,70 56,72.1 56.8,74.2C57.7,76.4 58.5,78.6 58.2,80.6C57.9,82 56.8,83.1 55.1,83.5C53.2,84 50.4,83.5 49.1,81.8C48.6,81.1 47.9,79.7 49.1,77.6C50.1,75.9 50.2,74.6 50,74C49.9,73.7 49.8,73.5 49.5,73.4C49.4,73.3 49,73.1 48.3,73.5C47,74.2 45.8,76.1 45.4,78C44.1,84.5 45.9,89.4 51,92.8L49.7,94.7C43.9,90.8 41.7,85 43.2,77.5C44.5,72.2 43.8,69.2 42.7,68.1C42.1,67.5 41.4,67.3 40.4,67.6C38.7,68 37.3,70.2 36,72.2C34.6,74.3 33.4,76.2 31.6,76.5C30.4,76.7 29.7,76.3 29.3,75.9C28.2,74.8 28.5,72.7 28.8,70.3C29.1,68.2 29.5,65.4 28.4,64.6C27.7,64.1 27.3,64.2 27.2,64.2C26.2,64.4 24.9,66.4 23.7,68.3L23.2,69C21.5,71.8 18.8,72.8 16,71.8C12,70.4 8.3,65.3 8.7,61.6C9.1,57.3 13.4,56.8 16.9,56.4C18.4,56.2 19.8,56.1 20.9,55.7C22,55.3 22.9,54.6 23.2,53.7C23.5,53 23.5,52.2 23.1,51.5C21.8,49.3 19.4,47.6 16.6,47C13.5,46.4 8.3,46.7 1.4,52.2L0,50.4C7.6,44.4 13.5,44 17.1,44.7L17.2,44.7C17,44 17,43.3 17.3,42.7C17.9,41.1 19.9,39.8 23.6,40.5C25.1,40.8 25.7,40.7 25.9,40.6C25.8,40.3 25.3,39.3 23.3,37.7C22.2,36.9 21.7,36 21.6,35L21.6,34.8C21.6,33.3 22.7,32.2 23.4,31.5L24.5,30.5C25.2,29.9 25.4,29.7 25.4,28.2L25.4,27.5C25.3,25.6 24.6,23.2 23.9,20.8C23.3,18.6 22.6,16.2 22.4,14.2L22.4,13.6C22.4,12.4 22.8,11.5 23.5,10.9C24.5,10 26.1,9.8 28.4,10.3C31.3,11 36.5,13.1 39.1,15.6C39.2,15.7 44.4,20.8 43.5,23.8C43.3,24.7 42.7,25 42.3,25.2C41.1,25.7 39.9,24.9 38.6,24.1C37.8,23.6 36.6,22.8 36.1,22.9C35.6,23.1 34.6,25 35,26.6C35.5,28.4 37.9,28.4 39.9,28.2C41.9,27.9 44.9,26.2 46.9,22.3C49.5,17.2 50.3,8.7 44.1,1.5L45.9,-0C51.6,6.7 51.9,14.3 50.3,20C50.1,20.7 50.2,21.3 50.5,21.5C50.7,21.7 51.1,21.7 51.5,21.5C52.3,21.1 53.2,20 53.4,17.8C53.5,16.4 54.3,15.3 55.6,14.9C57.8,14.2 60.9,15.2 62.1,16.6C63.9,18.7 63,21.3 62.4,23.1C61.6,25.4 61.7,25.9 62.7,26.4C63,26.6 63.4,26.6 63.8,26.4C65.4,25.8 67.4,23.3 69,19.6C70.4,16.6 72.3,16.4 73.4,16.5C76.7,16.9 79.4,21.3 79.9,24.2C80.2,25.8 80,26.9 79.3,27.7C78.3,28.8 76.8,28.7 75.3,28.6C74.3,28.6 73.3,28.5 72.6,28.8C72.1,29 72,29.7 72.2,30.2C72.7,31.2 74.1,30.7 74.7,30.5C75.8,30 78.4,29 80.6,30.9C81.3,31.5 82.1,32.9 81.8,34.5C81.6,35.7 80.8,37.2 78.3,38.4C78.7,39.6 78.5,40.9 78,41.9C77.4,43.1 76.4,43.8 75.2,44L75.3,44.1C75.3,45.5 75.3,47.3 73.3,49C71.9,50.1 70.2,50.5 68.8,49.9C67.7,49.5 66.9,48.5 66.8,47.3C66.7,46.1 67.3,45 68.5,44.2C69.1,43.8 69.7,43.7 70.3,43.5C70.7,43.4 71.2,43.3 71.3,43.2L71.3,43C71.3,42.8 70.9,42.3 70.1,41.7C68.2,40.4 64.8,39.3 62.4,39.8C60.9,40.1 60.2,40.5 59.8,40.9L60,40.9L61.3,40.8C62.9,40.8 64.4,41.4 65.2,42.4C65.8,43.1 66.1,44 66,45C65.8,47.5 63.8,48.9 61,48.7C58.2,48.5 56.2,47.5 55,45.7C54.5,45.9 53.5,46.5 52.3,47.8C51.8,48.3 51.1,48.5 50.2,48.4C48.7,48.2 46.2,47.2 45.6,46.3C45.5,46.1 45.4,46 45.4,46C45.3,46 45.1,46.1 45,46.1C44.3,46.3 42.9,46.6 41.9,44.8C41.2,43.6 40.2,42.9 39.2,42.9C38.5,42.9 37.8,43.3 37.4,43.9C36.9,44.9 37,46.4 37.7,47.4C38.1,48 38.9,48.7 40.3,48.4C41.5,48.2 43.9,48 45.6,48.7C46.2,49 48,49.8 48.2,51.9C48.2,52.5 48.3,52.8 48.4,53.1C48.6,53.8 49.7,49.3 52.2,49.1C53,49 53.7,49.2 54.5,49.5C55.6,49.8 57,50.3 58.9,50.1C63.2,49.6 65.4,49.9 67.3,52.4C67.6,52.3 68,52.1 68.3,52C69.6,51.5 71,51 72,51.7C72.3,51.9 72.6,52.3 72.6,53C72.6,53.1 72.5,53.3 72.5,53.5C72.4,54.4 72.3,55 72.3,55.4L72.3,56L72.6,55.4C73.1,54.6 74.1,53.3 74.6,52C75.8,49.2 77.9,47.9 81,47.9C86.2,47.9 89.1,47.7 93.6,41.7ZM71.7,47.2C72.7,46.4 72.9,45.6 73,44.7C72.4,45.4 71.5,45.6 70.9,45.8C70.4,45.9 70,46 69.7,46.2C69.4,46.4 69,46.7 69,47.1C69,47.4 69.3,47.7 69.6,47.8C70.2,48 71,47.8 71.7,47.2ZM76,40.8C76.1,40.5 76.2,40.2 76.2,39.8C76.2,39.4 76.1,39.1 76,38.8C74.4,39.1 73.8,39.9 73.7,40.6L73.7,40.7C73.7,41 73.8,41.4 74.2,41.5C75.3,41.9 75.8,41.2 76,40.8ZM59.2,31.6C61.6,35.7 65,38.2 67.3,37.8L69.2,36.8C71.8,35.4 73.9,34.4 76.9,36.4C77.1,36.5 77.2,36.7 77.4,36.8C78.9,36.2 79.8,35.4 80,34.5C80.1,33.8 79.7,33.2 79.5,33C78.5,32.2 77.4,32.4 76,33C73,34.2 71.1,33 70.5,31.5C69.7,29.8 70.4,27.8 72,27.1C73.2,26.5 74.6,26.6 75.8,26.7C76.5,26.8 77.7,26.9 77.9,26.6C78,26.5 78.2,26.2 78,25C77.6,22.7 75.3,19.4 73.5,19.2C72.7,19.2 72.1,19.7 71.5,21C69.6,25.4 67.3,28.3 65,29.1C64,29.4 63,29.4 62.1,29C59,27.5 60,24.7 60.6,22.8C61.3,20.8 61.6,19.6 60.7,18.5C60.1,17.9 57.9,17.1 56.7,17.5C56.3,17.6 56.1,17.8 56.1,18.3C55.9,21 54.7,23.1 52.8,23.9C51.6,24.4 50.3,24.2 49.4,23.5L49.4,23.6C47.4,27.5 44.1,30.3 40.6,30.7C34.4,31.4 33.2,28.1 33,26.7C32.7,24.1 34.3,21 36.1,20.7C37.6,20.5 39,21.4 40.3,22.2C40.8,22.5 41.4,22.8 41.8,23C41.8,22.1 40.2,19.5 38,17.3C35.8,15.2 31,13.2 28.4,12.6C26.4,12.2 25.7,12.5 25.5,12.7C25.2,13 25.2,13.6 25.2,14C25.3,15.8 26,18 26.6,20.2C27.4,22.7 28.1,25.2 28.2,27.4C28.3,30.4 27.7,31.2 26.4,32.3L25.5,33.1C25.1,33.6 24.4,34.3 24.4,34.9C24.5,35.2 24.9,35.6 25.2,35.9C28.1,38.1 29.2,40.1 28.5,41.6C28.1,42.5 26.9,43.5 23.6,42.8C21.4,42.4 20.2,42.9 19.9,43.6C19.6,44.3 20.1,45.4 21.7,46.4C23.3,47.4 24.6,48.8 25.5,50.4C26.2,51.7 26.3,53.2 25.8,54.6C25.2,56.2 23.9,57.4 22.1,58C20.7,58.5 19.1,58.6 17.6,58.8C13.6,59.2 11.6,59.7 11.4,61.9C11.1,64.4 13.9,68.6 17.1,69.7C19,70.3 20.4,69.8 21.6,67.9L22.1,67.2C23.7,64.6 25.1,62.4 27.2,62C28.2,61.8 29.2,62.1 30.2,62.8C32.4,64.4 31.9,67.8 31.5,70.7C31.3,71.9 31,73.9 31.3,74.3C31.3,74.3 31.3,74.4 31.6,74.4C32.4,74.2 33.6,72.3 34.5,70.9C36,68.6 37.7,66 40.2,65.3C42,64.9 43.5,65.3 44.7,66.4C45.9,67.6 46.6,69.6 46.6,72.2C46.9,71.9 47.2,71.7 47.6,71.5C48.7,71 49.8,70.9 50.8,71.3C51.7,71.7 52.3,72.4 52.6,73.3C53.1,74.8 52.7,76.8 51.5,78.9C50.9,79.9 51.2,80.4 51.3,80.5C51.9,81.2 53.6,81.6 54.9,81.3C55.3,81.2 56.1,81 56.2,80.3C56.4,78.9 55.6,77 54.9,75.1C53.9,72.6 52.9,70 53.8,67.8C54.5,66.3 56,65.2 57.7,65C59,64.8 60.1,65.2 60.7,66C61.1,66.6 61.5,67.7 60.8,69.4C60.3,70.6 60.4,71.9 61.1,72.4C61.9,73 63.2,72.7 64.6,71.6C65.3,71.1 66.1,70.3 66,69.6C65.9,68.5 64,67.4 63.4,67.1C62.1,66.4 61.6,64.8 62.1,63.4C62.5,62.3 63.8,61.2 66.1,61.7C66.3,61.7 66.5,61.6 66.6,61.5C66.9,61.3 67,60.8 66.9,60.3C66.7,59.1 66.2,58 63,57.1C59,56 57.4,56.8 54.5,58.2L53.1,58.9C49.3,60.7 47.5,60 45.7,59.1C44.2,58.4 42.1,57.3 39.2,57.9C37.3,58.2 35.4,57.8 33.7,56.6C31.2,54.9 30.1,51.7 29.6,48.3C28.9,43.3 31.6,38.1 35.7,36.7C39.6,35.4 43.3,36.1 47.7,39C48.2,39.4 48.7,39.7 49.2,39.9C48.1,38.8 47.2,37.4 46.9,35.8C46.3,33.2 47,30.7 48.9,28.9C50,27.8 51.7,27.3 53.4,27.4C55.3,27.5 57,28.5 58.1,30C58.5,30.5 58.8,31 59.1,31.5C59.1,31.5 59.2,31.5 59.2,31.6ZM71.1,39.9C71.2,39.9 71.3,40 71.5,40.1C71.8,39.1 72.4,38 73.7,37.3C72.6,37.1 71.6,37.6 69.9,38.5L69.2,38.8C69.9,39.1 70.5,39.5 71.1,39.9ZM57.5,34.4L57.5,34.3C57.5,33.9 57.5,33.6 57.3,33.3L57.2,33.2C56.7,32.7 56.2,32.7 55.9,32.8C55.3,32.9 54.8,33.3 54.6,33.8C54.4,34.3 54.5,34.7 54.8,35C55.2,35.4 56.1,35.6 57,35C57.4,34.8 57.5,34.6 57.5,34.4Z" style="fill:rgb(214,30,32);"/>
        <path d="M165.5,30C165.5,30.033 165.5,30.067 165.5,30.1L165.5,68.2C165.7,71.3 166.8,71.5 168.2,72.2C168.6,72.4 168.6,72.8 167.7,72.8C166.6,72.7 165.5,72.7 163.4,72.7C161.3,72.7 160.2,72.7 159.1,72.8C158.4,72.8 158.4,72.4 158.8,72.2C160.4,71.4 161.5,71.2 161.5,67.3L161.5,30.1C161.5,28.2 160.8,26.9 158.9,26.1C158.6,26 158.7,25.5 159.1,25.6C160.4,25.8 161.8,25.8 163.5,25.8C165.2,25.8 166.6,25.8 167.9,25.6C168.3,25.5 168.4,26 168.1,26.1C166.234,26.886 165.525,28.154 165.5,30ZM227.6,30.1C227.6,30.133 227.6,30.167 227.6,30.2L227.6,67.3C227.6,71.2 228.8,71.4 230.4,72.2C230.9,72.5 230.8,72.9 230.1,72.8C228.9,72.7 227.8,72.7 225.6,72.7C223.4,72.7 222.3,72.7 221.1,72.8C220.4,72.8 220.4,72.4 220.8,72.2C222.2,71.5 223.3,71.3 223.5,68.3L223.5,30.1C223.5,29.2 223.4,28.4 223,27.8L211,27.8C207.4,27.8 206.7,29.1 206.1,30.2C205.9,30.7 205.5,30.6 205.6,30C206.4,26.2 206.9,25.3 209.3,25.3C211.7,25.3 218.5,25.5 221.6,25.5L229.9,25.5C233,25.5 239.8,25.3 242.2,25.3C244.6,25.3 245.3,26.5 245.5,30.1C245.6,30.7 245.3,30.8 245,30.3C244.4,29.2 244.4,27.9 240.8,27.9L228.1,27.9C227.811,28.478 227.615,29.241 227.6,30.1ZM199.8,27.1L199.8,32.5L199.3,32.5C197.4,27.6 193.5,26.3 189.5,26.4C184.7,26.6 181.8,30 181.5,33.3C181.2,38 183.8,40.8 191.7,46.7C200,52.8 201.7,55.4 201.7,60.8C201.7,65.8 197.8,72.8 188.9,72.8C185.1,72.8 180.1,71.4 177.5,71.2L177.5,63.6L178.1,63.6C178.5,68 181.7,71.1 188.9,71.1C195.7,71.1 198.3,65.7 198.1,62.3C197.8,58 196.2,56 189.4,50.8C181.8,45 178.5,41.9 178.5,35.5C178.5,29 184.3,24.9 189.5,24.9C195.4,25 197.4,26.5 199.8,27.1ZM152.2,49.1C152.2,63.7 140.8,73.7 127.6,73.7C113.1,73.7 103,62.7 103,49.1C103,34.2 114,24.5 127.6,24.5C141.2,24.5 152.2,34.8 152.2,49.1ZM126.4,26C115.4,26 107,35.1 107.7,49.1C108.4,61.8 117.1,72.2 128.9,72.2C138.4,72.2 148.3,62.8 147.6,49.1C146.8,35.6 138.3,26 126.4,26Z"/>
    </g>
</svg>
