<?xml version="1.0" encoding="UTF-8" standalone="no"?>
<!-- Generator: Adobe Illustrator 16.0.4, SVG Export Plug-In . SVG Version: 6.00 Build 0)  -->

<svg
   xmlns:dc="http://purl.org/dc/elements/1.1/"
   xmlns:cc="http://creativecommons.org/ns#"
   xmlns:rdf="http://www.w3.org/1999/02/22-rdf-syntax-ns#"
   xmlns:svg="http://www.w3.org/2000/svg"
   xmlns="http://www.w3.org/2000/svg"
   xmlns:sodipodi="http://sodipodi.sourceforge.net/DTD/sodipodi-0.dtd"
   xmlns:inkscape="http://www.inkscape.org/namespaces/inkscape"
   version="1.1"
   id="Layer_1"
   x="0px"
   y="0px"
   width="350px"
   height="350px"
   viewBox="-17 -17 350 350"
   enable-background="new -17 -17 350 350"
   xml:space="preserve"
   inkscape:version="0.91 r13725"
   sodipodi:docname="learn.svg"><metadata
     id="metadata41"><rdf:RDF><cc:Work
         rdf:about=""><dc:format>image/svg+xml</dc:format><dc:type
           rdf:resource="http://purl.org/dc/dcmitype/StillImage" /></cc:Work></rdf:RDF></metadata><defs
     id="defs39" /><sodipodi:namedview
     pagecolor="#ffffff"
     bordercolor="#666666"
     borderopacity="1"
     objecttolerance="10"
     gridtolerance="10"
     guidetolerance="10"
     inkscape:pageopacity="0"
     inkscape:pageshadow="2"
     inkscape:window-width="1855"
     inkscape:window-height="1056"
     id="namedview37"
     showgrid="false"
     inkscape:zoom="9.8930357"
     inkscape:cx="234.91669"
     inkscape:cy="40.985914"
     inkscape:window-x="65"
     inkscape:window-y="24"
     inkscape:window-maximized="1"
     inkscape:current-layer="Layer_1" /><path
     fill="#07CCA4"
     d="M210.005,127.079l0.088-0.717c0.087-0.738,0.214-1.422,0.335-2.085c0.231-1.276,0.428-2.359,0.284-3.263  c-0.284-1.779-1.504-3.336-3.831-4.902c-0.789-0.531-1.686-1.666-1.781-2.903c-0.207-2.569-1.684-4.14-4.271-4.542  c-1.005-0.156-2.322-0.807-3-1.906c-1.912-3.101-3.844-4.423-6.458-4.423c-1.026,0-2.177,0.191-3.517,0.584l-1.312,0.386  l-0.635-1.213c-2.188-4.186-5.396-5.493-10.056-4.137c-0.836,0.245-2.006,0.011-2.78-0.541c-3.878-2.76-7.923-2.832-13.076-0.24  c-0.634,0.318-1.404,0.643-2.333,0.643c-0.579,0-1.165-0.125-1.794-0.385c-1.355-0.559-2.709-0.842-4.023-0.842  c-2.799,0-5.357,1.329-7.207,3.743c-0.479,0.625-1.277,1.457-2.664,1.457c-0.466,0-0.916-0.098-1.255-0.182  c-0.769-0.192-1.578-0.29-2.404-0.29c-4.021,0-8.076,2.259-10.09,5.623c-0.637,1.064-1.98,1.612-2.935,1.757  c-2.583,0.393-5.427,1.992-4.945,5.204l0.165,1.103l-0.956,0.574c-4.677,2.812-6.988,5.776-7.976,10.233  c-0.737,3.329-0.479,6.04,0.747,7.84c0.875,1.284,2.281,2.111,4.063,2.393l1.427,0.226l-0.019,1.444  c-0.065,4.842,0.827,5.985,5.611,7.198c3.037,0.77,6.049,1.256,9.67,1.812c1.595,0.244,3.204,0.377,4.906,0.518  c0.783,0.064,1.573,0.129,2.373,0.206l2.268,0.219l-1.113,2.613c-0.088,0.209-0.16,0.378-0.233,0.547  c-1.47,3.338-0.851,5.563,2.138,7.679c2.154,1.525,4.697,2.469,8.245,3.059c4.248,0.707,10.157,2.455,12.463,9.441  c0.627,1.898,1.306,3.816,1.959,5.674c0.687,1.942,1.463,4.147,2.158,6.285l0.051,0.154c0.235,0.72,0.522,1.605,0.685,1.846  c0.271,0.082,1.198,0.102,1.953,0.115l0.234,0.003c0.074,0,0.158,0,0.22-0.002c0.021-0.078,0.048-0.203,0.078-0.375  c0.384-2.175,0.869-4.343,1.379-6.64l0.046-0.195c0.207-0.927,0.418-1.882,0.635-2.881l0.723-3.348l2.189,2.631  c0.258,0.312,0.481,0.592,0.688,0.85l0.065,0.083c0.375,0.476,0.674,0.851,0.977,1.146c2.247,2.195,4.75,3.354,7.243,3.354  c3.591,0,6.709-2.503,8.347-6.696c0.417-1.068,0.732-2.236,1.036-3.365l0.028-0.102c0.148-0.548,0.299-1.104,0.465-1.66l0.46-1.561  l2.151,0.578c0.363,0.1,0.711,0.195,1.058,0.277c0.929,0.223,1.833,0.336,2.685,0.336c2.256,0,4.122-0.771,5.398-2.232  c1.462-1.672,2.057-4.18,1.669-7.062c-0.156-1.158,0.565-2.634,1.575-3.226c2.488-1.457,4.088-3.516,4.752-6.119  c2.051-8.025,0.517-15.172-4.562-21.24L210.005,127.079z"
     id="path3" /><circle
     fill="#07CCA4"
     cx="158"
     cy="158"
     r="175"
     id="circle5" /><path
     fill="#FFFFFF"
     d="M100.762,70.264c1.685,2.023,4.163,3.184,6.799,3.184c2.062,0,4.07-0.729,5.656-2.049  c1.815-1.512,2.933-3.64,3.147-5.992c0.215-2.353-0.5-4.648-2.012-6.463L97.599,38.831c-1.686-2.023-4.164-3.184-6.799-3.184  c-2.062,0-4.071,0.728-5.657,2.049c-3.747,3.121-4.256,8.709-1.136,12.456L100.762,70.264z"
     id="path7" /><path
     fill="#FFFFFF"
     d="M163.236,58.914c4.877,0,8.844-3.967,8.844-8.844V23.894c0-4.876-3.967-8.844-8.844-8.844  c-4.876,0-8.844,3.967-8.844,8.844V50.07C154.393,54.947,158.36,58.914,163.236,58.914z"
     id="path9" /><path
     fill="#FFFFFF"
     d="M240.048,41.466c-1.573-1.283-3.557-1.99-5.584-1.99c-2.673,0-5.172,1.187-6.858,3.255l-16.543,20.287  c-3.082,3.779-2.515,9.361,1.266,12.442c1.574,1.284,3.558,1.991,5.585,1.991c2.672,0,5.172-1.187,6.858-3.255l16.543-20.287  C244.396,50.13,243.827,44.548,240.048,41.466z"
     id="path11" /><path
     fill="#2EA284"
     d="M332.397,172.575L197.146,85.656l26.924,39.621l-13.961,59.805l-49.358,65.354l-33.531,43.922l78.626,32.021  c0,0,70.708-13.092,110.79-94.393C316.635,231.986,331.498,201.766,332.397,172.575z"
     id="path13" /><path
     fill="#FFFFFF"
     d="M232.945,137.954c-4.213-26.918-23.317-48.78-47.99-57.602c-7.625-2.727-15.781-4.208-24.195-4.208  c-3.462,0-6.961,0.255-10.399,0.759c-30.161,4.419-50.662,21.623-60.935,51.133c-3.308,9.501-3.491,19.265-3.388,30.126  c0.014,1.398-0.358,2.958-1.02,4.283c-2.021,4.047-4.138,8.115-6.189,12.062c-1.788,3.438-3.636,6.994-5.413,10.519  c-2.82,5.589-1.106,10.945,4.474,13.976l0.604,0.327c2.114,1.15,4.3,2.341,6.561,3.354c0.911,0.407,1.092,0.703,1.08,1.754  c-0.064,5.728-0.054,11.549-0.044,17.213c0.004,1.783,0.007,3.565,0.008,5.35c0.006,11.616,7.859,19.434,19.541,19.453  c2.566,0.004,5.131,0.005,7.698,0.005l13.884-0.003v47.906h1.591c13.567,0,26.87-13.685,39.737-26.918  c12.497-12.854,25.423-26.145,37.834-26.145h1.591l0.002-2.195c0.002-1.736,0.01-7.023-0.039-30.56  c-0.002-1.472,0.375-2.321,1.496-3.368C229.135,186.764,237.046,164.146,232.945,137.954z M214.721,148.873  c-0.664,2.603-2.264,4.662-4.753,6.119c-1.009,0.592-1.729,2.068-1.575,3.226c0.389,2.882-0.205,5.392-1.668,7.062  c-1.276,1.462-3.145,2.234-5.398,2.234c-0.852,0-1.756-0.113-2.686-0.337c-0.347-0.083-0.691-0.179-1.057-0.276l-2.152-0.58  l-0.459,1.562c-0.166,0.558-0.314,1.112-0.465,1.66l-0.027,0.103c-0.306,1.127-0.619,2.295-1.037,3.363  c-1.637,4.194-4.756,6.697-8.348,6.697c-2.492,0-4.996-1.159-7.242-3.354c-0.304-0.297-0.601-0.67-0.978-1.146l-0.065-0.083  c-0.207-0.258-0.431-0.538-0.688-0.851l-2.189-2.631l-0.723,3.349c-0.216,0.999-0.43,1.954-0.636,2.881l-0.044,0.196  c-0.512,2.296-0.995,4.464-1.379,6.639c-0.031,0.172-0.059,0.297-0.079,0.375c-0.062,0.002-0.146,0.002-0.22,0.002l-0.234-0.003  c-0.754-0.015-1.682-0.033-1.955-0.115c-0.159-0.239-0.447-1.126-0.684-1.846l-0.049-0.154c-0.695-2.138-1.474-4.343-2.16-6.286  c-0.653-1.855-1.332-3.773-1.959-5.673c-2.305-6.985-8.214-8.733-12.461-9.44c-3.549-0.592-6.091-1.533-8.245-3.06  c-2.989-2.116-3.608-4.341-2.139-7.679c0.074-0.169,0.145-0.337,0.234-0.547l1.113-2.613l-2.268-0.219  c-0.801-0.077-1.59-0.142-2.373-0.206c-1.703-0.141-3.311-0.273-4.906-0.518c-3.622-0.556-6.633-1.042-9.671-1.812  c-4.784-1.213-5.676-2.356-5.611-7.198l0.019-1.444l-1.427-0.226c-1.783-0.281-3.188-1.109-4.063-2.393  c-1.226-1.8-1.484-4.511-0.747-7.84c0.989-4.457,3.299-7.422,7.977-10.233l0.956-0.574l-0.166-1.103  c-0.482-3.212,2.362-4.812,4.945-5.204c0.955-0.145,2.298-0.693,2.935-1.757c2.015-3.363,6.07-5.623,10.091-5.623  c0.827,0,1.636,0.098,2.404,0.29c0.339,0.084,0.789,0.182,1.255,0.182c1.387,0,2.185-0.831,2.664-1.457  c1.849-2.414,4.408-3.743,7.207-3.743c1.313,0,2.668,0.283,4.023,0.842c0.628,0.26,1.214,0.385,1.794,0.385  c0.928,0,1.7-0.325,2.333-0.643c5.153-2.592,9.197-2.52,13.076,0.24c0.773,0.552,1.945,0.785,2.779,0.541  c4.659-1.356,7.868-0.049,10.057,4.137l0.635,1.213l1.312-0.386c1.339-0.393,2.49-0.584,3.517-0.584  c2.613,0,4.547,1.323,6.459,4.423c0.678,1.1,1.994,1.75,2.998,1.906c2.588,0.402,4.064,1.973,4.271,4.542  c0.1,1.237,0.994,2.373,1.783,2.903c2.326,1.566,3.546,3.124,3.83,4.902c0.145,0.904-0.053,1.987-0.284,3.263  c-0.121,0.663-0.247,1.347-0.335,2.085l-0.088,0.717l0.464,0.554C215.236,133.701,216.771,140.848,214.721,148.873z"
     id="path15" /><g
     id="g17"><path
       fill="#2EA284"
       d="M324.164,102.946l-82.839-60.617c2.901,3.183,3.128,8.103,0.323,11.539l-16.543,20.287   c-1.687,2.068-4.186,3.255-6.856,3.255c-1.587,0-3.476-0.389-4.832-1.191l118.707,101.215   C334.062,151.125,333.062,126.595,324.164,102.946z"
       id="path19" /></g><g
     id="g21"><path
       fill="#2EA284"
       d="M94.424,36.109l0.047,0.197c1.311,0.541,2.491,1.384,3.423,2.504l16.753,20.114   c1.513,1.814,2.228,4.11,2.012,6.462c-0.214,2.354-1.332,4.48-3.147,5.992c-1.585,1.321-3.593,2.049-5.656,2.049   c-1.694,0-3.321-0.485-4.717-1.366l0.051,0.213l20.757,13.171c7.837-4.236,16.742-7.102,26.709-8.562   c3.438-0.504,4.911-0.56,5.076-0.559L94.424,36.109z"
       id="path23" /><path
       fill="#2EA284"
       d="M309.424,203.139c3.346-11.23,5.473-22.984,6.233-35.111l-90.732-54.102   c4.091,7.313,6.97,15.399,8.316,24.008c0.94,6.007,1.241,11.824,0.92,17.447L309.424,203.139z"
       id="path25" /></g><g
     id="g27"><path
       fill="#E5E5E4"
       d="M200.518,108.623c0.402,0.062,0.77,0.164,1.118,0.283l-5.454-4.048c0.451,0.532,0.896,1.143,1.336,1.859   C198.195,107.816,199.514,108.467,200.518,108.623z"
       id="path29" /><path
       fill="#E5E5E4"
       d="M232.945,137.912c-0.258-1.647-0.572-3.275-0.939-4.882l-0.516-2.073l-27.508-20.309   c0.451,0.685,0.725,1.525,0.805,2.518c0.099,1.237,0.994,2.373,1.783,2.903c2.326,1.566,3.546,3.124,3.83,4.902   c0.145,0.905-0.053,1.987-0.284,3.263c-0.121,0.663-0.247,1.347-0.335,2.085l-0.088,0.717l0.464,0.554   c5.079,6.068,6.612,13.215,4.562,21.24c-0.665,2.603-2.264,4.662-4.753,6.119c-1.009,0.592-1.73,2.069-1.574,3.226   c0.387,2.884-0.207,5.392-1.67,7.062c-1.275,1.462-3.144,2.234-5.397,2.234c-0.853,0-1.757-0.113-2.685-0.337   c-0.348-0.083-0.692-0.179-1.058-0.276l-2.153-0.58l-0.457,1.562c-0.166,0.558-0.315,1.113-0.466,1.66l-0.028,0.103   c-0.305,1.127-0.619,2.295-1.035,3.363c-1.639,4.194-4.758,6.697-8.35,6.697c-2.49,0-4.994-1.159-7.24-3.354   c-0.305-0.297-0.602-0.67-0.979-1.146l-0.064-0.083c-0.207-0.258-0.432-0.538-0.688-0.851l-2.188-2.631l-0.724,3.349   c-0.216,0.999-0.431,1.954-0.636,2.881l-0.045,0.196c-0.51,2.295-0.994,4.464-1.379,6.639c-0.03,0.172-0.058,0.297-0.078,0.375   c-0.062,0.002-0.146,0.002-0.219,0.002l-0.235-0.003c-0.754-0.015-1.681-0.033-1.955-0.115l39.274,23.515   c0.008-1.43,0.391-2.273,1.494-3.305C229.135,186.721,237.046,164.105,232.945,137.912z"
       id="path31" /><path
       fill="#E5E5E4"
       d="M193.252,102.684l-0.039-0.029l-0.004,0.013C193.225,102.673,193.238,102.679,193.252,102.684z"
       id="path33" /></g><path
     fill="#2EA284"
     d="M316,158.166c0-19.238-3.441-37.67-9.738-54.721l-69.322-43.626l-11.857,14.543  c-1.688,2.068-4.186,3.255-6.857,3.255c-2.026,0-4.012-0.707-5.586-1.991c-3.777-3.081-4.347-8.663-1.264-12.442l8.416-10.773  l-51.127-35.559l-0.002,0.007c2.254,1.604,3.73,4.231,3.73,7.202v26.177c0,4.876-3.969,8.844-8.846,8.844  c-1.648,0-3.188-0.462-4.51-1.25l-0.04,0.165L315.559,170.02C315.85,166.104,316,162.152,316,158.166z"
     id="path35" /><path
     style="fill:#07cca4;fill-opacity:1"
     d="m 217.06567,340.93585 c -2.89092,-1.19066 -9.98682,-4.09101 -15.76867,-6.44521 -52.17212,-21.24295 -56.15431,-22.91019 -54.74961,-22.92226 1.99671,-0.0172 7.32231,-1.4224 9.9504,-2.62559 2.84777,-1.30375 8.00918,-4.69373 12.0489,-7.91364 1.77903,-1.418 9.33174,-8.6814 16.78381,-16.14087 16.99371,-17.01062 22.02661,-21.14107 29.91653,-24.55221 2.50122,-1.08138 4.05623,-1.47523 6.48071,-1.6414 l 3.18987,-0.21864 0.11728,-17.27036 0.11728,-17.27035 4.31593,-4.50362 c 11.50716,-12.00756 18.12166,-24.48931 20.57854,-38.83231 2.70899,-15.8148 0.29261,-32.62201 -6.69515,-46.5683 -3.89584,-7.77541 -7.89429,-13.36379 -13.73241,-19.19293 -4.9411,-4.93352 -9.28559,-8.25489 -31.961,-24.434243 -10.67418,-7.616239 -19.58954,-14.02505 -19.81192,-14.241809 -0.26311,-0.256459 0.24438,-0.299152 1.45307,-0.122235 3.71515,0.54378 7.35102,-1.376658 9.04599,-4.778012 l 1.0242,-2.0553 0,-15.199465 c 0,-14.362617 -0.0442,-15.286134 -0.80254,-16.773595 -0.44139,-0.86577 -0.7598,-1.608779 -0.70757,-1.65113 0.25028,-0.202932 48.5965,33.751218 48.47999,34.048103 -0.0737,0.187741 -2.0029,2.706648 -4.28717,5.597571 -5.19667,6.576796 -5.65346,7.426428 -5.65177,10.512446 0.002,2.809552 1.03674,5.161845 2.99787,6.812028 2.61447,2.199927 7.55222,2.472361 10.4195,0.574885 1.71991,-1.138178 18.32195,-21.1236 19.80313,-23.838858 1.09402,-2.005533 1.23954,-5.794769 0.29286,-7.625462 -0.33928,-0.656092 -0.51077,-1.192895 -0.38109,-1.192895 0.35041,0 79.89806,58.183741 80.91583,59.184481 1.52886,1.50326 4.88373,13.06466 6.76051,23.29778 1.93854,10.56988 2.44107,17.24158 2.42111,32.14383 -0.0296,22.08927 -1.98529,35.0763 -8.03569,53.36173 -9.19946,27.80246 -25.9063,54.20636 -46.77987,73.93206 -18.8634,17.82607 -39.4176,30.42665 -61.85419,37.91918 -9.77809,3.26533 -9.51321,3.25488 -15.89466,0.6266 z"
     id="path4203"
     inkscape:connector-curvature="0"
     transform="translate(-17,-17)" /><path
     style="fill:#07cca4;fill-opacity:1"
     d="m 131.34185,96.252936 -9.26054,-5.86271 2.32187,0 c 3.86365,0 6.7314,-1.696815 8.42117,-4.982704 0.90207,-1.754148 1.06078,-4.772758 0.36222,-6.889419 -0.26087,-0.790447 -4.24803,-5.957355 -9.12538,-11.825449 -4.76414,-5.731896 -8.59923,-10.484471 -8.52243,-10.561278 0.0768,-0.07681 12.84272,8.191339 28.36868,18.373656 l 28.22903,18.513306 -1.59272,0.273512 c -12.32241,2.116067 -19.10863,4.000662 -25.94958,7.20644 -1.89824,0.88955 -3.57294,1.61736 -3.72156,1.61736 -0.14862,0 -4.43746,-2.638223 -9.53076,-5.862714 z"
     id="path4205"
     inkscape:connector-curvature="0"
     transform="translate(-17,-17)" /><path
     style="fill:#ffffff;fill-opacity:1"
     d="m 205.46758,213.72902 c -14.11966,-8.45336 -19.02431,-11.57649 -18.32403,-11.66818 0.79704,-0.10436 1.02932,-0.47458 1.39526,-2.22379 1.53678,-7.34583 2.20801,-10.2238 2.4503,-10.506 0.15156,-0.1765 0.96681,0.55128 1.81168,1.6173 3.23518,4.082 6.61266,6.0049 9.97914,5.68142 4.03541,-0.38775 6.89369,-3.56858 8.65709,-9.63405 0.53257,-1.83185 1.01769,-3.38001 1.07803,-3.44035 0.0603,-0.0603 1.19989,0.1467 2.53233,0.4601 3.34759,0.78737 4.59436,0.7263 6.68177,-0.32729 2.47336,-1.24839 3.60974,-3.33752 3.61853,-6.65234 0.008,-3.14782 0.4842,-4.19282 2.60176,-5.71353 3.26848,-2.34725 5.01811,-7.63325 4.56111,-13.78012 -0.29395,-3.95379 -1.5623,-7.57617 -3.79425,-10.83627 l -1.78182,-2.6026 0.27371,-3.37335 c 0.24489,-3.01816 0.18286,-3.52036 -0.58924,-4.76963 -0.47462,-0.76796 -1.4819,-1.8204 -2.23838,-2.33875 -1.5748,-1.07907 -2.44368,-2.42146 -2.80491,-4.33353 -0.23192,-1.2276 -0.19416,-1.29125 0.47977,-0.80865 9.45702,6.77219 26.36573,19.57399 26.51143,20.07215 2.09769,7.17219 2.87144,20.92604 1.65759,29.46454 -2.25347,15.85139 -9.09118,29.13733 -21.50238,41.77991 -1.86741,1.90223 -3.52555,3.91251 -3.68476,4.46729 -0.28289,0.98577 -0.7278,0.74627 -19.56973,-10.53428 z"
     id="path4207"
     inkscape:connector-curvature="0"
     transform="translate(-17,-17)" /><path
     style="fill:#ffffff;fill-opacity:1"
     d="m 189.92019,204.46115 -4.10982,-2.46632 0.58778,0.0226 c 0.55568,0.0214 0.59863,0.0349 0.78623,0.24597 0.39332,0.44263 2.2726,1.71558 5.30892,3.59604 1.55523,0.96319 1.72865,1.07903 1.60462,1.07189 -0.0373,-0.002 -1.91733,-1.11375 -4.17773,-2.47023 z"
     id="path4209"
     inkscape:connector-curvature="0"
     transform="translate(-17,-17)" /><path
     style="fill:#ffffff;fill-opacity:1"
     d="m 222.31382,223.86268 c -1.38711,-0.82915 -2.50736,-1.5222 -2.48945,-1.54012 0.0179,-0.0179 0.62121,0.29636 1.34065,0.69838 1.58972,0.88831 2.61593,1.39552 3.12021,1.54218 0.3487,0.10141 0.39325,0.10048 0.56459,-0.0118 l 0.18602,-0.12189 -0.0464,0.23199 c -0.0255,0.1276 -0.0464,0.34055 -0.0464,0.47322 0,0.13268 -0.0241,0.23996 -0.0536,0.2384 -0.0295,-0.002 -1.18851,-0.68123 -2.57562,-1.51038 z"
     id="path4211"
     inkscape:connector-curvature="0"
     transform="translate(-17,-17)" /><path
     style="fill:#ffffff;fill-opacity:1"
     d="m 216.75276,125.39685 c -0.40559,-0.14489 -0.99424,-0.46544 -1.30811,-0.71233 -0.57491,-0.45222 -1.74404,-2.05671 -1.60209,-2.19866 0.042,-0.042 1.05322,0.65903 2.2471,1.55789 2.10613,1.58568 2.27421,1.92865 0.6631,1.3531 z"
     id="path4213"
     inkscape:connector-curvature="0"
     transform="translate(-17,-17)" /><path
     style="fill:#ffffff;fill-opacity:1"
     d="m 207.96767,193.95771 c 0.74312,-0.84202 1.4352,-1.89184 1.97928,-3.00237 0.62538,-1.27649 0.85452,-1.90587 1.65802,-4.55418 0.8051,-2.65356 0.88063,-2.8641 1.02747,-2.8641 0.17417,0 1.23895,0.21084 2.51317,0.49765 1.82754,0.41135 2.19527,0.46282 3.3236,0.46513 0.8663,0.002 1.13597,-0.0251 1.64317,-0.16361 1.58686,-0.43346 3.0478,-1.35123 3.84758,-2.41706 1.03658,-1.38142 1.32003,-2.45225 1.43531,-5.42242 0.0574,-1.4782 0.0904,-1.79607 0.23868,-2.29875 0.31588,-1.07076 0.92236,-1.84183 2.19851,-2.79518 1.14989,-0.85902 1.7907,-1.53752 2.44583,-2.58965 1.52922,-2.45591 2.28964,-5.60119 2.28964,-9.47047 0,-4.86569 -1.28138,-8.95325 -4.05554,-12.93701 -0.30112,-0.43243 -0.78261,-1.14003 -1.06997,-1.57246 l -0.52248,-0.78622 0.095,-1.10787 c 0.0523,-0.60932 0.1489,-1.65465 0.21473,-2.32294 0.0773,-0.78497 0.10857,-1.58194 0.0883,-2.25147 -0.0276,-0.90945 -0.054,-1.09032 -0.21544,-1.47669 -0.44176,-1.05695 -1.50033,-2.30809 -2.77236,-3.27668 -1.13113,-0.8613 -1.87692,-1.76208 -2.30845,-2.7882 -0.19017,-0.4522 -0.55056,-2.02515 -0.55056,-2.40296 0,-0.19385 0.0202,-0.21669 0.16082,-0.18225 0.12569,0.0308 0.10618,-0.002 -0.0893,-0.15087 -0.13759,-0.10464 -0.50282,-0.45544 -0.81163,-0.77958 -0.61116,-0.64149 -1.08062,-0.98573 -1.69,-1.2392 -0.21621,-0.0899 -0.4896,-0.23335 -0.60754,-0.3187 -0.11793,-0.0854 -0.47174,-0.34062 -0.78623,-0.56728 l -0.5718,-0.41211 0.37525,0.3575 c 0.20638,0.19663 0.37524,0.40571 0.37524,0.46463 0,0.24939 -1.47947,-0.25608 -2.2028,-0.7526 -0.54859,-0.37658 -1.92129,-2.17338 -1.77339,-2.32128 0.0223,-0.0223 0.12201,0.0127 0.22151,0.078 0.32524,0.2131 0.18987,0.0624 -0.19432,-0.21628 -0.20639,-0.14973 -0.71349,-0.59645 -1.12689,-0.99273 -1.40447,-1.34627 -2.41239,-1.86022 -3.9882,-2.03362 -1.32813,-0.14614 -3.19404,0.1608 -5.42356,0.89219 -0.049,0.0161 -0.27349,-0.32817 -0.5269,-0.80806 -1.20775,-2.28716 -2.38554,-3.57757 -3.96212,-4.34096 -1.62061,-0.78471 -3.48564,-0.88268 -5.78878,-0.30407 -0.71938,0.18073 -0.95466,0.21005 -1.46524,0.1826 -0.7856,-0.0422 -1.23612,-0.20966 -2.11694,-0.78675 -1.30098,-0.85236 -2.67166,-1.45267 -3.95916,-1.73397 -0.82627,-0.18053 -2.58727,-0.21984 -3.54409,-0.0791 -0.90862,0.13364 -1.89752,0.37889 -2.77132,0.6873 -0.33343,0.11769 -0.6249,0.21398 -0.6477,0.21398 -0.0228,0 -0.0415,-4.52409 -0.0415,-10.05353 l 0,-10.053521 1.5758,0.04875 c 23.17796,0.717017 45.05388,12.904473 58.26282,32.459253 3.77369,5.58664 6.62867,11.37395 8.74448,17.72585 0.61278,1.83963 1.35852,4.38069 1.30216,4.43704 -0.0175,0.0175 -1.46006,-1.02283 -3.20568,-2.31185 -1.74563,-1.28902 -3.79301,-2.80065 -4.54976,-3.35919 -0.75674,-0.55853 -1.3759,-1.00161 -1.3759,-0.98463 0,0.017 0.6674,0.53795 1.48311,1.15769 4.0541,3.08013 7.34677,5.69145 7.6884,6.09746 0.35015,0.41613 1.11154,3.99577 1.54361,7.25722 0.59599,4.49869 0.82674,8.63821 0.77097,13.83045 -0.0376,3.50285 -0.0769,4.35743 -0.30363,6.61146 -0.54508,5.41808 -2.09736,11.86143 -4.14554,17.20765 l -0.48604,1.26869 -19.21622,0 -19.21621,0 0.58073,-0.65801 z m 31.22935,-52.83243 c 0,-0.0148 -0.0563,-0.0711 -0.12508,-0.12509 -0.11337,-0.0889 -0.11589,-0.0864 -0.027,0.027 0.0934,0.11906 0.15207,0.15692 0.15207,0.0981 z m -0.2859,-0.21443 c 0,-0.0148 -0.0563,-0.0711 -0.12508,-0.12508 -0.11337,-0.0889 -0.1159,-0.0864 -0.027,0.027 0.0934,0.11906 0.15207,0.15693 0.15207,0.0981 z"
     id="path4215"
     inkscape:connector-curvature="0"
     transform="translate(-17,-17)" /><path
     style="fill:#ffffff;fill-opacity:1"
     d="m 248.56027,148.60122 c 0,-0.0439 -0.10453,-0.17988 -0.23229,-0.30223 -0.31457,-0.30126 -2.37819,-1.9662 -3.9345,-3.17437 -0.69963,-0.54313 -1.25658,-1.00296 -1.23769,-1.02186 0.0189,-0.0189 1.13772,0.77885 2.48627,1.77278 1.34854,0.99392 2.53667,1.85579 2.64027,1.91525 0.13756,0.079 0.21041,0.20361 0.2701,0.4622 0.045,0.19475 0.0651,0.37072 0.0448,0.39104 -0.0203,0.0203 -0.0369,0.001 -0.0369,-0.0428 z"
     id="path4217"
     inkscape:connector-curvature="0"
     transform="translate(-17,-17)" /><path
     style="fill:#07cca4;fill-opacity:1"
     d="m 229.11901,79.079279 c 0,-0.06991 0.47803,-0.69203 3.35693,-4.368819 1.20044,-1.533143 2.56814,-3.298134 3.03933,-3.922203 l 0.85671,-1.13467 -0.28501,-0.247141 c -0.64776,-0.561673 -9.20494,-6.698739 -16.06708,-11.523044 -0.46405,-0.326246 -0.8285,-0.608411 -0.80987,-0.627034 0.0186,-0.01862 3.9761,2.70807 8.79441,6.059319 l 8.76055,6.09318 -0.23628,0.292115 c -0.12995,0.160663 -1.79033,2.286273 -3.68973,4.723578 -3.45089,4.428157 -3.71996,4.764833 -3.71996,4.654719 z"
     id="path4219"
     inkscape:connector-curvature="0"
     transform="translate(-17,-17)" /><path
     style="fill:#07cca4;fill-opacity:1"
     d="m 244.38469,136.16061 c -0.1541,-0.34361 -0.67583,-1.41276 -1.15939,-2.37589 -3.83031,-7.62902 -7.76207,-13.10333 -13.60419,-18.94153 -2.96045,-2.95847 -5.82144,-5.38474 -10.5801,-8.97247 -0.64463,-0.48601 -4.2198,-2.83995 -4.71949,-3.10738 l -0.17122,-0.0916 0.12812,0.19555 c 0.0705,0.10754 0.11751,0.20521 0.10454,0.21703 -0.013,0.0118 -0.50603,-0.25244 -1.0957,-0.58728 -4.37803,-2.48594 -9.51667,-4.692934 -14.41595,-6.191504 -6.30505,-1.92856 -12.23844,-2.914693 -19.01658,-3.160568 l -1.34016,-0.04861 0,-8.14742 c 0,-6.508602 0.018,-8.132969 0.0893,-8.075577 0.0491,0.03951 2.7107,1.94702 5.91457,4.238904 3.20388,2.291885 9.55624,6.836467 14.11636,10.099071 4.56012,3.262604 9.81891,7.023845 11.68619,8.358313 1.86729,1.334464 3.43528,2.458434 3.48442,2.497704 0.0491,0.0393 0.0893,0.0538 0.0893,0.0323 0,-0.0717 -5.58699,-4.101303 -16.61799,-11.985701 -8.30122,-5.933292 -14.71985,-10.536096 -17.24339,-12.365249 l -1.51885,-1.100916 0,-0.352359 0,-0.352359 0.30076,0.04809 c 1.22693,0.196194 2.54707,0.185212 3.53029,-0.02937 0.44966,-0.09813 1.47596,-0.435287 1.43864,-0.47261 -0.0157,-0.0157 -0.21873,0.03689 -0.45119,0.116866 -0.83622,0.287703 -1.74787,0.427071 -2.75695,0.421465 -0.52453,-0.0029 -1.09842,-0.03263 -1.27533,-0.06603 -0.226,-0.04267 -0.10912,-0.04971 0.39312,-0.02369 4.54894,0.235731 8.51294,-2.937836 9.28944,-7.437116 0.16212,-0.939405 0.16541,-28.036229 0.004,-29.034378 -0.20422,-1.259181 -0.84941,-2.818404 -1.5483,-3.741796 -0.36786,-0.486025 -0.30619,-0.557616 0.0702,-0.08147 0.38156,0.482703 0.74013,1.080536 1.03588,1.727092 0.45258,0.989415 0.41439,0.918597 0.36695,0.680454 -0.0228,-0.114169 -0.2674,-0.687683 -0.54368,-1.274475 -0.27627,-0.586791 -0.48537,-1.083845 -0.46465,-1.104563 0.0207,-0.02072 0.23092,0.07972 0.46711,0.223199 1.48006,0.899089 17.48938,12.032454 30.1882,20.993782 0.65847,0.464666 1.19721,0.82302 1.19721,0.796341 0,-0.02668 0.0472,0.01393 0.10494,0.09023 0.0577,0.07631 0.10646,0.106579 0.10831,0.06727 0.002,-0.03931 0.0339,-0.02323 0.0711,0.03574 0.0373,0.05897 0.10111,0.111233 0.14186,0.116147 0.0407,0.0049 0.10624,0.01295 0.14555,0.01787 0.0393,0.0049 0.0634,0.04914 0.0536,0.09828 -0.01,0.0502 0.0374,0.08003 0.10834,0.06808 0.0694,-0.01169 0.11767,0.0092 0.10722,0.04646 -0.0105,0.03725 0.0132,0.07526 0.0525,0.08447 0.0393,0.0092 0.11256,0.07541 0.16278,0.147104 0.0516,0.07371 0.13831,0.11231 0.19948,0.08884 0.0681,-0.02614 0.10048,-0.0052 0.0874,0.0566 -0.0126,0.05945 0.0289,0.08974 0.10542,0.07685 0.0713,-0.01202 0.11795,0.0176 0.10721,0.06814 -0.0104,0.04917 0.0452,0.0909 0.12376,0.09274 0.0785,0.0018 0.14285,0.04086 0.14295,0.08673 8e-5,0.04586 0.0295,0.110191 0.0653,0.142951 0.0384,0.03516 0.0417,0.01917 0.008,-0.03905 -0.0391,-0.06745 -0.0258,-0.08816 0.0421,-0.06552 0.0546,0.0182 0.0993,0.06794 0.0993,0.11053 0,0.04259 0.0188,0.09619 0.0417,0.119125 0.0229,0.02293 0.0417,-0.007 0.0417,-0.06659 0,-0.09589 -35.77112,-25.047038 -35.83525,-24.995881 -0.0134,0.01066 -0.0639,-0.01394 -0.11223,-0.05466 -1.27089,-1.070014 -3.03987,-1.809706 -4.79738,-2.006011 -0.71228,-0.07956 -1.83221,-0.04479 -2.35497,0.07311 l -0.26179,0.05904 0,-1.386239 0,-1.38624 46.80447,0 46.80448,0 1.53063,1.047888 c 15.6049,10.683272 29.47531,23.892884 40.85305,38.906753 5.68615,7.503333 10.9182,15.707587 15.27411,23.950969 l 0.47569,0.900213 -0.0182,8.840691 -0.0181,8.84069 -12.29374,-8.99503 C 311.16541,97.975819 295.01015,86.154523 282.02639,76.653541 269.04262,67.152559 258.40457,59.379028 258.38625,59.379028 c -0.0183,0 0.12889,0.201024 0.32712,0.44672 0.19822,0.245696 0.50785,0.697949 0.68807,1.005007 0.3429,0.584257 0.87552,1.845048 0.87884,2.08034 0.001,0.07535 0.0221,0.116783 0.0468,0.09208 0.079,-0.07902 -0.1162,-0.709012 -0.43806,-1.413651 -0.1719,-0.376337 -0.33548,-0.775633 -0.36351,-0.887324 -0.0728,-0.290102 -0.0133,-0.256997 1.56509,0.87053 6.31345,4.510048 36.45637,26.490661 55.2996,40.325188 3.58505,2.63211 12.13688,8.9135 13.09783,9.62046 l 0.76836,0.56528 0,12.35151 0,12.35151 -42.79578,-7.2e-4 -42.79578,-7.1e-4 -0.28018,-0.62475 0,1.1e-4 z m -29.70367,-33.49459 c 0,-0.0148 -0.0563,-0.0711 -0.12508,-0.12509 -0.11336,-0.0889 -0.11589,-0.0864 -0.027,0.027 0.0934,0.11906 0.15207,0.15693 0.15207,0.0981 z m -0.2859,-0.21831 c 0,-0.017 -0.10453,-0.10005 -0.23229,-0.18459 l -0.2323,-0.15373 0.21443,0.18424 c 0.21989,0.18894 0.25016,0.20758 0.25016,0.15408 z m 21.98332,-8.122481 c 0.30311,-0.04216 0.8281,-0.15857 1.16665,-0.258694 0.33854,-0.100124 0.65574,-0.183565 0.70488,-0.185425 0.0491,-0.0019 0.0893,-0.03363 0.0893,-0.07059 0,-0.03696 0.0499,-0.04805 0.11092,-0.02464 0.0725,0.02781 0.0932,0.01386 0.0597,-0.04024 -0.0342,-0.0553 -0.0117,-0.06764 0.0678,-0.03716 0.0654,0.0251 0.11894,0.0155 0.11894,-0.02135 0,-0.03684 0.0535,-0.04645 0.11894,-0.02135 0.0746,0.02862 0.10139,0.01725 0.0719,-0.03049 -0.0562,-0.09089 0.14695,-0.183133 0.25552,-0.116037 0.0418,0.02586 0.0555,0.01381 0.0305,-0.02677 -0.0253,-0.04091 0.16753,-0.197115 0.43269,-0.35055 0.6603,-0.382083 1.7796,-1.478007 2.98366,-2.921347 1.15417,-1.383534 15.3294,-18.767595 15.88184,-19.476994 1.7268,-2.21741 2.30195,-5.327243 1.47394,-7.969485 -0.49118,-1.567367 -1.09383,-2.567038 -2.25487,-3.740344 -1.19656,-1.209207 -2.72696,-2.033152 -4.4846,-2.414435 -0.84036,-0.182298 -2.65522,-0.183836 -3.48771,-0.003 -1.6928,0.367804 -3.13144,1.115949 -4.30866,2.240663 -0.49309,0.471094 -8.7144,10.442031 -8.7144,10.568963 0,0.101802 -1.73196,2.244984 -1.78682,2.211075 -0.0339,-0.02096 -0.0849,-4.29e-4 -0.11338,0.04558 -0.0323,0.05226 -0.0207,0.06454 0.0308,0.03269 0.1428,-0.08826 0.0904,0.03411 -0.13818,0.322736 -0.12139,0.153262 -0.24782,0.261898 -0.28097,0.241414 -0.0331,-0.02048 -0.0835,4.29e-4 -0.11198,0.04644 -0.0323,0.05226 -0.0207,0.06454 0.0308,0.03269 0.0454,-0.02805 0.0825,-0.02088 0.0825,0.01594 0,0.08724 -0.18096,0.23704 -0.22869,0.189311 -0.0203,-0.02026 -0.0816,0.02022 -0.13637,0.08996 -0.0905,0.115308 -0.0882,0.117912 0.0256,0.02871 0.0688,-0.05395 0.12508,-0.06698 0.12508,-0.02895 0,0.09465 -0.252,0.315804 -0.30241,0.265393 -0.0224,-0.02236 -0.0649,-0.0014 -0.0946,0.04662 -0.0345,0.05577 -0.0241,0.06886 0.0286,0.03628 0.14281,-0.08826 0.0904,0.03411 -0.13818,0.322736 -0.12138,0.153261 -0.24639,0.262777 -0.2778,0.243367 -0.0314,-0.01941 -0.10095,0.02064 -0.15454,0.089 -0.0882,0.112478 -0.0855,0.114969 0.0276,0.0262 0.0688,-0.05395 0.12508,-0.06698 0.12508,-0.02895 0,0.09465 -0.252,0.315805 -0.30242,0.265394 -0.0223,-0.02236 -0.0649,-0.0014 -0.0946,0.04662 -0.0345,0.05577 -0.0241,0.06886 0.0286,0.03627 0.0454,-0.02805 0.0825,-0.02088 0.0825,0.01594 0,0.08724 -0.18096,0.23704 -0.22869,0.189311 -0.0203,-0.02026 -0.0816,0.02022 -0.13637,0.08996 -0.0905,0.115308 -0.0882,0.117912 0.0255,0.02871 0.0688,-0.05395 0.12508,-0.06593 0.12508,-0.02662 0,0.09065 -0.17963,0.242904 -0.22869,0.193844 -0.0203,-0.02026 -0.0816,0.01835 -0.13637,0.08582 -0.0659,0.08116 -0.0693,0.1045 -0.0102,0.06898 0.0491,-0.02952 0.0893,-0.02355 0.0893,0.01327 0,0.08724 -0.18096,0.23704 -0.22869,0.189311 -0.0203,-0.02026 -0.0816,0.02022 -0.13637,0.08996 -0.0905,0.115308 -0.0882,0.117912 0.0256,0.02871 0.0688,-0.05395 0.12508,-0.06593 0.12508,-0.02662 0,0.08936 -0.1793,0.243222 -0.22739,0.195133 -0.0196,-0.01956 -0.097,0.03646 -0.17211,0.124471 -0.11054,0.129536 -0.11273,0.14157 -0.0115,0.06316 0.0688,-0.05327 0.12508,-0.0647 0.12508,-0.02539 0,0.09065 -0.17962,0.242904 -0.22868,0.193844 -0.0203,-0.02026 -0.0816,0.02022 -0.13638,0.08996 -0.0905,0.115308 -0.0882,0.117912 0.0256,0.02871 0.0688,-0.05395 0.12508,-0.06698 0.12508,-0.02895 0,0.09143 -0.25118,0.316627 -0.29939,0.268422 -0.0207,-0.02069 -0.0824,0.01944 -0.13715,0.08919 -0.0905,0.115308 -0.0882,0.117912 0.0256,0.02871 0.0688,-0.05395 0.12508,-0.06593 0.12508,-0.02662 0,0.08936 -0.17931,0.243222 -0.2274,0.195133 -0.0196,-0.01956 -0.097,0.03701 -0.17211,0.125702 l -0.13656,0.161257 0.16082,-0.136159 c 0.0885,-0.07489 0.16082,-0.103996 0.16082,-0.06468 0,0.09312 -0.25048,0.319647 -0.29938,0.270749 -0.0207,-0.02069 -0.0824,0.01944 -0.13715,0.08919 -0.0905,0.115308 -0.0882,0.117912 0.0255,0.02871 0.0688,-0.05395 0.12508,-0.06593 0.12508,-0.02662 0,0.08935 -0.17931,0.243222 -0.2274,0.195133 -0.0196,-0.01956 -0.097,0.03646 -0.17211,0.12447 -0.11054,0.129537 -0.11272,0.141571 -0.0115,0.06316 0.0688,-0.05327 0.12508,-0.0647 0.12508,-0.02539 0,0.0922 -0.18001,0.242518 -0.23026,0.192275 -0.0211,-0.02113 -0.1462,0.09977 -0.27795,0.268653 -0.13175,0.168886 -0.18387,0.262922 -0.11583,0.20897 0.068,-0.05395 0.12371,-0.06593 0.12371,-0.02662 0,0.09064 -0.17962,0.242904 -0.22868,0.193844 -0.0203,-0.02027 -0.0816,0.01835 -0.13638,0.08581 -0.0835,0.102897 -0.0836,0.113089 -9.1e-4,0.06325 0.0686,-0.0413 0.0876,-0.02915 0.0625,0.03989 -0.0198,0.05461 -0.0684,0.09253 -0.10798,0.08426 -0.0395,-0.0083 -0.13201,0.05551 -0.20549,0.141719 -0.11281,0.132366 -0.11413,0.141682 -0.009,0.05989 0.0688,-0.05327 0.12508,-0.0647 0.12508,-0.02539 0,0.09064 -0.17962,0.242904 -0.22868,0.193844 -0.0203,-0.02026 -0.0816,0.01835 -0.13638,0.08581 -0.0835,0.102897 -0.0836,0.113089 -9.1e-4,0.06325 0.0682,-0.04108 0.0884,-0.02878 0.0655,0.03989 -0.0182,0.05461 -0.0787,0.100755 -0.13435,0.102542 -0.0557,0.0018 -0.0929,0.04289 -0.0827,0.09133 0.0102,0.04845 -0.0299,0.106658 -0.089,0.12936 -0.11194,0.04295 -1.01865,1.292875 -1.52265,2.099002 -0.44332,0.709072 -0.9259,1.758817 -1.10075,2.39442 -0.14024,0.509774 -0.15744,0.746253 -0.1586,2.179994 -0.001,1.77593 0.0704,2.255243 0.52595,3.508439 0.52929,1.456106 1.5935,2.868842 2.82087,3.744674 1.64761,1.175709 4.34254,1.77378 6.58642,1.461686 l 0,0 z m 11.28839,-9.929878 c 0.0711,-0.07862 0.11329,-0.14295 0.0936,-0.14295 -0.0196,0 -0.094,0.06433 -0.1651,0.14295 -0.0712,0.07862 -0.11329,0.14295 -0.0936,0.14295 0.0197,0 0.094,-0.06433 0.16511,-0.14295 z m 0.32164,-0.393114 c 0.0923,-0.09828 0.15179,-0.178688 0.13213,-0.178688 -0.0197,0 -0.11128,0.08041 -0.20361,0.178688 -0.0923,0.09828 -0.15178,0.178688 -0.13213,0.178688 0.0197,0 0.11128,-0.08041 0.20361,-0.178688 z m 1.59052,-1.911961 c 1.88608,-2.26347 3.42387,-4.14335 4.95519,-6.057524 1.92458,-2.405751 2.11194,-2.644583 2.07457,-2.644583 -0.0189,0 -1.73139,2.082609 -3.8056,4.62802 -2.07421,2.545411 -3.97678,4.877289 -4.22793,5.181952 -0.25114,0.304663 -0.4396,0.553933 -0.41879,0.553933 0.0208,0 0.66096,-0.747809 1.42256,-1.661798 z m -65.27493,-6.808014 c 0.1769,-0.09472 0.28947,-0.172229 0.25016,-0.172229 -0.0393,0 -0.21621,0.0775 -0.39311,0.172229 -0.1769,0.09472 -0.28948,0.172229 -0.25016,0.172229 0.0393,0 0.21621,-0.0775 0.39311,-0.172229 z m 0.64328,-0.362406 c 0,-0.01966 -0.0643,-0.0013 -0.14295,0.04077 -0.0786,0.04208 -0.14295,0.09259 -0.14295,0.112242 0,0.01966 0.0643,0.0013 0.14295,-0.04077 0.0786,-0.04208 0.14295,-0.09259 0.14295,-0.112243 z m 71.8417,-1.728244 c 0.0889,-0.113364 0.0864,-0.115892 -0.027,-0.02699 -0.11906,0.09337 -0.15692,0.152068 -0.0981,0.152068 0.0148,0 0.0711,-0.05629 0.12508,-0.125082 z M 235.5609,70.761455 c 0.0889,-0.113364 0.0864,-0.115892 -0.027,-0.02699 -0.0688,0.05395 -0.12508,0.11024 -0.12508,0.125082 0,0.05883 0.0587,0.02096 0.15207,-0.0981 z m 0.21443,-0.285901 c 0.0889,-0.113364 0.0864,-0.115892 -0.027,-0.02699 -0.0688,0.05395 -0.12508,0.11024 -0.12508,0.125082 0,0.05883 0.0587,0.02096 0.15207,-0.0981 z m 0.21442,-0.285901 c 0.0889,-0.113364 0.0864,-0.115892 -0.027,-0.02699 -0.0688,0.05395 -0.12509,0.11024 -0.12509,0.125082 0,0.05883 0.0587,0.02096 0.15207,-0.0981 z m -46.82641,-0.516156 c 0.19664,-0.389532 0.21465,-0.484741 0.20624,-1.089997 l -0.009,-0.663184 -0.0653,0.520736 c -0.0359,0.286405 -0.13953,0.776903 -0.23022,1.089997 -0.0907,0.313093 -0.15408,0.56926 -0.14089,0.56926 0.0132,0 0.12093,-0.192066 0.23943,-0.426812 z m 47.10533,0.136931 c 0.10861,-0.202945 0.0345,-0.169829 -0.10854,0.04852 -0.0676,0.103119 -0.0875,0.165655 -0.0443,0.13897 0.0432,-0.02669 0.11197,-0.111054 0.15288,-0.187488 z m -0.28804,-0.952183 c 0,-0.01484 -0.0563,-0.07113 -0.12508,-0.125082 -0.11336,-0.08891 -0.11589,-0.08638 -0.027,0.02699 0.0934,0.11906 0.15206,0.156923 0.15206,0.0981 z m -1.64393,-1.143604 c 0,-0.01484 -0.0563,-0.07113 -0.12508,-0.125081 -0.11336,-0.08891 -0.11589,-0.08638 -0.027,0.02699 0.0934,0.11906 0.15206,0.156922 0.15206,0.0981 z m -1.64393,-1.143603 c 0,-0.01484 -0.0563,-0.07113 -0.12508,-0.125082 -0.11336,-0.0889 -0.11589,-0.08638 -0.027,0.02699 0.0934,0.119059 0.15206,0.156922 0.15206,0.0981 z m -3.28785,-2.287207 c 0,-0.01484 -0.0563,-0.07113 -0.12509,-0.125081 -0.11336,-0.08891 -0.11589,-0.08638 -0.027,0.02699 0.0934,0.11906 0.15207,0.156922 0.15207,0.0981 z m 30.99758,-1.130018 c -0.0228,-0.05702 -0.0397,-0.04008 -0.0432,0.04318 -0.003,0.07535 0.0138,0.117562 0.0375,0.09381 0.0238,-0.02375 0.0263,-0.0854 0.006,-0.136994 l -1e-5,0 z m -32.64151,-0.01358 c 0,-0.01484 -0.0563,-0.07113 -0.12509,-0.125081 -0.11336,-0.08891 -0.11589,-0.08638 -0.027,0.02699 0.0934,0.11906 0.15207,0.156922 0.15207,0.0981 z m -1.14361,-0.571802 c 0,-0.01484 -0.0563,-0.07113 -0.12508,-0.125081 -0.11336,-0.08891 -0.11589,-0.08638 -0.027,0.02699 0.0934,0.11906 0.15207,0.156922 0.15207,0.0981 z m 0.21443,-0.07147 c 0,-0.01484 -0.0563,-0.07113 -0.12508,-0.125081 -0.11337,-0.08891 -0.1159,-0.08638 -0.027,0.02699 0.0934,0.11906 0.15207,0.156922 0.15207,0.0981 z m -0.71475,-0.285901 c 0,-0.01484 -0.0563,-0.07113 -0.12509,-0.125081 -0.11336,-0.08891 -0.11589,-0.08638 -0.027,0.02699 0.0934,0.11906 0.15207,0.156922 0.15207,0.0981 z m 0,-0.21831 c 0,-0.01698 -0.10454,-0.100046 -0.2323,-0.184595 l -0.23229,-0.153724 0.21442,0.18424 c 0.2199,0.18894 0.25017,0.207582 0.25017,0.154079 z m -0.50033,-0.139066 c 0,-0.01484 -0.0563,-0.07113 -0.12508,-0.125081 -0.11337,-0.08891 -0.11589,-0.08638 -0.027,0.02699 0.0934,0.11906 0.15207,0.156922 0.15207,0.0981 z m -0.50033,-0.36126 c 0,-0.01698 -0.10453,-0.100046 -0.23229,-0.184595 l -0.2323,-0.153725 0.21443,0.184241 c 0.2199,0.188939 0.25016,0.207581 0.25016,0.154079 z m 0.0715,-0.142951 c 0,-0.01698 -0.10453,-0.100046 -0.2323,-0.184594 l -0.23229,-0.153725 0.21442,0.18424 c 0.2199,0.18894 0.25017,0.207582 0.25017,0.154079 z m -0.78623,-0.353491 c 0,-0.01484 -0.0563,-0.07113 -0.12508,-0.125082 -0.11336,-0.08891 -0.11589,-0.08638 -0.027,0.02699 0.0934,0.11906 0.15207,0.156923 0.15207,0.0981 z m 0.0715,-0.149039 c 0,-0.01819 -0.20103,-0.168946 -0.44672,-0.335012 -0.2457,-0.166066 -0.40258,-0.247674 -0.34863,-0.181352 0.11134,0.13686 0.0116,0.165919 -0.11954,0.03482 -0.0472,-0.04717 -0.0858,-0.06545 -0.0858,-0.0406 0,0.02484 0.10454,0.118467 0.2323,0.208059 0.15404,0.108017 0.19924,0.121696 0.1342,0.0406 -0.14694,-0.183171 -0.009,-0.142564 0.31252,0.09214 0.30612,0.223327 0.32164,0.232073 0.32164,0.181351 z m -0.92918,-0.642506 c 0,-0.01777 -0.15278,-0.136617 -0.33951,-0.264111 -0.18673,-0.127494 -0.29958,-0.182366 -0.25078,-0.121939 0.0488,0.06043 0.0721,0.126448 0.0519,0.146713 -0.0203,0.02027 0.0202,0.08163 0.09,0.136374 0.11531,0.0905 0.11791,0.08819 0.0287,-0.02555 -0.13037,-0.166245 -0.0175,-0.156422 0.20531,0.01787 0.19054,0.149042 0.21443,0.161368 0.21443,0.110647 z m -0.91981,-0.492468 c -0.0438,-0.05276 -0.0615,-0.113984 -0.0395,-0.136061 0.0221,-0.02208 -0.1149,-0.146009 -0.30439,-0.275403 -0.1895,-0.129395 -0.30461,-0.185822 -0.25581,-0.125395 0.0488,0.06043 0.0708,0.127811 0.0488,0.149741 -0.0219,0.02193 -5.7e-4,0.06415 0.0474,0.09381 0.0589,0.03641 0.0688,0.02411 0.0306,-0.03785 -0.0378,-0.06119 -0.0236,-0.08076 0.0426,-0.05869 0.0546,0.0182 0.0993,0.06794 0.0993,0.11053 0,0.04259 0.0293,0.104234 0.0651,0.136994 0.0384,0.03517 0.0417,0.01917 0.008,-0.03905 -0.0391,-0.06745 -0.0258,-0.08816 0.0421,-0.06552 0.0546,0.0182 0.0998,0.06258 0.10039,0.09862 0.001,0.0845 0.10266,0.244208 0.15483,0.244208 0.0222,0 0.004,-0.04316 -0.0393,-0.09592 z"
     id="path4221"
     inkscape:connector-curvature="0"
     transform="translate(-17,-17)" /><path
     style="fill:#07cca4;fill-opacity:1"
     d="m 261.97254,62.173397 c -1.13416,-0.817023 -2.16034,-1.543525 -2.2804,-1.614448 l -0.2183,-0.128951 0.0416,0.278611 c 0.0348,0.232789 0.0278,0.256439 -0.0425,0.1438 -0.0463,-0.07415 -0.25444,-0.375599 -0.46256,-0.669896 -0.20813,-0.294297 -0.36895,-0.543644 -0.35738,-0.554106 0.0211,-0.01906 5.32176,3.843818 5.44957,3.97137 0.27541,0.274843 -0.34729,-0.142151 -2.13001,-1.42638 z"
     id="path4223"
     inkscape:connector-curvature="0"
     transform="translate(-17,-17)" /><path
     style="fill:#07cca4;fill-opacity:1"
     d="m 240.76173,92.220892 c 0.28158,-0.266392 0.92216,-0.944841 1.2799,-1.355572 0.24311,-0.27912 -0.0727,0.107414 8.08192,-9.893323 4.02886,-4.940976 7.54388,-9.251652 7.81116,-9.57928 0.26728,-0.327629 0.58286,-0.728444 0.7013,-0.890702 0.90862,-1.2448 1.47393,-2.748874 1.63536,-4.35105 0.0439,-0.436095 0.0376,-1.314817 -0.0128,-1.768921 -0.33606,-3.029716 -2.13435,-5.621078 -4.84069,-6.975516 -0.96792,-0.484417 -2.02159,-0.79085 -3.07933,-0.89555 -0.39044,-0.03865 -1.47503,-0.03189 -1.86101,0.01159 -1.69575,0.191042 -3.23205,0.830166 -4.56546,1.89929 -0.53541,0.429294 -0.88042,0.810254 -2.41117,2.662408 -0.80349,0.972202 -5.80834,7.100313 -6.69904,8.202543 -0.046,0.05688 -0.0768,0.11021 -0.0684,0.11852 0.008,0.0083 -0.29151,0.405269 -0.66627,0.882131 -0.59968,0.763073 -1.46217,1.866805 -2.22766,2.85074 -0.37625,0.48362 -1.51718,1.946722 -1.596,2.046675 -0.0385,0.04877 -0.24713,0.316098 -0.46371,0.594072 -0.21658,0.277973 -0.44299,0.56795 -0.50313,0.644393 -0.0601,0.07644 -0.42077,0.536993 -0.8014,1.023447 -0.71076,0.908364 -1.26046,1.584695 -1.31577,1.618882 -0.0218,0.0135 -0.0264,0.0066 -0.0152,-0.02271 0.009,-0.02313 0.0114,-0.04205 0.006,-0.04205 -0.0167,0 -0.48463,0.631748 -0.77707,1.049079 -0.29085,0.415047 -0.54297,0.798117 -0.73158,1.111532 l -0.12165,0.202163 -5e-5,-13.412213 -5e-5,-13.412213 26.82443,0 26.82442,0 0,10.739878 c 0,5.906933 -0.007,10.739879 -0.0151,10.739879 -0.008,0 -2.91658,-2.123186 -6.46288,-4.71819 -9.84727,-7.205749 -14.82777,-10.848167 -15.69674,-11.479602 -0.23628,-0.17169 -0.46882,-0.341534 -0.51677,-0.377433 -0.11028,-0.08257 -0.0868,-0.04423 0.14579,0.237974 0.24151,0.293033 0.25823,0.308523 0.14284,0.132288 -0.0525,-0.08013 -0.0908,-0.150054 -0.0853,-0.155393 0.006,-0.0053 0.14661,0.08812 0.31339,0.207689 1.19305,0.85531 4.1831,3.036127 4.78872,3.492694 0.38584,0.290875 0.48001,0.398547 0.1837,0.210043 -0.1304,-0.08296 -0.84079,-0.573396 -1.06816,-0.737427 -0.0486,-0.03509 -0.0714,-0.046 -0.0505,-0.02424 0.0208,0.02176 0.98744,0.725266 2.14798,1.563344 3.01417,2.176669 9.68047,7.021415 15.29485,11.115551 l 0.87814,0.640363 0,8.184288 0,8.184291 -20.34831,0 -20.34831,0 0.29001,-0.274363 z m 6.80033,-7.730006 c 0.0314,-0.04008 0.0305,-0.04097 -0.01,-0.0095 -0.0421,0.03301 -0.0555,0.05376 -0.0347,0.05376 0.005,0 0.0251,-0.0199 0.0442,-0.04422 z m 0.11209,-0.138986 0.0742,-0.08213 -0.0821,0.07422 c -0.0452,0.04082 -0.0821,0.07778 -0.0821,0.08213 0,0.01952 0.0208,0.0023 0.09,-0.07422 z m 0.34785,-0.410643 c 0.0571,-0.06949 0.0773,-0.103608 0.0449,-0.07581 -0.0324,0.0278 -0.10552,0.107399 -0.16258,0.176893 -0.0571,0.06949 -0.0773,0.103608 -0.0449,0.07581 0.0324,-0.0278 0.10552,-0.107398 0.16258,-0.176892 z m 1.62072,-1.945813 c 2.25119,-2.703513 4.21843,-5.11754 5.95149,-7.303117 0.85256,-1.075174 1.03581,-1.312449 0.89777,-1.162434 -0.14344,0.155887 -7.71115,9.423965 -8.18141,10.019675 -0.39578,0.50135 0.17688,-0.166726 1.33215,-1.554124 z M 229.54119,78.48919 c 0.0372,-0.05082 0.0433,-0.06847 0.016,-0.0463 -0.0414,0.03365 -0.10409,0.12843 -0.0849,0.12843 0.005,0 0.0358,-0.03696 0.0689,-0.08213 z m 0.25301,-0.334651 c 0.0606,-0.07297 0.0607,-0.07387 0.004,-0.02555 -0.0325,0.02754 -0.0709,0.07295 -0.0852,0.1009 -0.0275,0.05367 -0.019,0.04586 0.0816,-0.07535 z m 0.23066,-0.297107 c 0.0409,-0.05827 0.0446,-0.07172 0.013,-0.0463 -0.045,0.03616 -0.10422,0.12843 -0.0824,0.12843 0.007,0 0.0377,-0.03696 0.0694,-0.08213 z m 0.34702,-0.446464 c 0.0851,-0.110043 0.15478,-0.208554 0.15478,-0.218914 0,-0.01036 -0.0739,0.07498 -0.16426,0.189649 -0.0903,0.114665 -0.16426,0.213177 -0.16426,0.218913 0,0.02863 0.0314,-0.0056 0.17374,-0.189648 z m 0.43598,-0.564065 c 0.0398,-0.07429 0.007,-0.05002 -0.0681,0.05026 -0.058,0.07761 -0.0604,0.08567 -0.0133,0.04451 0.0316,-0.02764 0.0683,-0.07028 0.0814,-0.09476 z m 0.21316,-0.278256 0.0742,-0.08213 -0.0821,0.07422 c -0.0452,0.04082 -0.0821,0.07778 -0.0821,0.08213 0,0.01952 0.0208,0.0023 0.09,-0.07422 z m 0.26375,-0.334832 c 0.0326,-0.03475 0.0537,-0.06318 0.0467,-0.06318 -0.007,0 -0.0393,0.02843 -0.072,0.06318 -0.0326,0.03475 -0.0537,0.06318 -0.0467,0.06318 0.007,0 0.0393,-0.02843 0.072,-0.06318 z m 0.25649,-0.321206 c 0.0312,-0.04378 0.0436,-0.07153 0.0276,-0.06165 -0.016,0.0099 -0.0546,0.05379 -0.0858,0.09757 -0.0312,0.04378 -0.0436,0.07153 -0.0276,0.06165 0.016,-0.0099 0.0546,-0.05379 0.0857,-0.09757 z m 0.26313,-0.340147 c 0.0389,-0.05102 0.0579,-0.08479 0.0421,-0.07505 -0.0324,0.01999 -0.14175,0.167817 -0.12419,0.167817 0.006,0 0.0432,-0.04175 0.0821,-0.09277 z m 0.2643,-0.337588 c 0.0763,-0.107118 0.0444,-0.09302 -0.04,0.01772 -0.0389,0.05102 -0.0579,0.08479 -0.0421,0.07505 0.0158,-0.0097 0.0527,-0.0515 0.0821,-0.09277 z m 0.23952,-0.302479 c 0.0252,-0.0278 0.0401,-0.05054 0.0331,-0.05054 -0.007,0 -0.0332,0.02274 -0.0584,0.05054 -0.0251,0.0278 -0.0401,0.05054 -0.0331,0.05054 0.007,0 0.0332,-0.02274 0.0584,-0.05054 z m 0.27798,-0.353785 c 0.0252,-0.0278 0.0401,-0.05054 0.0331,-0.05054 -0.007,0 -0.0332,0.02274 -0.0584,0.05054 -0.0252,0.0278 -0.0401,0.05054 -0.0331,0.05054 0.007,0 0.0332,-0.02274 0.0584,-0.05054 z m 0.72342,-0.928683 c 0.0314,-0.04008 0.0305,-0.04097 -0.01,-0.0095 -0.0243,0.01907 -0.0442,0.03897 -0.0442,0.04422 0,0.0208 0.0207,0.0074 0.0538,-0.03468 z m 23.47579,-0.465256 c 0.0791,-0.111103 0.0367,-0.08461 -0.0571,0.03566 -0.0461,0.05907 -0.0636,0.09135 -0.0389,0.07174 0.0247,-0.01961 0.0679,-0.06794 0.096,-0.107398 z m -22.94511,-0.217042 c 0.0314,-0.04008 0.0305,-0.04097 -0.01,-0.0095 -0.0243,0.01908 -0.0442,0.03897 -0.0442,0.04422 0,0.0208 0.0207,0.0074 0.0538,-0.03468 z m 1.69311,-2.198517 c 0.0314,-0.04008 0.0305,-0.04097 -0.01,-0.0095 -0.0243,0.01908 -0.0442,0.03898 -0.0442,0.04422 0,0.0208 0.0208,0.0074 0.0538,-0.03468 z m 0.22743,-0.303243 c 0.0314,-0.04008 0.0305,-0.04097 -0.01,-0.0095 -0.0243,0.01908 -0.0442,0.03898 -0.0442,0.04422 0,0.0208 0.0208,0.0074 0.0538,-0.03468 z m 0.19949,-0.259785 c 0.0763,-0.107118 0.0444,-0.09302 -0.04,0.01772 -0.0389,0.05102 -0.0579,0.08479 -0.0421,0.07505 0.0158,-0.0097 0.0527,-0.0515 0.0821,-0.09277 z m 0.25488,-0.341055 c 0.058,-0.07681 0.0999,-0.145186 0.0931,-0.151945 -0.007,-0.0068 -0.0602,0.05609 -0.11887,0.139657 -0.13371,0.190616 -0.11549,0.199321 0.0257,0.01229 z m -0.23016,-1.008421 c 0,-0.006 -0.037,-0.03537 -0.0821,-0.06526 l -0.0821,-0.05435 0.0758,0.06514 c 0.0777,0.0668 0.0884,0.07339 0.0884,0.05447 z m -1.66784,-1.162434 c 0,-0.006 -0.037,-0.03537 -0.0821,-0.06526 l -0.0821,-0.05435 0.0758,0.06514 c 0.0777,0.0668 0.0884,0.07339 0.0884,0.05448 z m -1.64257,-1.13579 c 0,-0.0052 -0.0199,-0.02515 -0.0442,-0.04422 -0.0401,-0.03143 -0.041,-0.03054 -0.01,0.0095 0.033,0.04209 0.0538,0.05548 0.0538,0.03468 z m -3.33568,-2.324868 c 0,-0.0052 -0.0199,-0.02515 -0.0442,-0.04422 -0.0401,-0.03143 -0.041,-0.03054 -0.01,0.0095 0.033,0.04209 0.0538,0.05548 0.0538,0.03468 z m 31.04867,-1.0834 c -0.007,-0.01737 -0.0128,-0.0032 -0.0128,0.03159 0,0.03475 0.006,0.04896 0.0128,0.03159 0.007,-0.01737 0.007,-0.0458 0,-0.06318 z m -32.6407,-0.02868 c 0,-0.0054 -0.0313,-0.02877 -0.0695,-0.05204 l -0.0695,-0.04231 0.0596,0.05204 c 0.0582,0.05078 0.0793,0.06204 0.0793,0.04231 z m 32.57453,-0.299061 c -0.0563,-0.28815 -0.24406,-0.809444 -0.44389,-1.232699 -0.10827,-0.229328 -0.23486,-0.519304 -0.2813,-0.644392 -0.0489,-0.131631 -0.0779,-0.187515 -0.069,-0.13267 0.008,0.05212 0.009,0.09476 2.5e-4,0.09476 -0.008,0 -0.0682,-0.0796 -0.13287,-0.176892 -0.12359,-0.185864 -0.18143,-0.244521 -0.081,-0.08213 0.37173,0.600982 0.68218,1.286632 0.90904,2.007662 0.0599,0.190377 0.11364,0.341399 0.11944,0.335604 0.006,-0.0058 -0.003,-0.08196 -0.0205,-0.169248 l -1.3e-4,0 z m 2.47538,-0.05591 c 0,-0.006 -0.037,-0.03537 -0.0821,-0.06526 l -0.0821,-0.05435 0.0758,0.06514 c 0.0777,0.0668 0.0884,0.07339 0.0884,0.05447 z m -0.17689,-0.126352 c 0,-0.006 -0.037,-0.03537 -0.0821,-0.06526 l -0.0821,-0.05435 0.0758,0.06514 c 0.0777,0.0668 0.0884,0.07339 0.0884,0.05447 z m -0.17689,-0.124978 c 0,-0.0052 -0.0199,-0.02515 -0.0442,-0.04422 -0.0401,-0.03143 -0.041,-0.03054 -0.01,0.0095 0.033,0.04209 0.0538,0.05548 0.0538,0.03468 z m -0.17689,-0.126351 c 0,-0.0052 -0.0199,-0.02515 -0.0442,-0.04422 -0.0401,-0.03143 -0.041,-0.03054 -0.01,0.0095 0.033,0.04209 0.0538,0.05548 0.0538,0.03468 z m -0.1769,-0.126352 c 0,-0.0052 -0.0199,-0.02515 -0.0442,-0.04422 -0.0401,-0.03143 -0.041,-0.03054 -0.01,0.0095 0.033,0.04209 0.0538,0.05548 0.0538,0.03468 z m -0.17689,-0.126351 c 0,-0.0052 -0.0199,-0.02515 -0.0442,-0.04422 -0.0401,-0.03143 -0.041,-0.03054 -0.01,0.0095 0.033,0.04209 0.0538,0.05548 0.0538,0.03468 z m -0.17689,-0.126352 c 0,-0.0052 -0.0199,-0.02515 -0.0442,-0.04422 -0.0401,-0.03143 -0.041,-0.03054 -0.01,0.0095 0.033,0.04209 0.0538,0.05548 0.0538,0.03468 z m -0.35378,-0.252703 c 0,-0.0052 -0.0199,-0.02515 -0.0442,-0.04422 -0.0401,-0.03143 -0.041,-0.03054 -0.01,0.0095 0.033,0.04209 0.0538,0.05548 0.0538,0.03468 z m -0.1769,-0.126351 c 0,-0.0052 -0.0199,-0.02515 -0.0442,-0.04422 -0.0401,-0.03143 -0.041,-0.03054 -0.01,0.0095 0.033,0.04209 0.0538,0.05548 0.0538,0.03468 z m -0.17689,-0.126352 c 0,-0.0052 -0.0199,-0.02515 -0.0442,-0.04422 -0.0401,-0.03143 -0.041,-0.03054 -0.01,0.0095 0.033,0.04209 0.0538,0.05548 0.0538,0.03468 z m -0.17689,-0.126351 c 0,-0.0052 -0.0199,-0.02515 -0.0442,-0.04422 -0.0401,-0.03143 -0.041,-0.03054 -0.01,0.0095 0.033,0.04209 0.0538,0.05548 0.0538,0.03468 z m -0.17689,-0.126352 c 0,-0.0052 -0.0199,-0.02515 -0.0442,-0.04422 -0.0401,-0.03143 -0.041,-0.03054 -0.01,0.0095 0.033,0.04209 0.0538,0.05548 0.0538,0.03468 z m -0.1769,-0.126351 c 0,-0.0052 -0.0199,-0.02515 -0.0442,-0.04422 -0.0401,-0.03143 -0.041,-0.03054 -0.01,0.0095 0.033,0.04209 0.0538,0.05548 0.0538,0.03468 z m -0.17689,-0.127725 c 0,-0.006 -0.037,-0.03537 -0.0821,-0.06526 l -0.0821,-0.05435 0.0758,0.06514 c 0.0777,0.0668 0.0884,0.07339 0.0884,0.05447 z m -0.2527,-0.176892 c 0,-0.006 -0.037,-0.03537 -0.0821,-0.06526 l -0.0821,-0.05435 0.0758,0.06514 c 0.0777,0.0668 0.0884,0.07339 0.0884,0.05448 z m -0.54331,-0.34287 c 0.009,-0.0139 0.004,-0.02527 -0.0112,-0.02527 -0.0147,0 -0.0268,0.01137 -0.0268,0.02527 0,0.0139 0.005,0.02527 0.0111,0.02527 0.006,0 0.0182,-0.01137 0.0268,-0.02527 z"
     id="path4225"
     inkscape:connector-curvature="0"
     transform="translate(-17,-17)" /><path
     style="fill:#07cca4;fill-opacity:1"
     d="m 281.00408,75.997455 c -0.45984,-0.351382 -12.34712,-8.992612 -16.77264,-12.192559 -0.24555,-0.177549 -0.29903,-0.234918 -0.14449,-0.155001 0.0737,0.03811 0.0803,0.0383 0.0663,0.0019 -0.009,-0.02225 -0.009,-0.04046 -0.002,-0.04046 0.007,0 2.06826,1.503362 4.57945,3.340804 2.51119,1.837442 6.19763,4.534176 8.19209,5.992742 1.99446,1.458565 3.76559,2.753819 3.93585,2.878341 0.27553,0.201519 0.35165,0.272559 0.29061,0.27123 -0.0104,-2.27e-4 -0.0758,-0.04386 -0.14531,-0.09696 z"
     id="path4227"
     inkscape:connector-curvature="0"
     transform="translate(-17,-17)" /><path
     style="fill:#07cca4;fill-opacity:1"
     d="m 167.62149,93.823792 c 0.0739,-0.01879 3.8537,-0.682155 4.28551,-0.752115 0.17879,-0.02897 0.20662,-0.04765 0.15807,-0.106154 -0.0968,-0.116604 -0.0108,-0.08186 0.28749,0.116203 0.32192,0.213739 0.29326,0.257928 -0.17128,0.264113 -0.36424,0.0048 -2.41288,0.226894 -3.52371,0.381923 -0.80086,0.111771 -1.26836,0.155101 -1.03608,0.09603 z"
     id="path4229"
     inkscape:connector-curvature="0"
     transform="translate(-17,-17)" /><path
     style="fill:#07cca4;fill-opacity:1"
     d="m 178.74258,76.952337 c -1.48598,-1.06495 -2.71032,-1.961921 -2.72077,-1.99327 -0.0333,-0.09992 0.0805,-0.06294 0.58419,0.189823 0.56035,0.281192 1.19584,0.517624 1.85645,0.690689 l 0.45487,0.119164 -0.38685,-0.02946 c -0.49257,-0.03751 -0.76249,0.0082 -0.74078,0.12547 0.018,0.09699 0.52193,0.482839 2.41126,1.846101 0.72556,0.523537 1.31921,0.961345 1.31921,0.972907 0,0.01156 -0.0171,0.01963 -0.0379,0.01794 -0.0208,-0.0017 -1.2537,-0.874407 -2.73967,-1.939357 z"
     id="path4231"
     inkscape:connector-curvature="0"
     transform="translate(-17,-17)" /><path
     style="fill:#07cca4;fill-opacity:1"
     d="m 133.99613,68.010954 c -0.47483,-0.318156 -6.44097,-4.201457 -9.62744,-6.266405 -4.28247,-2.775194 -8.32417,-5.360224 -8.65941,-5.538468 -0.0649,-0.03452 -0.12824,-0.05256 -0.14071,-0.0401 -0.0642,0.06424 2.00671,2.669834 5.40427,6.799452 0.83064,1.009623 1.49949,1.846445 1.48634,1.859604 -0.0132,0.01316 -1.78096,-2.084323 -3.92844,-4.661071 -2.14748,-2.576748 -4.05245,-4.829338 -4.23327,-5.005756 -0.18081,-0.176418 -0.31245,-0.320759 -0.29252,-0.320759 0.038,0 20.28487,13.267933 20.36825,13.347463 0.12581,0.119998 -0.0802,0.02496 -0.37707,-0.17396 z"
     id="path4233"
     inkscape:connector-curvature="0"
     transform="translate(-17,-17)" /><path
     style="fill:#07cca4;fill-opacity:1"
     d="m 121.71531,90.235595 c -1.16743,-0.747265 -1.51622,-0.985398 -1.51622,-1.035174 0,-0.02988 0.0171,-0.04577 0.0379,-0.03531 1.38218,0.693205 1.96183,0.919025 2.82722,1.101422 l 0.44529,0.09385 -0.70112,0.0036 c -0.61725,0.0031 -0.6936,0.01263 -0.63821,0.07937 0.10874,0.131016 -0.0114,0.07618 -0.45486,-0.207711 z"
     id="path4235"
     inkscape:connector-curvature="0"
     transform="translate(-17,-17)" /><path
     style="fill:#07cca4;fill-opacity:1"
     d="m 92.60818,73.537474 0,-37.955994 40.2614,0 40.26141,0 -0.0745,0.113717 c -0.43404,0.662609 -0.59108,0.933491 -0.82227,1.418386 -0.50652,1.062391 -0.74605,1.994714 -0.83567,3.252679 -0.0362,0.508401 -0.0473,5.064848 -0.0345,14.167945 0.0208,14.753039 -0.002,13.6708 0.31959,14.857685 0.57916,2.134463 2.04896,4.092983 3.9248,5.229826 0.23287,0.141135 0.39256,0.271708 0.39384,0.322043 0.001,0.04656 0.1547,0.190178 0.34115,0.319143 0.18645,0.128966 0.46977,0.329221 0.6296,0.445013 0.15984,0.115791 0.29061,0.200039 0.29061,0.18722 0,-0.01282 -0.27292,-0.22277 -0.60649,-0.466556 -0.33356,-0.243786 -0.60648,-0.46082 -0.60648,-0.4823 0,-0.0425 0.24801,0.05296 0.60648,0.233432 0.12509,0.06297 0.35821,0.155507 0.51805,0.205631 0.15983,0.05012 0.2906,0.109009 0.2906,0.130857 0,0.02185 0.0341,0.02663 0.0758,0.01063 0.0417,-0.016 0.0758,-0.0064 0.0758,0.02124 0,0.02768 0.0284,0.04928 0.0632,0.04799 0.20034,-0.0074 0.29364,0.01832 0.26051,0.07193 -0.0218,0.03523 -0.0139,0.04467 0.0198,0.02381 0.0307,-0.019 0.29011,0.01644 0.57639,0.07874 0.4527,0.09852 0.67192,0.113524 1.68294,0.115176 1.03363,0.0017 1.22403,-0.01127 1.71838,-0.116971 2.28217,-0.48797 4.17942,-1.717365 5.51026,-3.570593 0.63404,-0.882921 1.2229,-2.215209 1.46317,-3.31041 0.0536,-0.244167 0.0989,-0.810694 0.12748,-1.592029 0.056,-1.533032 0.0584,-25.307631 0.003,-26.735979 -0.0254,-0.649656 -0.0746,-1.2168 -0.12699,-1.462095 -0.21446,-1.004213 -0.74998,-2.277106 -1.30516,-3.102304 -0.19222,-0.285706 -0.25548,-0.414842 -0.19776,-0.403728 0.19887,0.0383 1.02445,1.403234 1.37676,2.27622 0.0644,0.159494 0.12457,0.282444 0.1338,0.273222 0.0341,-0.03412 -0.14536,-0.468834 -0.51951,-1.258325 -0.39848,-0.840808 -0.54408,-1.199086 -0.50371,-1.239453 0.0724,-0.0724 2.65226,1.670725 9.67005,6.533762 l 2.33391,1.6173 0.001,24.098215 c 9.1e-4,19.265653 -0.0115,24.090492 -0.062,24.059707 -0.13526,-0.08245 -13.74933,-9.828382 -17.8282,-12.762714 -0.26407,-0.189975 -0.49463,-0.339698 -0.51234,-0.332719 -0.0177,0.007 -0.0766,-0.04218 -0.13093,-0.109231 -0.0626,-0.07734 -0.11122,-0.101715 -0.13288,-0.06667 -0.0188,0.03039 -0.011,0.06954 0.0172,0.087 0.0282,0.01746 0.0514,0.01651 0.0514,-0.0021 0,-0.01862 0.0398,0.01214 0.0885,0.06835 0.0486,0.05621 2.65844,1.939015 5.79954,4.184007 3.14109,2.244991 7.28606,5.20828 9.21102,6.585081 l 3.49994,2.503277 0,2.269409 c 0,1.950286 -0.0102,2.265498 -0.0725,2.241592 -0.23571,-0.09045 -1.67289,-0.527118 -2.5873,-0.786113 -5.34076,-1.512716 -10.67662,-2.370537 -16.40924,-2.638043 -1.47498,-0.06883 -6.12098,-0.03455 -7.32565,0.05404 -0.79008,0.05811 -0.79706,0.0577 -0.96027,-0.05566 -0.15128,-0.105059 -0.15717,-0.105842 -0.0738,-0.0098 0.0823,0.09475 0.083,0.107303 0.008,0.135904 -0.0452,0.01734 -0.20293,0.03152 -0.35057,0.03152 -0.31276,0 -1.29696,0.0999 -2.75013,0.279156 -0.56676,0.06991 -1.1126,0.115055 -1.21297,0.100328 -0.14574,-0.02139 -0.16214,-0.01642 -0.0814,0.02468 0.0831,0.04232 0.0696,0.04787 -0.0758,0.0312 -0.22135,-0.02536 -2.08971,0.311254 -4.88461,0.880043 -4.71279,0.959094 -9.01687,2.110565 -12.48847,3.341037 -2.09009,0.740819 -3.67447,1.392798 -6.1283,2.521837 -2.21831,1.02067 -3.48226,1.56527 -3.63263,1.56521 -0.20569,0 -4.54793,-2.692445 -14.35983,-8.903688 -2.34887,-1.486914 -4.32513,-2.717432 -4.39168,-2.734489 -0.0666,-0.01706 -0.10066,-0.01308 -0.0758,0.0088 0.0249,0.02191 2.69478,1.719537 5.93317,3.772492 3.23839,2.052954 7.35492,4.663644 9.14785,5.801535 1.79292,1.13789 3.34766,2.12457 3.45497,2.19262 l 0.19511,0.12374 -0.82686,0.45792 c -4.30288,2.38291 -7.91317,4.93995 -12.02574,8.51736 l -0.18883,0.16426 -17.56746,0 -17.56745,0 0,-37.955996 z m 75.87504,20.132551 c -0.0342,-0.01385 -0.10244,-0.01469 -0.15162,-0.0019 -0.0492,0.01282 -0.0212,0.02414 0.0622,0.02518 0.0834,0.001 0.12362,-0.0095 0.0894,-0.0233 l 0,-6e-6 z m 0.30325,-0.05054 c -0.0342,-0.01385 -0.10245,-0.01469 -0.15163,-0.0019 -0.0492,0.01282 -0.0212,0.02414 0.0622,0.02517 0.0834,0.001 0.12363,-0.0095 0.0894,-0.0233 l 0,-5e-6 z m 0.25174,-0.05086 c -0.0348,-0.01402 -0.0916,-0.01402 -0.12635,0 -0.0348,0.01402 -0.006,0.02549 0.0632,0.02549 0.0695,0 0.0979,-0.01147 0.0632,-0.02549 z m 0.30324,-0.05054 c -0.0347,-0.01402 -0.0916,-0.01402 -0.12635,0 -0.0348,0.01402 -0.006,0.02549 0.0632,0.02549 0.0695,0 0.0979,-0.01147 0.0632,-0.02549 z m 0.25271,-0.05054 c -0.0347,-0.01402 -0.0916,-0.01402 -0.12636,0 -0.0347,0.01402 -0.006,0.02549 0.0632,0.02549 0.0695,0 0.0979,-0.01147 0.0632,-0.02549 z m 0.30324,-0.05054 c -0.0348,-0.01402 -0.0916,-0.01402 -0.12635,0 -0.0348,0.01402 -0.006,0.02549 0.0632,0.02549 0.0695,0 0.0979,-0.01147 0.0632,-0.02549 z m 0.30324,-0.05054 c -0.0347,-0.01402 -0.0916,-0.01402 -0.12635,0 -0.0348,0.01402 -0.006,0.02549 0.0632,0.02549 0.0695,0 0.0979,-0.01147 0.0632,-0.02549 z m 0.30421,-0.05022 c -0.0342,-0.01385 -0.10245,-0.01469 -0.15163,-0.0019 -0.0492,0.01282 -0.0212,0.02414 0.0622,0.02517 0.0834,0.001 0.12363,-0.0095 0.0894,-0.0233 l 0,-5e-6 z m 0.25174,-0.05086 c -0.0348,-0.01402 -0.0916,-0.01402 -0.12635,0 -0.0347,0.01402 -0.006,0.02549 0.0632,0.02549 0.0695,0 0.0979,-0.01147 0.0632,-0.02549 z m 0.30324,-0.05054 c -0.0347,-0.01402 -0.0916,-0.01402 -0.12635,0 -0.0348,0.01402 -0.006,0.02549 0.0632,0.02549 0.0695,0 0.0979,-0.01147 0.0632,-0.02549 z m 0.30325,-0.05054 c -0.0348,-0.01402 -0.0916,-0.01402 -0.12636,0 -0.0347,0.01402 -0.006,0.02549 0.0632,0.02549 0.0695,0 0.0979,-0.01147 0.0632,-0.02549 z m 0.3042,-0.05022 c -0.0342,-0.01385 -0.10245,-0.01469 -0.15162,-0.0019 -0.0492,0.01282 -0.0212,0.02414 0.0622,0.02517 0.0834,0.001 0.12363,-0.0095 0.0894,-0.0233 l 0,-5e-6 z m 0.25174,-0.05086 c -0.0347,-0.01402 -0.0916,-0.01402 -0.12635,0 -0.0347,0.01402 -0.006,0.02549 0.0632,0.02549 0.0695,0 0.0979,-0.01147 0.0632,-0.02549 z m 0.18953,-0.138042 c 0,-0.02461 0.54578,0.33417 -15.7434,-10.349344 -1.25088,-0.820409 -4.07104,-2.670236 -6.26703,-4.110726 -2.19599,-1.440491 -5.01616,-3.290329 -6.26704,-4.110753 -1.25088,-0.820423 -3.79812,-2.491836 -5.66055,-3.714249 -4.19904,-2.756072 -3.90606,-2.568889 -3.93855,-2.51631 -0.015,0.02431 1.50182,1.043776 3.37076,2.265488 3.94427,2.578341 14.39899,9.433715 26.14134,17.141412 4.53097,2.974133 8.26655,5.409058 8.30129,5.410943 0.0348,0.0019 0.0632,-0.0055 0.0632,-0.01646 z M 125.4343,90.364564 c 1.17384,-0.101481 2.09574,-0.350156 3.03244,-0.81797 1.83411,-0.916018 3.23617,-2.336487 4.09282,-4.146576 0.97377,-2.05755 1.11823,-4.43805 0.4009,-6.606321 -0.30856,-0.932709 -0.90543,-2.029632 -1.48502,-2.729193 -4.83145,-5.831492 -17.1709,-20.597362 -17.4336,-20.861732 -2.29179,-2.306361 -5.78278,-3.151748 -8.90857,-2.157323 -0.7409,0.235705 -1.85975,0.790041 -2.46751,1.222524 -0.61598,0.438333 -1.64736,1.469718 -2.0857,2.085696 -0.648228,0.910941 -1.218503,2.229287 -1.453839,3.36095 -0.501997,2.413952 0.06709,5.040943 1.514359,6.990508 0.34095,0.459289 17.13937,20.630867 17.51273,21.029329 0.35735,0.381379 1.09031,0.985633 1.5699,1.294239 0.42039,0.270508 0.98555,0.59417 0.98555,0.564422 0,-0.0094 -0.10373,-0.09163 -0.23051,-0.182674 -0.12678,-0.09104 -0.22137,-0.174673 -0.21021,-0.185838 0.0112,-0.01116 0.30253,0.113949 0.64747,0.278029 0.79567,0.378489 1.47031,0.628195 2.01703,0.746571 l 0.4296,0.09302 -0.60649,0.02774 c -0.44263,0.02024 -0.24464,0.03034 0.73284,0.03738 0.73663,0.0053 1.61224,-0.01395 1.94581,-0.04278 z m 7.75494,-11.845372 c -0.14481,-0.387053 -0.17084,-0.337031 -0.0315,0.06061 0.0607,0.173272 0.11691,0.295411 0.1249,0.271422 0.008,-0.02399 -0.034,-0.173406 -0.0934,-0.332035 z m 47.98781,0.12861 c 0.0152,-0.02465 -0.004,-0.0714 -0.0435,-0.103902 -0.0572,-0.04749 -0.0678,-0.04117 -0.0539,0.03218 0.01,0.0502 0.0191,0.09695 0.0212,0.103901 0.008,0.02769 0.05,0.01015 0.0761,-0.03218 z m -0.20129,-0.212206 c -0.0163,-0.02633 -0.0511,-0.03456 -0.0775,-0.01829 -0.0263,0.01627 -0.0346,0.05113 -0.0183,0.07746 0.0163,0.02633 0.0511,0.03456 0.0775,0.01828 0.0263,-0.01627 0.0346,-0.05113 0.0183,-0.07746 z m -0.15249,-0.0405 c 0.0152,-0.02465 -0.004,-0.0714 -0.0435,-0.103902 -0.0572,-0.04749 -0.0678,-0.04117 -0.0539,0.03218 0.01,0.0502 0.0191,0.09695 0.0212,0.103901 0.008,0.02769 0.05,0.01015 0.0761,-0.03218 z m -0.2013,-0.212206 c -0.0163,-0.02633 -0.0511,-0.03456 -0.0775,-0.01829 -0.0263,0.01627 -0.0345,0.05113 -0.0183,0.07746 0.0163,0.02633 0.0511,0.03456 0.0775,0.01828 0.0263,-0.01627 0.0346,-0.05113 0.0183,-0.07746 z m -0.19408,-0.07003 c -0.006,-0.04089 -0.025,-0.08846 -0.0423,-0.105712 -0.0243,-0.02429 -0.0196,0.07826 0.008,0.167425 0.0149,0.04878 0.0433,-0.0019 0.0345,-0.06171 z m -0.1597,-0.182671 c -0.0163,-0.02633 -0.0511,-0.03456 -0.0775,-0.01829 -0.0263,0.01627 -0.0346,0.05113 -0.0183,0.07746 0.0163,0.02633 0.0511,0.03456 0.0775,0.01829 0.0263,-0.01627 0.0346,-0.05113 0.0183,-0.07746 z m -0.19408,-0.07003 c -0.006,-0.04089 -0.025,-0.08846 -0.0423,-0.105712 -0.0243,-0.02429 -0.0196,0.07826 0.008,0.167425 0.0149,0.04878 0.0433,-0.0019 0.0345,-0.06171 z m -0.20216,-0.151621 c -0.006,-0.04089 -0.025,-0.08846 -0.0423,-0.105713 -0.0243,-0.02429 -0.0196,0.07826 0.008,0.167426 0.0149,0.04878 0.0433,-0.0019 0.0345,-0.06171 z m -0.1592,-0.124322 c 0.016,-0.02588 0.01,-0.05899 -0.0139,-0.07359 -0.0236,-0.0146 -0.0429,0.0066 -0.0429,0.04705 0,0.08522 0.0159,0.09267 0.0568,0.02654 z m -1.18554,-0.780684 c 0,-0.0105 -0.0398,-0.0503 -0.0884,-0.08845 -0.0802,-0.06287 -0.082,-0.06108 -0.0191,0.01908 0.066,0.08419 0.10753,0.110961 0.10753,0.06936 z m -0.35379,-0.252703 c 0,-0.01049 -0.0398,-0.05029 -0.0884,-0.08845 -0.0802,-0.06287 -0.082,-0.06108 -0.0191,0.01908 0.066,0.08419 0.10753,0.110961 0.10753,0.06936 z m -0.20216,-0.154369 c 0,-0.012 -0.0739,-0.07074 -0.16426,-0.130528 l -0.16425,-0.108699 0.15162,0.130277 c 0.15549,0.133601 0.17689,0.146783 0.17689,0.10895 z m -0.35378,-0.252703 c 0,-0.01201 -0.0739,-0.07074 -0.16426,-0.130528 l -0.16426,-0.108699 0.15162,0.130277 c 0.15549,0.133601 0.1769,0.146783 0.1769,0.10895 z m 4.59919,-0.172026 c 0.50468,-0.105381 1.49015,-0.405013 1.45328,-0.441874 -0.0119,-0.01186 -0.15606,0.02484 -0.32046,0.08155 -0.97082,0.334884 -1.99572,0.476996 -3.12917,0.433887 -0.44476,-0.01692 -0.96786,-0.06178 -1.16244,-0.09969 -0.23894,-0.04656 -0.48502,-0.05733 -0.75811,-0.03318 l -0.40432,0.03575 0.42959,0.01043 c 0.23628,0.0057 0.64566,0.04225 0.90974,0.08115 0.69778,0.102772 2.34379,0.06523 2.98189,-0.06801 z m 2.02163,-0.665335 c 0.0973,-0.05326 0.15414,-0.09684 0.12635,-0.09684 -0.0278,0 -0.13015,0.04358 -0.22744,0.09684 -0.0973,0.05326 -0.15414,0.09685 -0.12635,0.09685 0.0278,0 0.13014,-0.04358 0.22744,-0.09685 z m 0.58085,-0.302665 c 0.0177,-0.02865 -0.003,-0.03712 -0.0476,-0.01986 -0.0875,0.0336 -0.10357,0.06982 -0.0309,0.06982 0.0262,0 0.0614,-0.02248 0.0784,-0.04996 z m -56.5293,-3.151533 c 0,-0.0096 -0.0512,-0.06076 -0.11372,-0.113716 l -0.11372,-0.09628 0.0963,0.113717 c 0.0905,0.106865 0.13116,0.136724 0.13116,0.09628 z m -0.61468,-0.753307 c -1.3061,-1.620718 -2.58619,-3.180458 -5.18487,-6.317576 -0.31661,-0.382213 -0.6006,-0.694933 -0.63108,-0.694933 -0.0305,0 -0.0402,-0.01521 -0.0216,-0.0338 0.0497,-0.04973 -0.12246,-0.222134 -0.18393,-0.184146 -0.0315,0.01946 -0.0402,7.08e-4 -0.0219,-0.04698 0.0286,-0.0745 -0.0771,-0.213187 -0.19017,-0.249506 -0.0278,-0.0089 -0.0509,-0.04158 -0.0513,-0.07256 -10e-4,-0.07432 -0.1327,-0.231385 -0.16604,-0.198037 -0.0143,0.01433 -0.0609,-0.0022 -0.10354,-0.03668 -0.0426,-0.03451 0.31974,0.414871 0.80523,0.998615 4.98411,5.992794 6.12074,7.353658 6.142,7.353658 0.0136,0 -0.16315,-0.233118 -0.39277,-0.518041 z m 61.69279,-2.174928 c 0.0184,-0.200605 0.0125,-0.42012 -0.0131,-0.487811 -0.0403,-0.106739 -0.0508,-0.08611 -0.0792,0.155425 -0.018,0.153174 -0.0894,0.502027 -0.15874,0.775229 -0.0693,0.273203 -0.13781,0.544411 -0.15225,0.602685 -0.0144,0.05827 0.0629,-0.07106 0.17179,-0.287419 0.15234,-0.302592 0.20575,-0.477542 0.23142,-0.758109 z m -55.1928,-0.89973 c -0.0163,-0.02633 -0.0511,-0.03456 -0.0775,-0.01829 -0.0263,0.01627 -0.0346,0.05113 -0.0183,0.07746 0.0163,0.02633 0.0511,0.03456 0.0775,0.01829 0.0263,-0.01627 0.0346,-0.05113 0.0183,-0.07746 z m -0.15111,-0.04273 c 0.016,-0.02588 0.01,-0.05899 -0.0139,-0.07359 -0.0236,-0.0146 -0.0429,0.0066 -0.0429,0.04705 0,0.08522 0.0159,0.09266 0.0568,0.02654 z m -0.15163,-0.101081 c 0.016,-0.02588 0.01,-0.05899 -0.0139,-0.07359 -0.0236,-0.0146 -0.0429,0.0066 -0.0429,0.04705 0,0.08522 0.0159,0.09267 0.0568,0.02654 z m -0.15162,-0.101081 c 0.016,-0.02588 0.01,-0.05899 -0.0139,-0.07359 -0.0236,-0.0146 -0.0429,0.0066 -0.0429,0.04705 0,0.08522 0.0159,0.09267 0.0568,0.02654 z m -0.14405,-0.07784 c -0.006,-0.04089 -0.025,-0.08846 -0.0423,-0.105712 -0.0243,-0.0243 -0.0196,0.07826 0.008,0.167425 0.0149,0.04878 0.0433,-0.0019 0.0345,-0.06171 z m -0.15162,-0.101081 c -0.006,-0.04089 -0.025,-0.08846 -0.0423,-0.105713 -0.0243,-0.02429 -0.0196,0.07826 0.008,0.167426 0.0149,0.04878 0.0433,-0.0019 0.0345,-0.06171 z m -0.15162,-0.101082 c -0.006,-0.04089 -0.025,-0.08846 -0.0423,-0.105712 -0.0243,-0.02429 -0.0196,0.07826 0.008,0.167426 0.0149,0.04878 0.0433,-0.0019 0.0345,-0.06171 z m -0.15162,-0.101081 c -0.006,-0.04089 -0.025,-0.08846 -0.0423,-0.105712 -0.0243,-0.02429 -0.0196,0.07826 0.008,0.167425 0.0149,0.04878 0.0433,-0.0019 0.0345,-0.06171 z m -0.15267,-0.108224 c -0.0155,-0.105502 -0.16441,-0.194288 -0.16441,-0.09802 0,0.03783 0.0312,0.0568 0.0694,0.04214 0.0382,-0.01466 0.0658,-0.0068 0.0614,0.01745 -0.0114,0.06268 3.6e-4,0.119916 0.0247,0.119916 0.0114,0 0.0154,-0.03667 0.009,-0.08149 z m -0.25923,-0.167719 c 0.016,-0.02588 0.01,-0.05899 -0.0139,-0.07359 -0.0236,-0.0146 -0.0429,0.0066 -0.0429,0.04705 0,0.08522 0.0159,0.09267 0.0568,0.02654 z m -0.15162,-0.101082 c 0.016,-0.02588 0.01,-0.05899 -0.0139,-0.07359 -0.0236,-0.0146 -0.0429,0.0066 -0.0429,0.04705 0,0.08522 0.0159,0.09267 0.0568,0.02654 z m -0.14405,-0.07784 c -0.006,-0.04089 -0.025,-0.08846 -0.0423,-0.105712 -0.0243,-0.02429 -0.0196,0.07826 0.008,0.167425 0.0149,0.04878 0.0433,-0.0019 0.0345,-0.06171 z m -0.15162,-0.101081 c -0.006,-0.04089 -0.025,-0.08846 -0.0423,-0.105713 -0.0243,-0.02429 -0.0196,0.07826 0.008,0.167426 0.0149,0.04878 0.0433,-0.0019 0.0345,-0.06171 z m -0.15162,-0.101082 c -0.006,-0.04089 -0.025,-0.08846 -0.0423,-0.105712 -0.0243,-0.0243 -0.0196,0.07826 0.008,0.167426 0.0149,0.04878 0.0433,-0.0019 0.0346,-0.06171 z m -0.15163,-0.101081 c -0.006,-0.04089 -0.025,-0.08846 -0.0423,-0.105712 -0.0243,-0.02429 -0.0196,0.07826 0.008,0.167425 0.0149,0.04878 0.0433,-0.0019 0.0345,-0.06171 z m -0.15162,-0.101081 c -0.006,-0.04089 -0.025,-0.08846 -0.0423,-0.105712 -0.0243,-0.02429 -0.0196,0.07826 0.008,0.167425 0.0149,0.04878 0.0433,-0.0019 0.0345,-0.06171 z m -0.15162,-0.101081 c -0.006,-0.04089 -0.025,-0.08846 -0.0423,-0.105712 -0.0243,-0.02429 -0.0196,0.07826 0.008,0.167425 0.0149,0.04878 0.0433,-0.0019 0.0345,-0.06171 z m -0.55595,-0.353784 c -0.006,-0.04089 -0.025,-0.08846 -0.0423,-0.105713 -0.0243,-0.0243 -0.0196,0.07826 0.008,0.167426 0.0149,0.04878 0.0433,-0.0019 0.0345,-0.06171 z m -0.15162,-0.101082 c -0.006,-0.04089 -0.025,-0.08846 -0.0423,-0.105712 -0.0243,-0.02429 -0.0196,0.07826 0.008,0.167425 0.0149,0.04878 0.0433,-0.0019 0.0346,-0.06171 z m -0.15162,-0.101081 c -0.006,-0.04089 -0.025,-0.08846 -0.0423,-0.105712 -0.0243,-0.0243 -0.0196,0.07826 0.008,0.167425 0.0149,0.04878 0.0433,-0.0019 0.0345,-0.06171 z m -0.15162,-0.101081 c -0.006,-0.04089 -0.025,-0.08846 -0.0423,-0.105712 -0.0243,-0.02429 -0.0196,0.07826 0.008,0.167425 0.0149,0.04878 0.0433,-0.0019 0.0345,-0.06171 z m -0.15162,-0.101081 c -0.006,-0.04089 -0.0304,-0.09206 -0.0542,-0.113717 -0.0238,-0.0217 -0.0246,-0.0072 -0.002,0.0324 0.032,0.05506 0.0191,0.06385 -0.0551,0.03778 -0.0938,-0.03295 -0.0937,-0.03167 0.001,0.04195 0.12066,0.0934 0.12295,0.09343 0.10947,0.0016 l 0,0 z m -9.3887,-2.588678 c -0.0313,-0.03774 -0.0689,-0.05664 -0.0836,-0.04201 -0.0146,0.01463 -0.0739,-0.01309 -0.13178,-0.06159 -0.0894,-0.07498 -0.088,-0.06868 0.009,0.04201 0.11958,0.13584 0.31638,0.194712 0.2059,0.06159 z m -0.22672,-0.280115 c -0.0155,-0.02501 -0.0412,-0.03239 -0.0572,-0.01638 -0.016,0.016 -0.0876,-0.02229 -0.1592,-0.08508 l -0.1301,-0.114179 0.11462,0.130563 c 0.10519,0.119835 0.29682,0.190145 0.23188,0.08508 z m -0.22116,-0.267409 c -0.0352,-0.04237 -0.0761,-0.0649 -0.0909,-0.05008 -0.0148,0.01482 -0.0855,-0.02443 -0.15706,-0.08722 l -0.1301,-0.114178 0.12106,0.137429 c 0.0666,0.07559 0.13893,0.126387 0.16077,0.112892 0.0218,-0.0135 0.054,-0.0014 0.0714,0.02683 0.0175,0.02825 0.0446,0.05137 0.0602,0.05137 0.0157,0 -3.1e-4,-0.03467 -0.0355,-0.07703 z m -0.35277,-0.293212 c 0,-0.0091 -0.0625,-0.0716 -0.13899,-0.138987 l -0.13898,-0.122526 0.12252,0.138987 c 0.11452,0.129904 0.15545,0.162164 0.15545,0.122526 z m -0.0505,-0.204784 c 0,-0.0105 -0.0398,-0.0503 -0.0884,-0.08845 -0.0802,-0.06287 -0.0819,-0.06108 -0.0191,0.01908 0.066,0.08419 0.10753,0.110961 0.10753,0.06936 z m -0.20216,-0.09846 c 0,-0.0091 -0.0626,-0.0716 -0.13899,-0.138987 l -0.13899,-0.122526 0.12253,0.138987 c 0.11452,0.129904 0.15545,0.162164 0.15545,0.122526 z m -0.25271,-0.303243 c 0,-0.0091 -0.0625,-0.0716 -0.13898,-0.138987 l -0.13899,-0.122526 0.12253,0.138986 c 0.11452,0.129904 0.15544,0.162164 0.15544,0.122527 z m 0,-0.154244 c 0,-0.01049 -0.0398,-0.05029 -0.0884,-0.08845 -0.0802,-0.06287 -0.0819,-0.06108 -0.0191,0.01908 0.066,0.08419 0.10752,0.110961 0.10752,0.06936 z m -0.2527,-0.149 c 0,-0.0091 -0.0625,-0.0716 -0.13898,-0.138987 l -0.13899,-0.122526 0.12252,0.138987 c 0.11452,0.129904 0.15545,0.162164 0.15545,0.122526 z m -0.30324,-0.354761 c 0,-0.0096 -0.0512,-0.06076 -0.11372,-0.113716 l -0.11371,-0.09628 0.0963,0.113716 c 0.0905,0.106865 0.13116,0.136724 0.13116,0.09628 z m 0.10108,-0.05219 c 0,-0.01049 -0.0398,-0.0503 -0.0885,-0.08845 -0.0802,-0.06286 -0.0819,-0.06108 -0.0191,0.01908 0.066,0.08419 0.10753,0.11096 0.10753,0.06936 z m -0.35378,-0.251058 c 0,-0.0096 -0.0512,-0.06076 -0.11372,-0.113717 l -0.11372,-0.09628 0.0963,0.113716 c 0.0905,0.106865 0.13116,0.136725 0.13116,0.09628 z m 0.15162,0 c 0,-0.0096 -0.0512,-0.06076 -0.11372,-0.113717 l -0.11372,-0.09628 0.0963,0.113716 c 0.0905,0.106865 0.13116,0.136725 0.13116,0.09628 z m -0.40433,-0.303244 c 0,-0.0096 -0.0512,-0.06076 -0.11371,-0.113716 l -0.11372,-0.09628 0.0963,0.113717 c 0.0905,0.106865 0.13115,0.136724 0.13115,0.09628 z m 0.15162,-0.0016 c 0,-0.01049 -0.0398,-0.05029 -0.0884,-0.08845 -0.0802,-0.06287 -0.0819,-0.06108 -0.0191,0.01908 0.066,0.08419 0.10752,0.110961 0.10752,0.06936 z m -0.20216,-0.252703 c 0,-0.01049 -0.0398,-0.05029 -0.0884,-0.08845 -0.0802,-0.06287 -0.082,-0.06108 -0.0191,0.01908 0.066,0.08419 0.10753,0.110961 0.10753,0.06936 z m -0.20216,-0.0489 c 0,-0.0096 -0.0512,-0.06076 -0.11372,-0.113717 l -0.11371,-0.09628 0.0963,0.113716 c 0.0905,0.106865 0.13115,0.136724 0.13115,0.09628 l 0,-2e-6 z m 3.4873,-0.0566 c 0,-0.01292 -0.0512,-0.04829 -0.11372,-0.0786 -0.1092,-0.05292 -0.10981,-0.05199 -0.0156,0.02349 0.10312,0.08261 0.12933,0.09378 0.12933,0.05511 z m -3.4873,-0.147212 c 0,-0.01049 -0.0398,-0.05029 -0.0885,-0.08845 -0.0802,-0.06287 -0.0819,-0.06108 -0.0191,0.01908 0.066,0.08419 0.10753,0.110961 0.10753,0.06936 z m -0.2527,-0.09944 c 0,-0.0096 -0.0512,-0.06076 -0.11372,-0.113716 l -0.11372,-0.09628 0.0963,0.113716 c 0.0905,0.106865 0.13116,0.136725 0.13116,0.09628 l 0,-3e-6 z m -0.30325,-0.355429 c 0,-0.01049 -0.0398,-0.0503 -0.0884,-0.08845 -0.0802,-0.06287 -0.082,-0.06108 -0.0191,0.01908 0.066,0.08419 0.10753,0.110961 0.10753,0.06936 z m 2.63145,-0.330421 c -0.15273,-0.117398 -0.45122,-0.289678 -0.38239,-0.220706 0.0678,0.06795 0.44627,0.317798 0.47923,0.316382 0.0144,-6.17e-4 -0.0292,-0.04367 -0.0968,-0.09568 z m -2.88415,0.02718 c 0,-0.01049 -0.0398,-0.0503 -0.0885,-0.08845 -0.0802,-0.06287 -0.0819,-0.06108 -0.0191,0.01908 0.066,0.08419 0.10753,0.110961 0.10753,0.06936 z m -0.0505,-0.303244 c 0,-0.01049 -0.0398,-0.05029 -0.0885,-0.08845 -0.0802,-0.06287 -0.0819,-0.06108 -0.0191,0.01908 0.066,0.08419 0.10753,0.110961 0.10753,0.06936 z m -0.20216,-0.252703 c 0,-0.0105 -0.0398,-0.0503 -0.0884,-0.08845 -0.0802,-0.06287 -0.082,-0.06108 -0.0191,0.01908 0.066,0.08419 0.10753,0.110961 0.10753,0.06936 z m -0.20217,-0.252703 c 0,-0.01049 -0.0398,-0.05029 -0.0884,-0.08845 -0.0802,-0.06287 -0.0819,-0.06108 -0.0191,0.01908 0.066,0.08419 0.10752,0.110961 0.10752,0.06936 z m 2.12271,5.26e-4 c 0,-0.01841 -0.2393,-0.181295 -0.53068,-0.361226 -0.24649,-0.152216 -0.0743,-0.0033 0.22676,0.196119 0.28046,0.185755 0.30392,0.198498 0.30392,0.165107 z m -2.32487,-0.253231 c 0,-0.01049 -0.0398,-0.0503 -0.0884,-0.08845 -0.0802,-0.06286 -0.082,-0.06108 -0.0191,0.01908 0.066,0.08419 0.10753,0.11096 0.10753,0.06936 z m -0.20216,-0.252703 c 0,-0.01049 -0.0398,-0.0503 -0.0885,-0.08845 -0.0802,-0.06287 -0.0819,-0.06108 -0.0191,0.01908 0.066,0.08419 0.10753,0.11096 0.10753,0.06936 z m -0.35378,-0.454866 c 0,-0.01049 -0.0398,-0.05029 -0.0885,-0.08845 -0.0802,-0.06287 -0.0819,-0.06108 -0.0191,0.01908 0.066,0.08419 0.10753,0.110961 0.10753,0.06936 z m 1.41513,9.65e-4 c 0,-0.0178 -0.38444,-0.278473 -0.6823,-0.462631 -0.27781,-0.171763 -0.0556,0.0093 0.30271,0.24672 0.35506,0.235227 0.37959,0.249183 0.37959,0.215911 z m -1.46568,-0.712946 c 0,-0.01292 -0.0512,-0.04829 -0.11371,-0.0786 -0.1092,-0.05292 -0.10982,-0.05199 -0.0156,0.02349 0.10311,0.08261 0.12932,0.09378 0.12932,0.05511 z m 0.12383,-0.17193 c -0.0542,-0.04945 -0.91682,-0.623172 -1.03356,-0.687416 -0.19708,-0.108461 0.069,0.09038 0.53029,0.396303 0.46784,0.310254 0.62201,0.399433 0.50327,0.291113 z m -1.16243,-0.758217 c -0.12036,-0.110065 -1.69059,-1.129549 -1.69059,-1.097623 0,0.0108 0.14099,0.141294 0.3133,0.289981 0.17232,0.148686 0.29606,0.241909 0.27499,0.207163 -0.0738,-0.121653 0.0477,-0.06016 0.57415,0.290608 0.49147,0.327483 0.6475,0.419026 0.52815,0.309875 l 0,-4e-6 z m -2.39816,-1.592844 c 0,-0.0107 -0.0625,-0.05754 -0.13898,-0.10408 l -0.13899,-0.08462 0.11932,0.104081 c 0.11643,0.101566 0.15865,0.124088 0.15865,0.08462 z m -0.68482,-0.428517 c -0.12006,-0.109146 -0.84201,-0.569067 -0.86196,-0.549114 -0.0675,0.0675 0.0785,0.190155 0.44888,0.37706 0.43688,0.22048 0.49126,0.243128 0.41308,0.172054 z"
     id="path4237"
     inkscape:connector-curvature="0"
     transform="translate(-17,-17)" /><path
     style="fill:#07cca4;fill-opacity:1"
     d="m 137.66513,70.403957 c -0.0172,-0.0278 -0.008,-0.05054 0.0193,-0.05054 0.0278,0 0.0646,0.02274 0.0818,0.05054 0.0172,0.0278 0.008,0.05054 -0.0193,0.05054 -0.0278,0 -0.0646,-0.02274 -0.0818,-0.05054 z"
     id="path4239"
     inkscape:connector-curvature="0"
     transform="translate(-17,-17)" /><path
     style="fill:#07cca4;fill-opacity:1"
     d="M 172.35718,349.91061 C 143.7061,349.55478 115.09559,341.91028 89.946261,327.89106 63.328153,313.0531 40.911861,291.39649 25.145551,265.28646 14.885985,248.29595 7.5933993,229.67255 3.6613006,210.42118 3.0286043,207.32353 2.1747062,202.54977 2.1747062,202.11031 l 0,-0.33763 44.1002028,0 c 24.255112,0 44.100203,0.0273 44.100203,0.0607 0,0.0334 -0.192225,0.54073 -0.427168,1.12748 -0.711855,1.77777 -0.895472,2.82116 -0.82233,4.67281 0.07222,1.82819 0.385349,2.9089 1.267056,4.37299 0.614205,1.01991 1.972844,2.41937 3.0762,3.16865 0.945112,0.64181 3.994696,2.30247 7.19867,3.92005 1.40305,0.70835 2.12551,1.15498 2.23599,1.38229 0.11827,0.24338 0.16612,3.80467 0.17382,12.93701 0.007,7.9111 0.0662,13.00024 0.15982,13.67333 1.12522,8.0864 6.12449,13.79507 13.76858,15.72235 2.62466,0.66174 3.85053,0.71694 15.92194,0.71694 l 11.19678,0 0,23.91235 0,23.91235 39.30199,16.0056 39.30198,16.0056 -1.95619,0.53075 c -15.38005,4.17286 -31.87048,6.22217 -48.41507,6.0167 z"
     id="path4241"
     inkscape:connector-curvature="0"
     transform="translate(-17,-17)" /><path
     style="fill:#07cca4;fill-opacity:1"
     d="M 170.42734,349.85339 C 139.2998,349.15659 108.57435,339.90005 82.083988,323.23851 57.082358,307.51333 36.632253,285.98981 22.158865,260.16793 14.07691,245.74897 7.8643307,229.47234 4.2624129,213.28019 3.3498875,209.178 2.1747062,202.87248 2.1747062,202.07844 l 0,-0.30576 44.1002028,0 c 24.255112,0 44.100203,0.0341 44.100203,0.0758 0,0.0417 -0.166262,0.4708 -0.369474,0.95361 -1.281306,3.04425 -1.21563,6.30876 0.177436,8.81972 0.748696,1.34949 2.655986,3.20921 4.266125,4.15971 0.707605,0.41772 2.840175,1.55545 4.739044,2.52831 1.898867,0.97285 3.539227,1.87328 3.645237,2.00095 0.15739,0.18956 0.20735,2.68662 0.27237,13.61188 0.0781,13.12853 0.0855,13.40577 0.39456,14.76622 1.34003,5.89937 4.58928,10.20248 9.53234,12.62404 2.54449,1.24652 4.58867,1.80827 7.52637,2.0683 0.91159,0.0807 6.42954,0.14414 12.5939,0.14483 l 10.97145,0.001 0.002,23.90846 0.002,23.90846 3.24991,1.31391 c 1.78745,0.72265 11.64467,4.73344 21.90493,8.91286 39.81985,16.22025 44.22021,18.00505 44.26942,17.95585 0.045,-0.045 -2.72295,-1.19126 -12.32,-5.10213 -46.45082,-18.92908 -54.45663,-22.24842 -54.73105,-22.69245 -0.0457,-0.0739 0.32504,-0.17107 0.8335,-0.21855 2.51114,-0.2345 7.43052,-1.69596 9.92397,-2.94824 3.72523,-1.8709 9.61415,-5.95208 12.95334,-8.97701 2.37382,-2.15041 6.08927,-5.75781 16.45516,-15.97662 9.40211,-9.26871 13.60331,-13.23048 16.85482,-15.89428 3.79484,-3.10892 7.0381,-5.20201 10.53484,-6.79884 3.55119,-1.62169 4.94996,-1.99009 8.54279,-2.24996 1.40073,-0.10131 2.2519,-0.22273 2.32076,-0.33104 0.0598,-0.0941 0.10978,-3.96639 0.11106,-8.60513 0.001,-4.63874 0.0451,-12.34974 0.0973,-17.13554 l 0.095,-8.70147 2.88707,-3.02047 c 5.32281,-5.56875 8.48012,-9.40212 11.41883,-13.86394 1.18528,-1.79958 3.0868,-4.95783 3.0868,-5.12687 0,-0.0614 12.47958,-0.11158 27.73239,-0.11158 l 27.73238,0 0,48.73642 0,48.73641 -3.18065,2.99859 c -13.31417,12.55209 -26.65911,22.03471 -41.56283,29.53363 -7.02028,3.53231 -13.42392,6.17396 -21.53164,8.88231 -7.52715,2.51442 -8.72792,2.61486 -12.68576,1.06118 -0.78864,-0.30958 -1.45532,-0.54146 -1.48151,-0.51528 -0.0262,0.0262 1.12134,0.51995 2.55006,1.09726 2.33554,0.94374 2.55598,1.06137 2.18446,1.16572 -13.44796,3.77708 -28.67328,6.08059 -41.86885,6.33451 -2.04419,0.0393 -4.16701,0.0886 -4.71736,0.10954 -0.55036,0.0209 -2.96265,-0.006 -5.36065,-0.0596 z m 47.00536,-8.77703 c -0.12744,-0.12744 -3.59502,-1.50054 -3.65015,-1.4454 -0.029,0.029 0.73782,0.37689 1.70412,0.77301 1.67055,0.68481 2.11044,0.83679 1.94603,0.67239 z"
     id="path4243"
     inkscape:connector-curvature="0"
     transform="translate(-17,-17)" /><path
     style="fill:#07cca4;fill-opacity:1"
     d="m 146.16423,311.31659 c 0.13909,-0.0362 0.33207,-0.0339 0.42885,0.005 0.0968,0.0392 -0.017,0.0688 -0.25288,0.0659 -0.23587,-0.003 -0.31505,-0.035 -0.17597,-0.0712 z"
     id="path4245"
     inkscape:connector-curvature="0"
     transform="translate(-17,-17)" /><path
     style="fill:#07cca4;fill-opacity:1"
     d="m 170.6454,322.11358 c -1.30647,-0.5329 -7.77125,-3.16618 -14.36617,-5.85174 -6.59491,-2.68556 -11.99644,-4.8886 -12.00339,-4.89564 -0.007,-0.007 0.51615,-0.009 1.16243,-0.005 0.74692,0.005 1.327,-0.004 1.59203,-0.0231 1.40357,-0.10285 2.49183,-0.2654 3.77791,-0.56427 0.65166,-0.15144 0.68658,-0.15871 0.66879,-0.13913 -0.0217,0.0238 -1.16219,0.30826 -1.84013,0.45889 -1.27001,0.28217 -2.47897,0.46815 -3.04325,0.46815 -0.12025,0 -0.20266,0.0126 -0.23447,0.0359 -0.048,0.0351 -0.0477,0.0373 0.0141,0.10364 0.43125,0.46263 5.71104,2.70617 23.27395,9.88982 2.84941,1.16547 3.40016,1.3986 3.40693,1.44207 0.004,0.0285 -0.001,0.0514 -0.0126,0.0508 -0.0114,-5.8e-4 -1.08965,-0.43706 -2.39612,-0.96996 z"
     id="path4247"
     inkscape:connector-curvature="0"
     transform="translate(-17,-17)" /><path
     style="fill:#07cca4;fill-opacity:1"
     d="m 221.79404,342.92949 c -0.54054,-0.22872 -0.96632,-0.43233 -0.94618,-0.45246 0.0201,-0.0201 0.32593,0.0422 0.67955,0.13843 0.68746,0.18716 2.3864,0.24575 3.47321,0.11977 0.49718,-0.0576 0.4061,-0.019 -0.50541,0.2143 -1.72667,0.44195 -1.60727,0.44284 -2.70117,-0.02 z"
     id="path4249"
     inkscape:connector-curvature="0"
     transform="translate(-17,-17)" /></svg>