<?xml version="1.0" encoding="UTF-8" standalone="no"?>
<!-- Created with Inkscape (http://www.inkscape.org/) -->

<svg
   xmlns:dc="http://purl.org/dc/elements/1.1/"
   xmlns:cc="http://creativecommons.org/ns#"
   xmlns:rdf="http://www.w3.org/1999/02/22-rdf-syntax-ns#"
   xmlns:svg="http://www.w3.org/2000/svg"
   xmlns="http://www.w3.org/2000/svg"
   xmlns:sodipodi="http://sodipodi.sourceforge.net/DTD/sodipodi-0.dtd"
   xmlns:inkscape="http://www.inkscape.org/namespaces/inkscape"
   width="35.520969mm"
   height="35.600201mm"
   viewBox="0 0 35.520969 35.600201"
   version="1.1"
   id="svg8"
   inkscape:version="0.92.3 (2405546, 2018-03-11)"
   sodipodi:docname="smoothing.svg">
  <defs
     id="defs2" />
  <sodipodi:namedview
     id="base"
     pagecolor="#ffffff"
     bordercolor="#666666"
     borderopacity="1.0"
     inkscape:pageopacity="0.0"
     inkscape:pageshadow="2"
     inkscape:zoom="1.979899"
     inkscape:cx="110.19634"
     inkscape:cy="61.992884"
     inkscape:document-units="mm"
     inkscape:current-layer="layer1"
     showgrid="false"
     inkscape:window-width="1853"
     inkscape:window-height="1025"
     inkscape:window-x="67"
     inkscape:window-y="27"
     inkscape:window-maximized="1"
     fit-margin-top="0"
     fit-margin-left="0"
     fit-margin-right="0"
     fit-margin-bottom="0" />
  <metadata
     id="metadata5">
    <rdf:RDF>
      <cc:Work
         rdf:about="">
        <dc:format>image/svg+xml</dc:format>
        <dc:type
           rdf:resource="http://purl.org/dc/dcmitype/StillImage" />
        <dc:title></dc:title>
      </cc:Work>
    </rdf:RDF>
  </metadata>
  <g
     inkscape:label="Ebene 1"
     inkscape:groupmode="layer"
     id="layer1"
     transform="translate(-39.440153,-92.217682)">
    <path
       style="fill:#a6cd3a;fill-opacity:1;stroke-width:0.13363476"
       d="m 55.192702,127.73873 c -3.764714,-0.7918 -5.12722,-1.30042 -7.615996,-2.84301 -1.08987,-0.67552 -3.425652,-2.79262 -4.286466,-3.88515 -0.44884,-0.56966 -1.795101,-2.55558 -1.795101,-2.64802 0,-0.0482 -0.144283,-0.38919 -0.320628,-0.75774 -0.740497,-1.5476 -0.969394,-2.25702 -1.50973,-4.67914 -0.266889,-1.19636 -0.305693,-4.64988 -0.06381,-5.67948 0.711691,-3.02943 0.806344,-3.32015 1.614234,-4.95795 1.268952,-2.572495 3.083972,-4.826912 5.171301,-6.423219 0.750874,-0.574239 3.324515,-2.115938 3.532249,-2.115938 0.05415,0 0.270709,-0.08983 0.481234,-0.199629 0.210524,-0.109796 0.484459,-0.199999 0.608745,-0.200452 0.124285,-4.5e-4 0.26314,-0.06096 0.308565,-0.134458 0.04543,-0.0735 0.197272,-0.133635 0.337439,-0.133635 0.140167,0 0.45233,-0.08491 0.693696,-0.188691 0.602845,-0.259205 2.622252,-0.601203 3.913351,-0.662748 1.247912,-0.05949 3.745893,0.115159 4.610399,0.322333 1.29748,0.310934 2.210744,0.579333 2.331927,0.685331 0.06982,0.06108 0.220163,0.11027 0.334087,0.109324 0.383886,-0.0032 3.406453,1.600768 4.348547,2.307605 1.712928,1.28518 3.697909,3.501028 4.69806,5.244477 1.0106,1.76167 1.485236,2.93924 1.993189,4.94508 0.341323,1.34786 0.372948,1.68492 0.382378,4.07527 0.01093,2.77207 -0.08951,3.47686 -0.81897,5.74629 -1.336527,4.1581 -4.862542,8.21056 -8.859886,10.1827 -1.439909,0.7104 -2.612654,1.15795 -3.607523,1.37673 -0.477745,0.10506 -1.289553,0.28334 -1.80402,0.39618 -0.868538,0.19049 -3.961481,0.26849 -4.677266,0.11794 z m 13.861189,-9.90198 c 0.487447,-0.55594 0.672671,-1.12508 0.528793,-1.62482 -0.13648,-0.47403 -1.024572,-4.38856 -1.230643,-5.42441 -0.137051,-0.68891 -0.766826,-3.46817 -0.923583,-4.07586 -0.06636,-0.25725 -0.190522,-0.73185 -0.275921,-1.05467 -0.0854,-0.32282 -0.204203,-0.86404 -0.264007,-1.20272 -0.0598,-0.33867 -0.228174,-1.09685 -0.374158,-1.68484 -0.145983,-0.58799 -0.366209,-1.52832 -0.489394,-2.08961 -0.211982,-0.965905 -0.245903,-1.024917 -0.63375,-1.102486 -0.76993,-0.153986 -13.168332,-0.09307 -13.518371,0.06642 -0.321933,0.146682 -0.622381,0.623406 -0.622381,0.987526 0,0.37411 0.30429,0.8426 0.649501,0.99998 0.256688,0.11702 1.826739,0.16013 5.764968,0.15831 2.976714,-10e-4 5.649593,0.0386 5.939728,0.0889 l 0.527521,0.0914 0.305878,1.33522 c 0.168233,0.73438 0.366831,1.5199 0.441331,1.74562 0.0745,0.22571 0.135454,0.60156 0.135454,0.83522 v 0.42482 h -6.87752 c -5.947071,0 -6.96255,0.0289 -7.506022,0.21338 -0.345676,0.11736 -0.712887,0.29777 -0.816024,0.40091 -0.103137,0.10313 -0.230082,0.18752 -0.2821,0.18752 -0.163975,0 -1.114631,0.98221 -1.422763,1.46998 -0.162505,0.25725 -0.565702,0.97888 -0.895992,1.60362 -0.831948,1.57362 -1.437863,2.67904 -1.684607,3.07335 -0.46682,0.74601 -1.629023,3.1567 -1.62914,3.37923 -1.6e-4,0.29607 0.359761,0.88831 0.726258,1.19504 0.256823,0.21494 1.102836,0.23109 12.248886,0.23386 11.237821,0.003 11.9856,-0.0114 12.178058,-0.23089 z"
       id="path899"
       inkscape:connector-curvature="0" />
    <path
       style="fill:#a6cd3a;fill-opacity:1;stroke-width:0.13363476"
       d="m 48.878459,112.74933 c -0.165373,-0.0235 -0.300678,-0.0999 -0.300678,-0.1697 0,-0.0698 0.135305,-0.3513 0.300678,-0.62547 0.165373,-0.27416 0.419367,-0.73901 0.564431,-1.03301 0.436832,-0.88531 0.885627,-1.40344 1.453132,-1.67763 0.512617,-0.24767 0.87734,-0.26007 7.647034,-0.26007 h 7.108743 l 0.233119,1.03567 c 0.128217,0.56961 0.321665,1.35739 0.429887,1.75061 0.127725,0.46407 0.15108,0.76063 0.06656,0.84515 -0.118456,0.11845 -16.717711,0.24597 -17.502907,0.13445 z"
       id="path901"
       inkscape:connector-curvature="0" />
    <path
       style="fill:#a6cd3a;fill-opacity:1;stroke-width:0.13363476"
       d="m 47.241433,114.40731 c 0,-0.0333 0.06979,-0.2137 0.155085,-0.4009 0.144643,-0.31746 0.218881,-0.34067 1.102487,-0.34475 7.335823,-0.0338 18.286391,0.009 18.388358,0.0722 0.07261,0.0449 0.132014,0.22838 0.132014,0.40779 v 0.3262 h -9.888971 c -5.438935,0 -9.888973,-0.0272 -9.888973,-0.0605 z"
       id="path903"
       inkscape:connector-curvature="0" />
    <path
       style="fill:#000000;fill-opacity:0;stroke-width:0.50507629"
       d="m 25.898138,97.260366 c -6.269811,-0.327542 -6.811239,-0.539447 -8.262157,-3.23364 l -0.904674,-1.679873 2.814266,-5.777527 C 25.622578,74.093579 32.79265,61.692709 35.60384,58.796033 c 5.180679,-5.338219 6.111243,-5.470599 38.706834,-5.506367 l 22.349625,-0.02452 -0.01808,-1.641498 c -0.01,-0.902824 -0.749583,-4.594127 -1.643614,-8.202896 C 93.41476,37.027624 93.334266,36.85105 91.859958,36.535707 91.027744,36.357704 81.710041,36.162695 71.153947,36.102356 60.597853,36.042016 50.710985,35.844662 49.183129,35.663791 c -2.537956,-0.300449 -2.862061,-0.486006 -3.751986,-2.148085 -0.964239,-1.800873 -0.963966,-1.836545 0.02701,-3.535534 l 1.001078,-1.716306 9.821976,-0.397333 c 13.07157,-0.528792 42.200015,-0.258685 42.848624,0.397333 0.274656,0.277792 1.429139,4.596194 2.565509,9.596449 1.13639,5.000255 2.96085,12.841565 4.05437,17.425132 3.10696,13.023076 7.71759,33.88487 7.97489,36.084184 0.25373,2.168848 -0.9205,4.9883 -2.35439,5.653122 -0.99085,0.459407 -77.172455,0.671191 -85.472075,0.237613 z m 78.245582,-14.574531 -0.15981,-1.38896 -36.365497,-0.135906 -36.365491,-0.135906 -0.883884,1.075742 c -0.486136,0.591661 -0.883883,1.277853 -0.883883,1.524865 0,0.258069 15.913559,0.449124 37.409191,0.449124 H 104.30354 Z M 80.347856,77.678882 c 11.445866,-0.183517 21.080524,-0.50045 21.410354,-0.704296 0.52989,-0.327486 -0.42659,-5.393396 -2.402374,-12.724035 -0.223032,-0.827505 -1.919381,-0.883704 -26.594428,-0.881067 -16.571596,0.0018 -27.053526,0.196484 -28.234549,0.524486 -1.033093,0.286918 -2.51268,1.055421 -3.287969,1.707785 -1.305238,1.098285 -6.702973,10.234314 -6.702973,11.345232 0,0.270357 0.51139,0.590055 1.136422,0.710445 1.893343,0.36467 22.647251,0.374635 44.675517,0.02147 z"
       id="path944"
       inkscape:connector-curvature="0"
       transform="matrix(0.26458333,0,0,0.26458333,39.440153,92.217682)" />
    <path
       style="fill:#000000;fill-opacity:0;stroke-width:0.50507629"
       d="m 25.898138,97.260366 c -6.269811,-0.327542 -6.811239,-0.539447 -8.262157,-3.23364 l -0.904674,-1.679873 2.814266,-5.777527 C 25.622578,74.093579 32.79265,61.692709 35.60384,58.796033 c 5.180679,-5.338219 6.111243,-5.470599 38.706834,-5.506367 l 22.349625,-0.02452 -0.01808,-1.641498 c -0.01,-0.902824 -0.749583,-4.594127 -1.643614,-8.202896 C 93.41476,37.027624 93.334266,36.85105 91.859958,36.535707 91.027744,36.357704 81.710041,36.162695 71.153947,36.102356 60.597853,36.042016 50.710985,35.844662 49.183129,35.663791 c -2.537956,-0.300449 -2.862061,-0.486006 -3.751986,-2.148085 -0.964239,-1.800873 -0.963966,-1.836545 0.02701,-3.535534 l 1.001078,-1.716306 9.821976,-0.397333 c 13.07157,-0.528792 42.200015,-0.258685 42.848624,0.397333 0.274656,0.277792 1.429139,4.596194 2.565509,9.596449 1.13639,5.000255 2.96085,12.841565 4.05437,17.425132 3.10696,13.023076 7.71759,33.88487 7.97489,36.084184 0.25373,2.168848 -0.9205,4.9883 -2.35439,5.653122 -0.99085,0.459407 -77.172455,0.671191 -85.472075,0.237613 z m 78.245582,-14.574531 -0.15981,-1.38896 -36.365497,-0.135906 -36.365491,-0.135906 -0.883884,1.075742 c -0.486136,0.591661 -0.883883,1.277853 -0.883883,1.524865 0,0.258069 15.913559,0.449124 37.409191,0.449124 H 104.30354 Z M 80.347856,77.678882 c 11.445866,-0.183517 21.080524,-0.50045 21.410354,-0.704296 0.52989,-0.327486 -0.42659,-5.393396 -2.402374,-12.724035 -0.223032,-0.827505 -1.919381,-0.883704 -26.594428,-0.881067 -16.571596,0.0018 -27.053526,0.196484 -28.234549,0.524486 -1.033093,0.286918 -2.51268,1.055421 -3.287969,1.707785 -1.305238,1.098285 -6.702973,10.234314 -6.702973,11.345232 0,0.270357 0.51139,0.590055 1.136422,0.710445 1.893343,0.36467 22.647251,0.374635 44.675517,0.02147 z"
       id="path946"
       inkscape:connector-curvature="0"
       transform="matrix(0.26458333,0,0,0.26458333,39.440153,92.217682)" />
    <path
       style="fill:#000000;fill-opacity:0;stroke-width:0.50507629"
       d="M 58.52704,133.83567 C 41.793681,130.73285 31.810275,125.6719 20.251248,114.43227 10.954206,105.39213 5.5205761,96.032576 2.1792952,83.302906 0.80927288,78.083373 0.55557483,76.113277 0.3246132,68.900343 0.11304397,62.293042 0.23231385,59.679474 0.89455516,56.411176 3.9567715,41.298519 9.8982423,29.924007 20.118855,19.607662 29.316918,10.323445 40.555824,4.2556906 53.884551,1.3779577 58.999595,0.2735963 74.325922,0.13798544 79.701873,1.1495201 c 8.352209,1.5715458 18.460073,5.8023244 26.519477,11.1000769 3.86394,2.539911 11.87455,10.58524 15.66034,15.728195 5.31302,7.217711 9.45435,16.774673 11.39764,26.302422 0.71315,3.496496 0.8228,6.118888 0.62191,14.873193 -0.26599,11.590914 -0.90751,15.003023 -4.42937,23.55899 -5.28753,12.845473 -16.66135,25.672483 -29.04839,32.759803 -8.150688,4.66347 -18.186083,7.77665 -27.754304,8.60993 -7.059794,0.61483 -9.750088,0.56795 -14.142136,-0.24646 z m 52.78047,-36.769632 c 1.69761,-0.84824 3.14566,-3.753666 2.82473,-5.667638 C 113.70262,88.83628 101.73943,36.499487 100.48778,31.706403 100.06737,30.096474 99.31843,28.483139 98.82347,28.121215 98.105762,27.596413 92.77555,27.4931 72.499082,27.61098 l -25.424462,0.14781 -1.218589,1.417125 c -1.604672,1.866111 -1.546244,3.636224 0.176902,5.35937 l 1.395491,1.395491 22.469363,0.359215 c 16.422217,0.26254 22.618573,0.522188 23.023786,0.96477 0.558705,0.610235 3.753611,13.500763 3.743933,15.105698 -0.005,0.801339 -1.929325,0.873605 -26.900518,1.010153 l -26.895312,0.147068 -2.696134,1.49344 c -4.348136,2.408522 -7.264153,6.136702 -13.053632,16.689306 -6.09256,11.105036 -10.261662,19.535653 -10.261662,20.750786 0,1.613779 2.057264,4.229973 3.700225,4.705528 0.914735,0.264771 20.471065,0.480373 45.544712,0.502116 34.189815,0.02965 44.221865,-0.101914 45.204325,-0.592818 z"
       id="path948"
       inkscape:connector-curvature="0"
       transform="matrix(0.26458333,0,0,0.26458333,39.440153,92.217682)" />
    <path
       style="fill:#000000;fill-opacity:0;stroke-width:0.50507629"
       d="M 58.52704,133.83567 C 41.793681,130.73285 31.810275,125.6719 20.251248,114.43227 10.954206,105.39213 5.5205761,96.032576 2.1792952,83.302906 0.80927288,78.083373 0.55557483,76.113277 0.3246132,68.900343 0.11304397,62.293042 0.23231385,59.679474 0.89455516,56.411176 3.9567715,41.298519 9.8982423,29.924007 20.118855,19.607662 29.316918,10.323445 40.555824,4.2556906 53.884551,1.3779577 58.999595,0.2735963 74.325922,0.13798544 79.701873,1.1495201 c 8.352209,1.5715458 18.460073,5.8023244 26.519477,11.1000769 3.86394,2.539911 11.87455,10.58524 15.66034,15.728195 5.31302,7.217711 9.45435,16.774673 11.39764,26.302422 0.71315,3.496496 0.8228,6.118888 0.62191,14.873193 -0.26599,11.590914 -0.90751,15.003023 -4.42937,23.55899 -5.28753,12.845473 -16.66135,25.672483 -29.04839,32.759803 -8.150688,4.66347 -18.186083,7.77665 -27.754304,8.60993 -7.059794,0.61483 -9.750088,0.56795 -14.142136,-0.24646 z m 52.78047,-36.769632 c 1.69761,-0.84824 3.14566,-3.753666 2.82473,-5.667638 C 113.70262,88.83628 101.73943,36.499487 100.48778,31.706403 100.06737,30.096474 99.31843,28.483139 98.82347,28.121215 98.105762,27.596413 92.77555,27.4931 72.499082,27.61098 l -25.424462,0.14781 -1.218589,1.417125 c -1.604672,1.866111 -1.546244,3.636224 0.176902,5.35937 l 1.395491,1.395491 22.469363,0.359215 c 16.422217,0.26254 22.618573,0.522188 23.023786,0.96477 0.558705,0.610235 3.753611,13.500763 3.743933,15.105698 -0.005,0.801339 -1.929325,0.873605 -26.900518,1.010153 l -26.895312,0.147068 -2.696134,1.49344 c -4.348136,2.408522 -7.264153,6.136702 -13.053632,16.689306 -6.09256,11.105036 -10.261662,19.535653 -10.261662,20.750786 0,1.613779 2.057264,4.229973 3.700225,4.705528 0.914735,0.264771 20.471065,0.480373 45.544712,0.502116 34.189815,0.02965 44.221865,-0.101914 45.204325,-0.592818 z"
       id="path950"
       inkscape:connector-curvature="0"
       transform="matrix(0.26458333,0,0,0.26458333,39.440153,92.217682)" />
    <path
       style="fill:#000000;fill-opacity:0;stroke-width:0.50507629"
       d="m 25.898138,97.260366 c -6.269811,-0.327542 -6.811239,-0.539447 -8.262157,-3.23364 l -0.904674,-1.679873 2.814266,-5.777527 C 25.622578,74.093579 32.79265,61.692709 35.60384,58.796033 c 5.180679,-5.338219 6.111243,-5.470599 38.706834,-5.506367 l 22.349625,-0.02452 -0.01808,-1.641498 c -0.01,-0.902824 -0.749583,-4.594127 -1.643614,-8.202896 C 93.41476,37.027624 93.334266,36.85105 91.859958,36.535707 91.027744,36.357704 81.710041,36.162695 71.153947,36.102356 60.597853,36.042016 50.710985,35.844662 49.183129,35.663791 c -2.537956,-0.300449 -2.862061,-0.486006 -3.751986,-2.148085 -0.964239,-1.800873 -0.963966,-1.836545 0.02701,-3.535534 l 1.001078,-1.716306 9.821976,-0.397333 c 13.07157,-0.528792 42.200015,-0.258685 42.848624,0.397333 0.274656,0.277792 1.429139,4.596194 2.565509,9.596449 1.13639,5.000255 2.96085,12.841565 4.05437,17.425132 3.10696,13.023076 7.71759,33.88487 7.97489,36.084184 0.25373,2.168848 -0.9205,4.9883 -2.35439,5.653122 -0.99085,0.459407 -77.172455,0.671191 -85.472075,0.237613 z m 78.245582,-14.574531 -0.15981,-1.38896 -36.365497,-0.135906 -36.365491,-0.135906 -0.883884,1.075742 c -0.486136,0.591661 -0.883883,1.277853 -0.883883,1.524865 0,0.258069 15.913559,0.449124 37.409191,0.449124 H 104.30354 Z M 80.347856,77.678882 c 11.445866,-0.183517 21.080524,-0.50045 21.410354,-0.704296 0.52989,-0.327486 -0.42659,-5.393396 -2.402374,-12.724035 -0.223032,-0.827505 -1.919381,-0.883704 -26.594428,-0.881067 -16.571596,0.0018 -27.053526,0.196484 -28.234549,0.524486 -1.033093,0.286918 -2.51268,1.055421 -3.287969,1.707785 -1.305238,1.098285 -6.702973,10.234314 -6.702973,11.345232 0,0.270357 0.51139,0.590055 1.136422,0.710445 1.893343,0.36467 22.647251,0.374635 44.675517,0.02147 z"
       id="path952"
       inkscape:connector-curvature="0"
       transform="matrix(0.26458333,0,0,0.26458333,39.440153,92.217682)" />
    <path
       style="fill:#000000;fill-opacity:0;stroke-width:0.50507629"
       d="m 25.898138,97.260366 c -6.269811,-0.327542 -6.811239,-0.539447 -8.262157,-3.23364 l -0.904674,-1.679873 2.814266,-5.777527 C 25.622578,74.093579 32.79265,61.692709 35.60384,58.796033 c 5.180679,-5.338219 6.111243,-5.470599 38.706834,-5.506367 l 22.349625,-0.02452 -0.01808,-1.641498 c -0.01,-0.902824 -0.749583,-4.594127 -1.643614,-8.202896 C 93.41476,37.027624 93.334266,36.85105 91.859958,36.535707 91.027744,36.357704 81.710041,36.162695 71.153947,36.102356 60.597853,36.042016 50.710985,35.844662 49.183129,35.663791 c -2.537956,-0.300449 -2.862061,-0.486006 -3.751986,-2.148085 -0.964239,-1.800873 -0.963966,-1.836545 0.02701,-3.535534 l 1.001078,-1.716306 9.821976,-0.397333 c 13.07157,-0.528792 42.200015,-0.258685 42.848624,0.397333 0.274656,0.277792 1.429139,4.596194 2.565509,9.596449 1.13639,5.000255 2.96085,12.841565 4.05437,17.425132 3.10696,13.023076 7.71759,33.88487 7.97489,36.084184 0.25373,2.168848 -0.9205,4.9883 -2.35439,5.653122 -0.99085,0.459407 -77.172455,0.671191 -85.472075,0.237613 z m 78.245582,-14.574531 -0.15981,-1.38896 -36.365497,-0.135906 -36.365491,-0.135906 -0.883884,1.075742 c -0.486136,0.591661 -0.883883,1.277853 -0.883883,1.524865 0,0.258069 15.913559,0.449124 37.409191,0.449124 H 104.30354 Z M 80.347856,77.678882 c 11.445866,-0.183517 21.080524,-0.50045 21.410354,-0.704296 0.52989,-0.327486 -0.42659,-5.393396 -2.402374,-12.724035 -0.223032,-0.827505 -1.919381,-0.883704 -26.594428,-0.881067 -16.571596,0.0018 -27.053526,0.196484 -28.234549,0.524486 -1.033093,0.286918 -2.51268,1.055421 -3.287969,1.707785 -1.305238,1.098285 -6.702973,10.234314 -6.702973,11.345232 0,0.270357 0.51139,0.590055 1.136422,0.710445 1.893343,0.36467 22.647251,0.374635 44.675517,0.02147 z"
       id="path954"
       inkscape:connector-curvature="0"
       transform="matrix(0.26458333,0,0,0.26458333,39.440153,92.217682)" />
    <path
       style="fill:#000000;fill-opacity:0;stroke-width:0.50507629"
       d="m 25.898138,97.260366 c -6.269811,-0.327542 -6.811239,-0.539447 -8.262157,-3.23364 l -0.904674,-1.679873 2.814266,-5.777527 C 25.622578,74.093579 32.79265,61.692709 35.60384,58.796033 c 5.180679,-5.338219 6.111243,-5.470599 38.706834,-5.506367 l 22.349625,-0.02452 -0.01808,-1.641498 c -0.01,-0.902824 -0.749583,-4.594127 -1.643614,-8.202896 C 93.41476,37.027624 93.334266,36.85105 91.859958,36.535707 91.027744,36.357704 81.710041,36.162695 71.153947,36.102356 60.597853,36.042016 50.710985,35.844662 49.183129,35.663791 c -2.537956,-0.300449 -2.862061,-0.486006 -3.751986,-2.148085 -0.964239,-1.800873 -0.963966,-1.836545 0.02701,-3.535534 l 1.001078,-1.716306 9.821976,-0.397333 c 13.07157,-0.528792 42.200015,-0.258685 42.848624,0.397333 0.274656,0.277792 1.429139,4.596194 2.565509,9.596449 1.13639,5.000255 2.96085,12.841565 4.05437,17.425132 3.10696,13.023076 7.71759,33.88487 7.97489,36.084184 0.25373,2.168848 -0.9205,4.9883 -2.35439,5.653122 -0.99085,0.459407 -77.172455,0.671191 -85.472075,0.237613 z m 78.245582,-14.574531 -0.15981,-1.38896 -36.365497,-0.135906 -36.365491,-0.135906 -0.883884,1.075742 c -0.486136,0.591661 -0.883883,1.277853 -0.883883,1.524865 0,0.258069 15.913559,0.449124 37.409191,0.449124 H 104.30354 Z M 80.347856,77.678882 c 11.445866,-0.183517 21.080524,-0.50045 21.410354,-0.704296 0.52989,-0.327486 -0.42659,-5.393396 -2.402374,-12.724035 -0.223032,-0.827505 -1.919381,-0.883704 -26.594428,-0.881067 -16.571596,0.0018 -27.053526,0.196484 -28.234549,0.524486 -1.033093,0.286918 -2.51268,1.055421 -3.287969,1.707785 -1.305238,1.098285 -6.702973,10.234314 -6.702973,11.345232 0,0.270357 0.51139,0.590055 1.136422,0.710445 1.893343,0.36467 22.647251,0.374635 44.675517,0.02147 z"
       id="path956"
       inkscape:connector-curvature="0"
       transform="matrix(0.26458333,0,0,0.26458333,39.440153,92.217682)" />
    <path
       style="fill:#ffffff;fill-opacity:0;stroke-width:0.50507629"
       d="m 25.898138,97.260366 c -6.269811,-0.327542 -6.811239,-0.539447 -8.262157,-3.23364 l -0.904674,-1.679873 2.814266,-5.777527 C 25.622578,74.093579 32.79265,61.692709 35.60384,58.796033 c 5.180679,-5.338219 6.111243,-5.470599 38.706834,-5.506367 l 22.349625,-0.02452 -0.01808,-1.641498 c -0.01,-0.902824 -0.749583,-4.594127 -1.643614,-8.202896 C 93.41476,37.027624 93.334266,36.85105 91.859958,36.535707 91.027744,36.357704 81.710041,36.162695 71.153947,36.102356 60.597853,36.042016 50.710985,35.844662 49.183129,35.663791 c -2.537956,-0.300449 -2.862061,-0.486006 -3.751986,-2.148085 -0.964239,-1.800873 -0.963966,-1.836545 0.02701,-3.535534 l 1.001078,-1.716306 9.821976,-0.397333 c 13.07157,-0.528792 42.200015,-0.258685 42.848624,0.397333 0.274656,0.277792 1.429139,4.596194 2.565509,9.596449 1.13639,5.000255 2.96085,12.841565 4.05437,17.425132 3.10696,13.023076 7.71759,33.88487 7.97489,36.084184 0.25373,2.168848 -0.9205,4.9883 -2.35439,5.653122 -0.99085,0.459407 -77.172455,0.671191 -85.472075,0.237613 z m 78.245582,-14.574531 -0.15981,-1.38896 -36.365497,-0.135906 -36.365491,-0.135906 -0.883884,1.075742 c -0.486136,0.591661 -0.883883,1.277853 -0.883883,1.524865 0,0.258069 15.913559,0.449124 37.409191,0.449124 H 104.30354 Z M 80.347856,77.678882 c 11.445866,-0.183517 21.080524,-0.50045 21.410354,-0.704296 0.52989,-0.327486 -0.42659,-5.393396 -2.402374,-12.724035 -0.223032,-0.827505 -1.919381,-0.883704 -26.594428,-0.881067 -16.571596,0.0018 -27.053526,0.196484 -28.234549,0.524486 -1.033093,0.286918 -2.51268,1.055421 -3.287969,1.707785 -1.305238,1.098285 -6.702973,10.234314 -6.702973,11.345232 0,0.270357 0.51139,0.590055 1.136422,0.710445 1.893343,0.36467 22.647251,0.374635 44.675517,0.02147 z"
       id="path958"
       inkscape:connector-curvature="0"
       transform="matrix(0.26458333,0,0,0.26458333,39.440153,92.217682)" />
    <path
       style="fill:#ffffff;fill-opacity:0;stroke-width:0.50507629"
       d="m 25.898138,97.260366 c -6.269811,-0.327542 -6.811239,-0.539447 -8.262157,-3.23364 l -0.904674,-1.679873 2.814266,-5.777527 C 25.622578,74.093579 32.79265,61.692709 35.60384,58.796033 c 5.180679,-5.338219 6.111243,-5.470599 38.706834,-5.506367 l 22.349625,-0.02452 -0.01808,-1.641498 c -0.01,-0.902824 -0.749583,-4.594127 -1.643614,-8.202896 C 93.41476,37.027624 93.334266,36.85105 91.859958,36.535707 91.027744,36.357704 81.710041,36.162695 71.153947,36.102356 60.597853,36.042016 50.710985,35.844662 49.183129,35.663791 c -2.537956,-0.300449 -2.862061,-0.486006 -3.751986,-2.148085 -0.964239,-1.800873 -0.963966,-1.836545 0.02701,-3.535534 l 1.001078,-1.716306 9.821976,-0.397333 c 13.07157,-0.528792 42.200015,-0.258685 42.848624,0.397333 0.274656,0.277792 1.429139,4.596194 2.565509,9.596449 1.13639,5.000255 2.96085,12.841565 4.05437,17.425132 3.10696,13.023076 7.71759,33.88487 7.97489,36.084184 0.25373,2.168848 -0.9205,4.9883 -2.35439,5.653122 -0.99085,0.459407 -77.172455,0.671191 -85.472075,0.237613 z m 78.245582,-14.574531 -0.15981,-1.38896 -36.365497,-0.135906 -36.365491,-0.135906 -0.883884,1.075742 c -0.486136,0.591661 -0.883883,1.277853 -0.883883,1.524865 0,0.258069 15.913559,0.449124 37.409191,0.449124 H 104.30354 Z M 80.347856,77.678882 c 11.445866,-0.183517 21.080524,-0.50045 21.410354,-0.704296 0.52989,-0.327486 -0.42659,-5.393396 -2.402374,-12.724035 -0.223032,-0.827505 -1.919381,-0.883704 -26.594428,-0.881067 -16.571596,0.0018 -27.053526,0.196484 -28.234549,0.524486 -1.033093,0.286918 -2.51268,1.055421 -3.287969,1.707785 -1.305238,1.098285 -6.702973,10.234314 -6.702973,11.345232 0,0.270357 0.51139,0.590055 1.136422,0.710445 1.893343,0.36467 22.647251,0.374635 44.675517,0.02147 z"
       id="path960"
       inkscape:connector-curvature="0"
       transform="matrix(0.26458333,0,0,0.26458333,39.440153,92.217682)" />
    <path
       style="fill:#ffffff;fill-opacity:0;stroke-width:0.50507629"
       d="M 58.52704,133.83567 C 41.793681,130.73285 31.810275,125.6719 20.251248,114.43227 10.954206,105.39213 5.5205761,96.032576 2.1792952,83.302906 0.80927288,78.083373 0.55557483,76.113277 0.3246132,68.900343 0.11304397,62.293042 0.23231385,59.679474 0.89455516,56.411176 3.9567715,41.298519 9.8982423,29.924007 20.118855,19.607662 29.316918,10.323445 40.555824,4.2556906 53.884551,1.3779577 58.999595,0.2735963 74.325922,0.13798544 79.701873,1.1495201 c 8.352209,1.5715458 18.460073,5.8023244 26.519477,11.1000769 3.86394,2.539911 11.87455,10.58524 15.66034,15.728195 5.31302,7.217711 9.45435,16.774673 11.39764,26.302422 0.71315,3.496496 0.8228,6.118888 0.62191,14.873193 -0.26599,11.590914 -0.90751,15.003023 -4.42937,23.55899 -5.28753,12.845473 -16.66135,25.672483 -29.04839,32.759803 -8.150688,4.66347 -18.186083,7.77665 -27.754304,8.60993 -7.059794,0.61483 -9.750088,0.56795 -14.142136,-0.24646 z m 52.78047,-36.769632 c 1.69761,-0.84824 3.14566,-3.753666 2.82473,-5.667638 C 113.70262,88.83628 101.73943,36.499487 100.48778,31.706403 100.06737,30.096474 99.31843,28.483139 98.82347,28.121215 98.105762,27.596413 92.77555,27.4931 72.499082,27.61098 l -25.424462,0.14781 -1.218589,1.417125 c -1.604672,1.866111 -1.546244,3.636224 0.176902,5.35937 l 1.395491,1.395491 22.469363,0.359215 c 16.422217,0.26254 22.618573,0.522188 23.023786,0.96477 0.558705,0.610235 3.753611,13.500763 3.743933,15.105698 -0.005,0.801339 -1.929325,0.873605 -26.900518,1.010153 l -26.895312,0.147068 -2.696134,1.49344 c -4.348136,2.408522 -7.264153,6.136702 -13.053632,16.689306 -6.09256,11.105036 -10.261662,19.535653 -10.261662,20.750786 0,1.613779 2.057264,4.229973 3.700225,4.705528 0.914735,0.264771 20.471065,0.480373 45.544712,0.502116 34.189815,0.02965 44.221865,-0.101914 45.204325,-0.592818 z"
       id="path962"
       inkscape:connector-curvature="0"
       transform="matrix(0.26458333,0,0,0.26458333,39.440153,92.217682)" />
    <path
       style="fill:#ffffff;fill-opacity:0;stroke-width:0.50507629"
       d="m 25.898138,97.260366 c -6.269811,-0.327542 -6.811239,-0.539447 -8.262157,-3.23364 l -0.904674,-1.679873 2.814266,-5.777527 C 25.622578,74.093579 32.79265,61.692709 35.60384,58.796033 c 5.180679,-5.338219 6.111243,-5.470599 38.706834,-5.506367 l 22.349625,-0.02452 -0.01808,-1.641498 c -0.01,-0.902824 -0.749583,-4.594127 -1.643614,-8.202896 C 93.41476,37.027624 93.334266,36.85105 91.859958,36.535707 91.027744,36.357704 81.710041,36.162695 71.153947,36.102356 60.597853,36.042016 50.710985,35.844662 49.183129,35.663791 c -2.537956,-0.300449 -2.862061,-0.486006 -3.751986,-2.148085 -0.964239,-1.800873 -0.963966,-1.836545 0.02701,-3.535534 l 1.001078,-1.716306 9.821976,-0.397333 c 13.07157,-0.528792 42.200015,-0.258685 42.848624,0.397333 0.274656,0.277792 1.429139,4.596194 2.565509,9.596449 1.13639,5.000255 2.96085,12.841565 4.05437,17.425132 3.10696,13.023076 7.71759,33.88487 7.97489,36.084184 0.25373,2.168848 -0.9205,4.9883 -2.35439,5.653122 -0.99085,0.459407 -77.172455,0.671191 -85.472075,0.237613 z m 78.245582,-14.574531 -0.15981,-1.38896 -36.365497,-0.135906 -36.365491,-0.135906 -0.883884,1.075742 c -0.486136,0.591661 -0.883883,1.277853 -0.883883,1.524865 0,0.258069 15.913559,0.449124 37.409191,0.449124 H 104.30354 Z M 80.347856,77.678882 c 11.445866,-0.183517 21.080524,-0.50045 21.410354,-0.704296 0.52989,-0.327486 -0.42659,-5.393396 -2.402374,-12.724035 -0.223032,-0.827505 -1.919381,-0.883704 -26.594428,-0.881067 -16.571596,0.0018 -27.053526,0.196484 -28.234549,0.524486 -1.033093,0.286918 -2.51268,1.055421 -3.287969,1.707785 -1.305238,1.098285 -6.702973,10.234314 -6.702973,11.345232 0,0.270357 0.51139,0.590055 1.136422,0.710445 1.893343,0.36467 22.647251,0.374635 44.675517,0.02147 z"
       id="path964"
       inkscape:connector-curvature="0"
       transform="matrix(0.26458333,0,0,0.26458333,39.440153,92.217682)" />
    <path
       style="fill:#ffffff;fill-opacity:0;stroke-width:0.50507629"
       d="m 25.898138,97.260366 c -6.269811,-0.327542 -6.811239,-0.539447 -8.262157,-3.23364 l -0.904674,-1.679873 2.814266,-5.777527 C 25.622578,74.093579 32.79265,61.692709 35.60384,58.796033 c 5.180679,-5.338219 6.111243,-5.470599 38.706834,-5.506367 l 22.349625,-0.02452 -0.01808,-1.641498 c -0.01,-0.902824 -0.749583,-4.594127 -1.643614,-8.202896 C 93.41476,37.027624 93.334266,36.85105 91.859958,36.535707 91.027744,36.357704 81.710041,36.162695 71.153947,36.102356 60.597853,36.042016 50.710985,35.844662 49.183129,35.663791 c -2.537956,-0.300449 -2.862061,-0.486006 -3.751986,-2.148085 -0.964239,-1.800873 -0.963966,-1.836545 0.02701,-3.535534 l 1.001078,-1.716306 9.821976,-0.397333 c 13.07157,-0.528792 42.200015,-0.258685 42.848624,0.397333 0.274656,0.277792 1.429139,4.596194 2.565509,9.596449 1.13639,5.000255 2.96085,12.841565 4.05437,17.425132 3.10696,13.023076 7.71759,33.88487 7.97489,36.084184 0.25373,2.168848 -0.9205,4.9883 -2.35439,5.653122 -0.99085,0.459407 -77.172455,0.671191 -85.472075,0.237613 z m 78.245582,-14.574531 -0.15981,-1.38896 -36.365497,-0.135906 -36.365491,-0.135906 -0.883884,1.075742 c -0.486136,0.591661 -0.883883,1.277853 -0.883883,1.524865 0,0.258069 15.913559,0.449124 37.409191,0.449124 H 104.30354 Z M 80.347856,77.678882 c 11.445866,-0.183517 21.080524,-0.50045 21.410354,-0.704296 0.52989,-0.327486 -0.42659,-5.393396 -2.402374,-12.724035 -0.223032,-0.827505 -1.919381,-0.883704 -26.594428,-0.881067 -16.571596,0.0018 -27.053526,0.196484 -28.234549,0.524486 -1.033093,0.286918 -2.51268,1.055421 -3.287969,1.707785 -1.305238,1.098285 -6.702973,10.234314 -6.702973,11.345232 0,0.270357 0.51139,0.590055 1.136422,0.710445 1.893343,0.36467 22.647251,0.374635 44.675517,0.02147 z"
       id="path966"
       inkscape:connector-curvature="0"
       transform="matrix(0.26458333,0,0,0.26458333,39.440153,92.217682)" />
    <path
       style="fill:#ffffff;fill-opacity:0;stroke-width:0.50507629"
       d="m 25.898138,97.260366 c -6.269811,-0.327542 -6.811239,-0.539447 -8.262157,-3.23364 l -0.904674,-1.679873 2.814266,-5.777527 C 25.622578,74.093579 32.79265,61.692709 35.60384,58.796033 c 5.180679,-5.338219 6.111243,-5.470599 38.706834,-5.506367 l 22.349625,-0.02452 -0.01808,-1.641498 c -0.01,-0.902824 -0.749583,-4.594127 -1.643614,-8.202896 C 93.41476,37.027624 93.334266,36.85105 91.859958,36.535707 91.027744,36.357704 81.710041,36.162695 71.153947,36.102356 60.597853,36.042016 50.710985,35.844662 49.183129,35.663791 c -2.537956,-0.300449 -2.862061,-0.486006 -3.751986,-2.148085 -0.964239,-1.800873 -0.963966,-1.836545 0.02701,-3.535534 l 1.001078,-1.716306 9.821976,-0.397333 c 13.07157,-0.528792 42.200015,-0.258685 42.848624,0.397333 0.274656,0.277792 1.429139,4.596194 2.565509,9.596449 1.13639,5.000255 2.96085,12.841565 4.05437,17.425132 3.10696,13.023076 7.71759,33.88487 7.97489,36.084184 0.25373,2.168848 -0.9205,4.9883 -2.35439,5.653122 -0.99085,0.459407 -77.172455,0.671191 -85.472075,0.237613 z m 78.245582,-14.574531 -0.15981,-1.38896 -36.365497,-0.135906 -36.365491,-0.135906 -0.883884,1.075742 c -0.486136,0.591661 -0.883883,1.277853 -0.883883,1.524865 0,0.258069 15.913559,0.449124 37.409191,0.449124 H 104.30354 Z M 80.347856,77.678882 c 11.445866,-0.183517 21.080524,-0.50045 21.410354,-0.704296 0.52989,-0.327486 -0.42659,-5.393396 -2.402374,-12.724035 -0.223032,-0.827505 -1.919381,-0.883704 -26.594428,-0.881067 -16.571596,0.0018 -27.053526,0.196484 -28.234549,0.524486 -1.033093,0.286918 -2.51268,1.055421 -3.287969,1.707785 -1.305238,1.098285 -6.702973,10.234314 -6.702973,11.345232 0,0.270357 0.51139,0.590055 1.136422,0.710445 1.893343,0.36467 22.647251,0.374635 44.675517,0.02147 z"
       id="path968"
       inkscape:connector-curvature="0"
       transform="matrix(0.26458333,0,0,0.26458333,39.440153,92.217682)" />
    <path
       style="fill:#ffffff;fill-opacity:0;stroke-width:0.50507629"
       d="m 25.898138,97.260366 c -6.269811,-0.327542 -6.811239,-0.539447 -8.262157,-3.23364 l -0.904674,-1.679873 2.814266,-5.777527 C 25.622578,74.093579 32.79265,61.692709 35.60384,58.796033 c 5.180679,-5.338219 6.111243,-5.470599 38.706834,-5.506367 l 22.349625,-0.02452 -0.01808,-1.641498 c -0.01,-0.902824 -0.749583,-4.594127 -1.643614,-8.202896 C 93.41476,37.027624 93.334266,36.85105 91.859958,36.535707 91.027744,36.357704 81.710041,36.162695 71.153947,36.102356 60.597853,36.042016 50.710985,35.844662 49.183129,35.663791 c -2.537956,-0.300449 -2.862061,-0.486006 -3.751986,-2.148085 -0.964239,-1.800873 -0.963966,-1.836545 0.02701,-3.535534 l 1.001078,-1.716306 9.821976,-0.397333 c 13.07157,-0.528792 42.200015,-0.258685 42.848624,0.397333 0.274656,0.277792 1.429139,4.596194 2.565509,9.596449 1.13639,5.000255 2.96085,12.841565 4.05437,17.425132 3.10696,13.023076 7.71759,33.88487 7.97489,36.084184 0.25373,2.168848 -0.9205,4.9883 -2.35439,5.653122 -0.99085,0.459407 -77.172455,0.671191 -85.472075,0.237613 z m 78.245582,-14.574531 -0.15981,-1.38896 -36.365497,-0.135906 -36.365491,-0.135906 -0.883884,1.075742 c -0.486136,0.591661 -0.883883,1.277853 -0.883883,1.524865 0,0.258069 15.913559,0.449124 37.409191,0.449124 H 104.30354 Z M 80.347856,77.678882 c 11.445866,-0.183517 21.080524,-0.50045 21.410354,-0.704296 0.52989,-0.327486 -0.42659,-5.393396 -2.402374,-12.724035 -0.223032,-0.827505 -1.919381,-0.883704 -26.594428,-0.881067 -16.571596,0.0018 -27.053526,0.196484 -28.234549,0.524486 -1.033093,0.286918 -2.51268,1.055421 -3.287969,1.707785 -1.305238,1.098285 -6.702973,10.234314 -6.702973,11.345232 0,0.270357 0.51139,0.590055 1.136422,0.710445 1.893343,0.36467 22.647251,0.374635 44.675517,0.02147 z"
       id="path989"
       inkscape:connector-curvature="0"
       transform="matrix(0.26458333,0,0,0.26458333,39.440153,92.217682)" />
    <path
       style="fill:#ffffff;fill-opacity:0;stroke-width:0.50507629"
       d="m 25.898138,97.260366 c -6.269811,-0.327542 -6.811239,-0.539447 -8.262157,-3.23364 l -0.904674,-1.679873 2.814266,-5.777527 C 25.622578,74.093579 32.79265,61.692709 35.60384,58.796033 c 5.180679,-5.338219 6.111243,-5.470599 38.706834,-5.506367 l 22.349625,-0.02452 -0.01808,-1.641498 c -0.01,-0.902824 -0.749583,-4.594127 -1.643614,-8.202896 C 93.41476,37.027624 93.334266,36.85105 91.859958,36.535707 91.027744,36.357704 81.710041,36.162695 71.153947,36.102356 60.597853,36.042016 50.710985,35.844662 49.183129,35.663791 c -2.537956,-0.300449 -2.862061,-0.486006 -3.751986,-2.148085 -0.964239,-1.800873 -0.963966,-1.836545 0.02701,-3.535534 l 1.001078,-1.716306 9.821976,-0.397333 c 13.07157,-0.528792 42.200015,-0.258685 42.848624,0.397333 0.274656,0.277792 1.429139,4.596194 2.565509,9.596449 1.13639,5.000255 2.96085,12.841565 4.05437,17.425132 3.10696,13.023076 7.71759,33.88487 7.97489,36.084184 0.25373,2.168848 -0.9205,4.9883 -2.35439,5.653122 -0.99085,0.459407 -77.172455,0.671191 -85.472075,0.237613 z m 78.245582,-14.574531 -0.15981,-1.38896 -36.365497,-0.135906 -36.365491,-0.135906 -0.883884,1.075742 c -0.486136,0.591661 -0.883883,1.277853 -0.883883,1.524865 0,0.258069 15.913559,0.449124 37.409191,0.449124 H 104.30354 Z M 80.347856,77.678882 c 11.445866,-0.183517 21.080524,-0.50045 21.410354,-0.704296 0.52989,-0.327486 -0.42659,-5.393396 -2.402374,-12.724035 -0.223032,-0.827505 -1.919381,-0.883704 -26.594428,-0.881067 -16.571596,0.0018 -27.053526,0.196484 -28.234549,0.524486 -1.033093,0.286918 -2.51268,1.055421 -3.287969,1.707785 -1.305238,1.098285 -6.702973,10.234314 -6.702973,11.345232 0,0.270357 0.51139,0.590055 1.136422,0.710445 1.893343,0.36467 22.647251,0.374635 44.675517,0.02147 z"
       id="path991"
       inkscape:connector-curvature="0"
       transform="matrix(0.26458333,0,0,0.26458333,39.440153,92.217682)" />
    <path
       style="fill:#ffffff;fill-opacity:0;stroke-width:0.50507629"
       d="m 25.898138,97.260366 c -6.269811,-0.327542 -6.811239,-0.539447 -8.262157,-3.23364 l -0.904674,-1.679873 2.814266,-5.777527 C 25.622578,74.093579 32.79265,61.692709 35.60384,58.796033 c 5.180679,-5.338219 6.111243,-5.470599 38.706834,-5.506367 l 22.349625,-0.02452 -0.01808,-1.641498 c -0.01,-0.902824 -0.749583,-4.594127 -1.643614,-8.202896 C 93.41476,37.027624 93.334266,36.85105 91.859958,36.535707 91.027744,36.357704 81.710041,36.162695 71.153947,36.102356 60.597853,36.042016 50.710985,35.844662 49.183129,35.663791 c -2.537956,-0.300449 -2.862061,-0.486006 -3.751986,-2.148085 -0.964239,-1.800873 -0.963966,-1.836545 0.02701,-3.535534 l 1.001078,-1.716306 9.821976,-0.397333 c 13.07157,-0.528792 42.200015,-0.258685 42.848624,0.397333 0.274656,0.277792 1.429139,4.596194 2.565509,9.596449 1.13639,5.000255 2.96085,12.841565 4.05437,17.425132 3.10696,13.023076 7.71759,33.88487 7.97489,36.084184 0.25373,2.168848 -0.9205,4.9883 -2.35439,5.653122 -0.99085,0.459407 -77.172455,0.671191 -85.472075,0.237613 z m 78.245582,-14.574531 -0.15981,-1.38896 -36.365497,-0.135906 -36.365491,-0.135906 -0.883884,1.075742 c -0.486136,0.591661 -0.883883,1.277853 -0.883883,1.524865 0,0.258069 15.913559,0.449124 37.409191,0.449124 H 104.30354 Z M 80.347856,77.678882 c 11.445866,-0.183517 21.080524,-0.50045 21.410354,-0.704296 0.52989,-0.327486 -0.42659,-5.393396 -2.402374,-12.724035 -0.223032,-0.827505 -1.919381,-0.883704 -26.594428,-0.881067 -16.571596,0.0018 -27.053526,0.196484 -28.234549,0.524486 -1.033093,0.286918 -2.51268,1.055421 -3.287969,1.707785 -1.305238,1.098285 -6.702973,10.234314 -6.702973,11.345232 0,0.270357 0.51139,0.590055 1.136422,0.710445 1.893343,0.36467 22.647251,0.374635 44.675517,0.02147 z"
       id="path993"
       inkscape:connector-curvature="0"
       transform="matrix(0.26458333,0,0,0.26458333,39.440153,92.217682)" />
    <path
       style="fill:#ffffff;fill-opacity:0;stroke-width:0.50507629"
       d="M 58.52704,133.83567 C 41.793681,130.73285 31.810275,125.6719 20.251248,114.43227 10.954206,105.39213 5.5205761,96.032576 2.1792952,83.302906 0.80927288,78.083373 0.55557483,76.113277 0.3246132,68.900343 0.11304397,62.293042 0.23231385,59.679474 0.89455516,56.411176 3.9567715,41.298519 9.8982423,29.924007 20.118855,19.607662 29.316918,10.323445 40.555824,4.2556906 53.884551,1.3779577 58.999595,0.2735963 74.325922,0.13798544 79.701873,1.1495201 c 8.352209,1.5715458 18.460073,5.8023244 26.519477,11.1000769 3.86394,2.539911 11.87455,10.58524 15.66034,15.728195 5.31302,7.217711 9.45435,16.774673 11.39764,26.302422 0.71315,3.496496 0.8228,6.118888 0.62191,14.873193 -0.26599,11.590914 -0.90751,15.003023 -4.42937,23.55899 -5.28753,12.845473 -16.66135,25.672483 -29.04839,32.759803 -8.150688,4.66347 -18.186083,7.77665 -27.754304,8.60993 -7.059794,0.61483 -9.750088,0.56795 -14.142136,-0.24646 z m 52.78047,-36.769632 c 1.69761,-0.84824 3.14566,-3.753666 2.82473,-5.667638 C 113.70262,88.83628 101.73943,36.499487 100.48778,31.706403 100.06737,30.096474 99.31843,28.483139 98.82347,28.121215 98.105762,27.596413 92.77555,27.4931 72.499082,27.61098 l -25.424462,0.14781 -1.218589,1.417125 c -1.604672,1.866111 -1.546244,3.636224 0.176902,5.35937 l 1.395491,1.395491 22.469363,0.359215 c 16.422217,0.26254 22.618573,0.522188 23.023786,0.96477 0.558705,0.610235 3.753611,13.500763 3.743933,15.105698 -0.005,0.801339 -1.929325,0.873605 -26.900518,1.010153 l -26.895312,0.147068 -2.696134,1.49344 c -4.348136,2.408522 -7.264153,6.136702 -13.053632,16.689306 -6.09256,11.105036 -10.261662,19.535653 -10.261662,20.750786 0,1.613779 2.057264,4.229973 3.700225,4.705528 0.914735,0.264771 20.471065,0.480373 45.544712,0.502116 34.189815,0.02965 44.221865,-0.101914 45.204325,-0.592818 z"
       id="path995"
       inkscape:connector-curvature="0"
       transform="matrix(0.26458333,0,0,0.26458333,39.440153,92.217682)" />
    <path
       style="fill:#ffffff;fill-opacity:0;stroke-width:0.50507629"
       d="m 34.852307,77.10704 c -0.3139,-0.507901 4.428189,-9.047245 5.903985,-10.631635 2.717387,-2.917343 1.819539,-2.830287 31.157894,-3.021101 l 27.024204,-0.175763 1.38689,5.978709 c 0.7628,3.28829 1.38665,6.341382 1.38634,6.784649 -4.7e-4,0.678511 -1.01875,0.857868 -6.440281,1.134373 -9.204692,0.469451 -60.122166,0.411107 -60.419032,-0.06923 z"
       id="path997"
       inkscape:connector-curvature="0"
       transform="matrix(0.26458333,0,0,0.26458333,39.440153,92.217682)" />
    <path
       style="fill:#ffffff;fill-opacity:0;stroke-width:0.50507629"
       d="m 34.852307,77.10704 c -0.3139,-0.507901 4.428189,-9.047245 5.903985,-10.631635 2.717387,-2.917343 1.819539,-2.830287 31.157894,-3.021101 l 27.024204,-0.175763 1.38689,5.978709 c 0.7628,3.28829 1.38665,6.341382 1.38634,6.784649 -4.7e-4,0.678511 -1.01875,0.857868 -6.440281,1.134373 -9.204692,0.469451 -60.122166,0.411107 -60.419032,-0.06923 z"
       id="path999"
       inkscape:connector-curvature="0"
       transform="matrix(0.26458333,0,0,0.26458333,39.440153,92.217682)" />
    <path
       style="fill:#ffffff;fill-opacity:0;stroke-width:0.50507629"
       d="m 25.898138,97.260366 c -6.269811,-0.327542 -6.811239,-0.539447 -8.262157,-3.23364 l -0.904674,-1.679873 2.814266,-5.777527 C 25.622578,74.093579 32.79265,61.692709 35.60384,58.796033 c 5.180679,-5.338219 6.111243,-5.470599 38.706834,-5.506367 l 22.349625,-0.02452 -0.01808,-1.641498 c -0.01,-0.902824 -0.749583,-4.594127 -1.643614,-8.202896 C 93.41476,37.027624 93.334266,36.85105 91.859958,36.535707 91.027744,36.357704 81.710041,36.162695 71.153947,36.102356 60.597853,36.042016 50.710985,35.844662 49.183129,35.663791 c -2.537956,-0.300449 -2.862061,-0.486006 -3.751986,-2.148085 -0.964239,-1.800873 -0.963966,-1.836545 0.02701,-3.535534 l 1.001078,-1.716306 9.821976,-0.397333 c 13.07157,-0.528792 42.200015,-0.258685 42.848624,0.397333 0.274656,0.277792 1.429139,4.596194 2.565509,9.596449 1.13639,5.000255 2.96085,12.841565 4.05437,17.425132 3.10696,13.023076 7.71759,33.88487 7.97489,36.084184 0.25373,2.168848 -0.9205,4.9883 -2.35439,5.653122 -0.99085,0.459407 -77.172455,0.671191 -85.472075,0.237613 z m 78.245582,-14.574531 -0.15981,-1.38896 -36.365497,-0.135906 -36.365491,-0.135906 -0.883884,1.075742 c -0.486136,0.591661 -0.883883,1.277853 -0.883883,1.524865 0,0.258069 15.913559,0.449124 37.409191,0.449124 H 104.30354 Z M 80.347856,77.678882 c 11.445866,-0.183517 21.080524,-0.50045 21.410354,-0.704296 0.52989,-0.327486 -0.42659,-5.393396 -2.402374,-12.724035 -0.223032,-0.827505 -1.919381,-0.883704 -26.594428,-0.881067 -16.571596,0.0018 -27.053526,0.196484 -28.234549,0.524486 -1.033093,0.286918 -2.51268,1.055421 -3.287969,1.707785 -1.305238,1.098285 -6.702973,10.234314 -6.702973,11.345232 0,0.270357 0.51139,0.590055 1.136422,0.710445 1.893343,0.36467 22.647251,0.374635 44.675517,0.02147 z"
       id="path1001"
       inkscape:connector-curvature="0"
       transform="matrix(0.26458333,0,0,0.26458333,39.440153,92.217682)" />
    <path
       style="fill:#ffffff;fill-opacity:0;stroke-width:0.50507629"
       d="M 75.412109 27.585938 C 72.308874 27.583912 69.263704 27.607857 66.324219 27.642578 C 65.146699 27.656581 64.009155 27.66915 62.902344 27.689453 C 62.383871 27.69889 61.868011 27.707892 61.369141 27.71875 C 59.522965 27.759133 57.774669 27.806773 56.28125 27.867188 L 46.458984 28.263672 L 45.458984 29.980469 C 45.087368 30.61759 44.854128 31.02098 44.759766 31.371094 C 44.602496 31.954617 44.828991 32.390079 45.431641 33.515625 C 45.542881 33.723385 45.645153 33.907539 45.744141 34.072266 C 45.942116 34.401719 46.125731 34.651083 46.339844 34.845703 C 46.661013 35.137633 47.048606 35.307122 47.650391 35.435547 C 47.650391 35.435547 47.652344 35.435547 47.652344 35.435547 C 48.05327 35.521013 48.549895 35.589045 49.183594 35.664062 C 49.565558 35.70928 50.468703 35.755902 51.775391 35.800781 C 51.775391 35.800781 51.777344 35.800781 51.777344 35.800781 C 55.697838 35.9354 63.238255 36.056314 71.154297 36.101562 C 73.79332 36.116647 76.353621 36.140373 78.724609 36.169922 C 78.724609 36.169922 78.726562 36.169922 78.726562 36.169922 C 85.838461 36.25857 91.235278 36.401668 91.859375 36.535156 C 92.227952 36.613992 92.510382 36.684912 92.75 36.845703 C 92.86981 36.926086 92.977485 37.027909 93.082031 37.166016 C 93.082031 37.166016 93.083984 37.167969 93.083984 37.167969 C 93.292541 37.44419 93.481795 37.860974 93.697266 38.515625 C 94.02117 39.499786 94.404105 41.022499 94.998047 43.419922 C 95.892078 47.028691 96.632578 50.720223 96.642578 51.623047 L 96.660156 53.265625 L 74.310547 53.289062 C 66.161649 53.298004 59.992196 53.313078 55.240234 53.414062 C 46.924333 53.59055 42.951367 54.029867 40.3125 55.160156 C 40.3125 55.160156 40.310547 55.162109 40.310547 55.162109 C 39.557661 55.484816 38.912161 55.863381 38.306641 56.308594 C 37.70045 56.7543 37.131917 57.267038 36.533203 57.855469 C 36.233846 58.149684 35.927308 58.463236 35.603516 58.796875 C 35.427816 58.977917 35.235766 59.194274 35.027344 59.447266 C 35.027344 59.447266 35.027344 59.449219 35.027344 59.449219 C 34.819171 59.701952 34.593615 59.988708 34.355469 60.308594 C 34.355469 60.308594 34.355469 60.310547 34.355469 60.310547 C 33.40168 61.591825 32.218661 63.392325 30.890625 65.566406 C 30.890625 65.566406 30.888672 65.568359 30.888672 65.568359 C 30.22485 66.655124 29.52424 67.835221 28.798828 69.089844 C 27.347016 71.600503 25.793385 74.410973 24.222656 77.373047 C 22.651958 80.335291 21.064173 83.449423 19.544922 86.568359 L 16.730469 92.347656 L 17.636719 94.027344 C 18.724907 96.047988 19.300651 96.672023 22.166016 96.996094 C 23.121137 97.104117 24.330985 97.17788 25.898438 97.259766 C 26.935889 97.313963 29.032784 97.357772 31.912109 97.392578 C 31.912109 97.392578 31.914062 97.392578 31.914062 97.392578 C 49.191201 97.601391 94.589532 97.47705 107.75391 97.183594 C 109.94805 97.134718 111.24724 97.080862 111.37109 97.023438 C 111.55033 96.940335 111.72374 96.82269 111.89258 96.677734 C 112.06187 96.532517 112.22467 96.360478 112.37891 96.164062 C 112.53279 95.968212 112.67814 95.74946 112.8125 95.513672 C 113.08111 95.041957 113.30562 94.501263 113.46875 93.935547 C 113.71361 93.087179 113.81976 92.182459 113.72461 91.369141 C 113.69243 91.094059 113.59248 90.527841 113.43555 89.720703 C 113.27879 88.914352 113.06512 87.869035 112.80664 86.634766 C 112.28967 84.166208 111.59324 80.945842 110.80664 77.386719 C 109.23352 70.268521 107.30348 61.796694 105.75 55.285156 C 104.65648 50.701589 102.8317 42.85963 101.69531 37.859375 C 101.41105 36.608547 101.12599 35.401978 100.85352 34.289062 C 100.58111 33.176782 100.32246 32.160601 100.08984 31.291016 C 99.624849 29.551659 99.266234 28.402568 99.128906 28.263672 C 99.093325 28.227684 98.943773 28.193764 98.744141 28.160156 C 98.69121 28.151163 98.642138 28.141629 98.578125 28.132812 C 98.472117 28.118279 98.303068 28.105842 98.167969 28.091797 C 97.931728 28.067228 97.646217 28.044501 97.326172 28.021484 C 96.907561 27.991285 96.265989 27.966868 95.716797 27.939453 C 94.778168 27.892682 93.751679 27.848617 92.492188 27.810547 C 91.72242 27.78712 90.949646 27.766044 90.082031 27.746094 C 88.787721 27.716418 87.414586 27.69337 85.951172 27.671875 C 84.9823 27.657547 84.092578 27.641395 83.070312 27.630859 C 80.596539 27.605416 78.030017 27.587645 75.412109 27.585938 z M 72.761719 63.369141 C 77.110774 63.368676 79.96867 63.375773 83.007812 63.382812 L 71.914062 63.455078 C 42.575708 63.645892 43.473246 63.557266 40.755859 66.474609 C 39.280063 68.058999 34.537663 76.599521 34.851562 77.107422 C 35.148428 77.587759 86.066792 77.645232 95.271484 77.175781 C 100.69302 76.899276 101.71047 76.719527 101.71094 76.041016 C 101.71125 75.597749 101.08897 72.546102 100.32617 69.257812 L 99.091797 63.939453 C 99.112355 63.951217 99.142571 63.962362 99.160156 63.974609 C 99.276925 64.055539 99.327494 64.146207 99.355469 64.25 C 101.33125 71.580639 102.2877 76.647123 101.75781 76.974609 C 101.5929 77.076532 99.10133 77.206331 95.220703 77.333984 C 91.340077 77.461638 86.070589 77.587929 80.347656 77.679688 C 69.333523 77.856269 58.637662 77.941429 50.458984 77.9375 C 42.280306 77.933571 36.618546 77.840538 35.671875 77.658203 C 35.359359 77.598008 35.075117 77.488143 34.869141 77.359375 C 34.766152 77.294991 34.682709 77.224169 34.625 77.154297 C 34.567291 77.084425 34.535156 77.014855 34.535156 76.947266 C 34.535156 76.808401 34.619388 76.543824 34.769531 76.185547 C 35.069818 75.468993 35.634066 74.375931 36.3125 73.158203 C 37.330152 71.331611 38.606245 69.224101 39.640625 67.681641 C 40.330212 66.653333 40.911972 65.876134 41.238281 65.601562 C 41.625926 65.275382 42.191165 64.920864 42.787109 64.611328 C 43.383327 64.301981 44.010797 64.03799 44.527344 63.894531 C 45.708367 63.566529 56.190123 63.370941 72.761719 63.369141 z M 31.251953 81.025391 L 67.619141 81.160156 L 103.98438 81.296875 L 104.14453 82.685547 L 104.30273 84.074219 L 66.894531 84.074219 C 45.398901 84.074219 29.484375 83.883069 29.484375 83.625 C 29.484375 83.562991 29.50945 83.474154 29.554688 83.365234 C 29.599654 83.257057 29.663928 83.130199 29.744141 82.992188 C 29.904344 82.715805 30.126073 82.397393 30.369141 82.101562 L 31.251953 81.025391 z "
       transform="matrix(0.26458333,0,0,0.26458333,39.440153,92.217682)"
       id="path1003" />
    <path
       style="fill:#ffffff;fill-opacity:0;stroke-width:0.50507629"
       d="m 34.852307,77.10704 c -0.3139,-0.507901 4.428189,-9.047245 5.903985,-10.631635 2.717387,-2.917343 1.819539,-2.830287 31.157894,-3.021101 l 27.024204,-0.175763 1.38689,5.978709 c 0.7628,3.28829 1.38665,6.341382 1.38634,6.784649 -4.7e-4,0.678511 -1.01875,0.857868 -6.440281,1.134373 -9.204692,0.469451 -60.122166,0.411107 -60.419032,-0.06923 z"
       id="path1014"
       inkscape:connector-curvature="0"
       transform="matrix(0.26458333,0,0,0.26458333,39.440153,92.217682)" />
    <path
       style="fill:#ffffff;fill-opacity:0;stroke-width:0.50507629"
       d="m 34.852307,77.10704 c -0.3139,-0.507901 4.428189,-9.047245 5.903985,-10.631635 2.717387,-2.917343 1.819539,-2.830287 31.157894,-3.021101 l 27.024204,-0.175763 1.38689,5.978709 c 0.7628,3.28829 1.38665,6.341382 1.38634,6.784649 -4.7e-4,0.678511 -1.01875,0.857868 -6.440281,1.134373 -9.204692,0.469451 -60.122166,0.411107 -60.419032,-0.06923 z"
       id="path1016"
       inkscape:connector-curvature="0"
       transform="matrix(0.26458333,0,0,0.26458333,39.440153,92.217682)" />
    <path
       style="fill:#ffffff;fill-opacity:0;stroke-width:0.50507629"
       d="m 34.852307,77.10704 c -0.3139,-0.507901 4.428189,-9.047245 5.903985,-10.631635 2.717387,-2.917343 1.819539,-2.830287 31.157894,-3.021101 l 27.024204,-0.175763 1.38689,5.978709 c 0.7628,3.28829 1.38665,6.341382 1.38634,6.784649 -4.7e-4,0.678511 -1.01875,0.857868 -6.440281,1.134373 -9.204692,0.469451 -60.122166,0.411107 -60.419032,-0.06923 z"
       id="path1018"
       inkscape:connector-curvature="0"
       transform="matrix(0.26458333,0,0,0.26458333,39.440153,92.217682)" />
    <path
       style="fill:#ffffff;fill-opacity:0;stroke-width:0.50507629"
       d="m 25.898138,97.260366 c -6.269811,-0.327542 -6.811239,-0.539447 -8.262157,-3.23364 l -0.904674,-1.679873 2.814266,-5.777527 C 25.622578,74.093579 32.79265,61.692709 35.60384,58.796033 c 5.180679,-5.338219 6.111243,-5.470599 38.706834,-5.506367 l 22.349625,-0.02452 -0.01808,-1.641498 c -0.01,-0.902824 -0.749583,-4.594127 -1.643614,-8.202896 C 93.41476,37.027624 93.334266,36.85105 91.859958,36.535707 91.027744,36.357704 81.710041,36.162695 71.153947,36.102356 60.597853,36.042016 50.710985,35.844662 49.183129,35.663791 c -2.537956,-0.300449 -2.862061,-0.486006 -3.751986,-2.148085 -0.964239,-1.800873 -0.963966,-1.836545 0.02701,-3.535534 l 1.001078,-1.716306 9.821976,-0.397333 c 13.07157,-0.528792 42.200015,-0.258685 42.848624,0.397333 0.274656,0.277792 1.429139,4.596194 2.565509,9.596449 1.13639,5.000255 2.96085,12.841565 4.05437,17.425132 3.10696,13.023076 7.71759,33.88487 7.97489,36.084184 0.25373,2.168848 -0.9205,4.9883 -2.35439,5.653122 -0.99085,0.459407 -77.172455,0.671191 -85.472075,0.237613 z m 78.245582,-14.574531 -0.15981,-1.38896 -36.365497,-0.135906 -36.365491,-0.135906 -0.883884,1.075742 c -0.486136,0.591661 -0.883883,1.277853 -0.883883,1.524865 0,0.258069 15.913559,0.449124 37.409191,0.449124 H 104.30354 Z M 80.347856,77.678882 c 11.445866,-0.183517 21.080524,-0.50045 21.410354,-0.704296 0.52989,-0.327486 -0.42659,-5.393396 -2.402374,-12.724035 -0.223032,-0.827505 -1.919381,-0.883704 -26.594428,-0.881067 -16.571596,0.0018 -27.053526,0.196484 -28.234549,0.524486 -1.033093,0.286918 -2.51268,1.055421 -3.287969,1.707785 -1.305238,1.098285 -6.702973,10.234314 -6.702973,11.345232 0,0.270357 0.51139,0.590055 1.136422,0.710445 1.893343,0.36467 22.647251,0.374635 44.675517,0.02147 z"
       id="path1020"
       inkscape:connector-curvature="0"
       transform="matrix(0.26458333,0,0,0.26458333,39.440153,92.217682)" />
    <path
       style="fill:#ffffff;fill-opacity:0;stroke-width:0.50507629"
       d="m 25.898138,97.260366 c -6.269811,-0.327542 -6.811239,-0.539447 -8.262157,-3.23364 l -0.904674,-1.679873 2.814266,-5.777527 C 25.622578,74.093579 32.79265,61.692709 35.60384,58.796033 c 5.180679,-5.338219 6.111243,-5.470599 38.706834,-5.506367 l 22.349625,-0.02452 -0.01808,-1.641498 c -0.01,-0.902824 -0.749583,-4.594127 -1.643614,-8.202896 C 93.41476,37.027624 93.334266,36.85105 91.859958,36.535707 91.027744,36.357704 81.710041,36.162695 71.153947,36.102356 60.597853,36.042016 50.710985,35.844662 49.183129,35.663791 c -2.537956,-0.300449 -2.862061,-0.486006 -3.751986,-2.148085 -0.964239,-1.800873 -0.963966,-1.836545 0.02701,-3.535534 l 1.001078,-1.716306 9.821976,-0.397333 c 13.07157,-0.528792 42.200015,-0.258685 42.848624,0.397333 0.274656,0.277792 1.429139,4.596194 2.565509,9.596449 1.13639,5.000255 2.96085,12.841565 4.05437,17.425132 3.10696,13.023076 7.71759,33.88487 7.97489,36.084184 0.25373,2.168848 -0.9205,4.9883 -2.35439,5.653122 -0.99085,0.459407 -77.172455,0.671191 -85.472075,0.237613 z m 78.245582,-14.574531 -0.15981,-1.38896 -36.365497,-0.135906 -36.365491,-0.135906 -0.883884,1.075742 c -0.486136,0.591661 -0.883883,1.277853 -0.883883,1.524865 0,0.258069 15.913559,0.449124 37.409191,0.449124 H 104.30354 Z M 80.347856,77.678882 c 11.445866,-0.183517 21.080524,-0.50045 21.410354,-0.704296 0.52989,-0.327486 -0.42659,-5.393396 -2.402374,-12.724035 -0.223032,-0.827505 -1.919381,-0.883704 -26.594428,-0.881067 -16.571596,0.0018 -27.053526,0.196484 -28.234549,0.524486 -1.033093,0.286918 -2.51268,1.055421 -3.287969,1.707785 -1.305238,1.098285 -6.702973,10.234314 -6.702973,11.345232 0,0.270357 0.51139,0.590055 1.136422,0.710445 1.893343,0.36467 22.647251,0.374635 44.675517,0.02147 z"
       id="path1022"
       inkscape:connector-curvature="0"
       transform="matrix(0.26458333,0,0,0.26458333,39.440153,92.217682)" />
    <path
       style="fill:#ffffff;fill-opacity:0.01544402;stroke-width:0.50507629"
       d="M 58.52704,133.83567 C 41.793681,130.73285 31.810275,125.6719 20.251248,114.43227 10.954206,105.39213 5.5205761,96.032576 2.1792952,83.302906 0.80927288,78.083373 0.55557483,76.113277 0.3246132,68.900343 0.11304397,62.293042 0.23231385,59.679474 0.89455516,56.411176 3.9567715,41.298519 9.8982423,29.924007 20.118855,19.607662 29.316918,10.323445 40.555824,4.2556906 53.884551,1.3779577 58.999595,0.2735963 74.325922,0.13798544 79.701873,1.1495201 c 8.352209,1.5715458 18.460073,5.8023244 26.519477,11.1000769 3.86394,2.539911 11.87455,10.58524 15.66034,15.728195 5.31302,7.217711 9.45435,16.774673 11.39764,26.302422 0.71315,3.496496 0.8228,6.118888 0.62191,14.873193 -0.26599,11.590914 -0.90751,15.003023 -4.42937,23.55899 -5.28753,12.845473 -16.66135,25.672483 -29.04839,32.759803 -8.150688,4.66347 -18.186083,7.77665 -27.754304,8.60993 -7.059794,0.61483 -9.750088,0.56795 -14.142136,-0.24646 z m 52.78047,-36.769632 c 1.69761,-0.84824 3.14566,-3.753666 2.82473,-5.667638 C 113.70262,88.83628 101.73943,36.499487 100.48778,31.706403 100.06737,30.096474 99.31843,28.483139 98.82347,28.121215 98.105762,27.596413 92.77555,27.4931 72.499082,27.61098 l -25.424462,0.14781 -1.218589,1.417125 c -1.604672,1.866111 -1.546244,3.636224 0.176902,5.35937 l 1.395491,1.395491 22.469363,0.359215 c 16.422217,0.26254 22.618573,0.522188 23.023786,0.96477 0.558705,0.610235 3.753611,13.500763 3.743933,15.105698 -0.005,0.801339 -1.929325,0.873605 -26.900518,1.010153 l -26.895312,0.147068 -2.696134,1.49344 c -4.348136,2.408522 -7.264153,6.136702 -13.053632,16.689306 -6.09256,11.105036 -10.261662,19.535653 -10.261662,20.750786 0,1.613779 2.057264,4.229973 3.700225,4.705528 0.914735,0.264771 20.471065,0.480373 45.544712,0.502116 34.189815,0.02965 44.221865,-0.101914 45.204325,-0.592818 z"
       id="path1024"
       inkscape:connector-curvature="0"
       transform="matrix(0.26458333,0,0,0.26458333,39.440153,92.217682)" />
    <path
       style="fill:#ffffff;fill-opacity:1;stroke-width:0.50507629"
       d="m 25.898138,97.260366 c -6.269811,-0.327542 -6.811239,-0.539447 -8.262157,-3.23364 l -0.904674,-1.679873 2.814266,-5.777527 C 25.622578,74.093579 32.79265,61.692709 35.60384,58.796033 c 5.180679,-5.338219 6.111243,-5.470599 38.706834,-5.506367 l 22.349625,-0.02452 -0.01808,-1.641498 c -0.01,-0.902824 -0.749583,-4.594127 -1.643614,-8.202896 C 93.41476,37.027624 93.334266,36.85105 91.859958,36.535707 91.027744,36.357704 81.710041,36.162695 71.153947,36.102356 60.597853,36.042016 50.710985,35.844662 49.183129,35.663791 c -2.537956,-0.300449 -2.862061,-0.486006 -3.751986,-2.148085 -0.964239,-1.800873 -0.963966,-1.836545 0.02701,-3.535534 l 1.001078,-1.716306 9.821976,-0.397333 c 13.07157,-0.528792 42.200015,-0.258685 42.848624,0.397333 0.274656,0.277792 1.429139,4.596194 2.565509,9.596449 1.13639,5.000255 2.96085,12.841565 4.05437,17.425132 3.10696,13.023076 7.71759,33.88487 7.97489,36.084184 0.25373,2.168848 -0.9205,4.9883 -2.35439,5.653122 -0.99085,0.459407 -77.172455,0.671191 -85.472075,0.237613 z m 78.245582,-14.574531 -0.15981,-1.38896 -36.365497,-0.135906 -36.365491,-0.135906 -0.883884,1.075742 c -0.486136,0.591661 -0.883883,1.277853 -0.883883,1.524865 0,0.258069 15.913559,0.449124 37.409191,0.449124 H 104.30354 Z M 80.347856,77.678882 c 11.445866,-0.183517 21.080524,-0.50045 21.410354,-0.704296 0.52989,-0.327486 -0.42659,-5.393396 -2.402374,-12.724035 -0.223032,-0.827505 -1.919381,-0.883704 -26.594428,-0.881067 -16.571596,0.0018 -27.053526,0.196484 -28.234549,0.524486 -1.033093,0.286918 -2.51268,1.055421 -3.287969,1.707785 -1.305238,1.098285 -6.702973,10.234314 -6.702973,11.345232 0,0.270357 0.51139,0.590055 1.136422,0.710445 1.893343,0.36467 22.647251,0.374635 44.675517,0.02147 z"
       id="path1026"
       inkscape:connector-curvature="0"
       transform="matrix(0.26458333,0,0,0.26458333,39.440153,92.217682)" />
  </g>
</svg>
