<?xml version="1.0" encoding="UTF-8" standalone="no"?>
<!-- Created with Inkscape (http://www.inkscape.org/) -->

<svg
   version="1.1"
   id="svg2"
   width="1251.1047"
   height="1016.5337"
   viewBox="0 0 1251.1047 1016.5337"
   sodipodi:docname="twitter_icon.svg"
   inkscape:version="1.1.2 (0a00cf5339, 2022-02-04)"
   xmlns:inkscape="http://www.inkscape.org/namespaces/inkscape"
   xmlns:sodipodi="http://sodipodi.sourceforge.net/DTD/sodipodi-0.dtd"
   xmlns="http://www.w3.org/2000/svg"
   xmlns:svg="http://www.w3.org/2000/svg"
   xmlns:rdf="http://www.w3.org/1999/02/22-rdf-syntax-ns#"
   xmlns:cc="http://creativecommons.org/ns#"
   xmlns:dc="http://purl.org/dc/elements/1.1/">
  <metadata
     id="metadata8">
    <rdf:RDF>
      <cc:Work
         rdf:about="">
        <dc:format>image/svg+xml</dc:format>
        <dc:type
           rdf:resource="http://purl.org/dc/dcmitype/StillImage" />
        <dc:title />
      </cc:Work>
    </rdf:RDF>
  </metadata>
  <defs
     id="defs6" />
  <sodipodi:namedview
     pagecolor="#ffffff"
     bordercolor="#666666"
     borderopacity="1"
     objecttolerance="10"
     gridtolerance="10"
     guidetolerance="10"
     inkscape:pageopacity="0"
     inkscape:pageshadow="2"
     inkscape:window-width="2490"
     inkscape:window-height="1376"
     id="namedview4"
     showgrid="false"
     inkscape:zoom="0.23046875"
     inkscape:cx="-852.61017"
     inkscape:cy="1898.3051"
     inkscape:window-x="70"
     inkscape:window-y="27"
     inkscape:window-maximized="1"
     inkscape:current-layer="svg2"
     inkscape:pagecheckerboard="0" />
  <path
     style="fill:#78bbe6;fill-opacity:1;stroke-width:1.33333"
     d="M 350,1015.7925 C 265.269,1010.0494 187.2119,991.77482 110.6666,959.76005 79.4951,946.72268 33.8696,923.02601 10.0838,907.52008 L 0,900.9464 l 8.6666,0.72197 c 22.9185,1.90919 72.514,2.39139 91.3334,0.88801 97.4432,-7.7842 184.8893,-39.59004 263.63,-95.88733 l 14.2968,-10.22173 -5.6301,-0.88762 c -3.0965,-0.48818 -11.9107,-1.58488 -19.587,-2.43709 -31.3038,-3.47528 -69.0084,-16.22724 -96.7184,-32.71083 -44.6744,-26.57508 -78.1951,-62.4347 -101.0132,-108.06141 -6.2716,-12.54051 -15.1573,-34.88292 -14.2054,-35.71827 0.3083,-0.27057 5.9606,0.36271 12.5606,1.40728 25.3445,4.01127 69.8562,2.07602 93.3333,-4.05788 l 6.6667,-1.74181 L 246,610.48668 C 231.9656,607.13181 207.9064,598.20126 193.3333,590.93736 118.1207,553.44785 65.274,480.9864 53.4346,399.11354 51.3415,384.6393 49.2942,357.114 50.3107,357.114 c 0.3461,0 6.8678,2.9361 14.4926,6.5247 29.8117,14.0308 57.7216,21.5422 91.7294,24.687 l 8.5327,0.78907 -9.1994,-6.89077 C 107.9303,346.3176 72.762,292.66 59.2731,234.8486 46.0974,178.3794 52.8231,117.0723 77.9669,64.447298 c 9.709,-20.3206 8.9127,-19.8682 17.2804,-9.8172 31.47,37.801 74.3861,78.905202 114.568,109.731002 111.3192,85.399 241.1548,135.752 382.0425,148.1639 12.3885,1.0915 22.7909,1.718 23.1165,1.3924 0.3256,-0.3255 -0.064,-3.7895 -0.8655,-7.6977 -4.6988,-22.9084 -5.6303,-61.7533 -2.0627,-86.0185 5.6483,-38.4167 18.6825,-73.0155 39.3379,-104.4206 11.636,-17.691802 21.3165,-29.186102 38.2131,-45.373102 36.8261,-35.2796 81.8291,-58.053 133.0696,-67.3388997 16.1365,-2.92429999 55.3381,-4.05449999 72.1143,-2.07909999 56.8532,6.69439999 108.4071,30.53289969 148.0276,68.44779969 5.9447,5.6888 11.6762,10.3433 12.7366,10.3433 3.6857,0 39.6081,-9.259 54.6523,-14.0866 31.4509,-10.0925 73.6795,-28.6302 98.335,-43.1676 3.9182,-2.3103 7.4535,-3.8709 7.8563,-3.4681 2.0327,2.0327 -14.2655,38.4268 -25.233,56.3456 C 1173.456,104.3219 1144.9234,134.0371 1116,153.6745 c -5.1334,3.4853 -8.1334,6.0283 -6.6667,5.6513 1.4667,-0.3771 5.9667,-1.0869 10,-1.5773 31.2357,-3.7983 79.7071,-17.0203 115.2569,-31.4397 8.758,-3.5524 16.1701,-6.2123 16.4714,-5.911 0.892,0.892 -12.1844,19.1601 -27.3779,38.2478 -23.0429,28.9489 -66.3937,70.5798 -97.0171,93.1681 -2.5485,1.8798 -2.6745,3.6206 -2.845,39.3003 -0.1915,40.0885 -2.1728,65.9666 -7.9115,103.33332 -16.1162,104.93916 -57.0492,211.06866 -116.1862,301.24277 -85.3783,130.18788 -206.132,226.47132 -348.5168,277.89141 -57.8307,20.88466 -119.3733,34.2037 -186.019,40.2583 -26.8273,2.4372 -91.7917,3.5385 -115.1881,1.9527 z"
     id="path817"
     inkscape:connector-curvature="0" />
</svg>
