<?xml version="1.0" encoding="UTF-8" standalone="no"?>
<!-- Created with Inkscape (http://www.inkscape.org/) -->

<svg
   xmlns:dc="http://purl.org/dc/elements/1.1/"
   xmlns:cc="http://creativecommons.org/ns#"
   xmlns:rdf="http://www.w3.org/1999/02/22-rdf-syntax-ns#"
   xmlns:svg="http://www.w3.org/2000/svg"
   xmlns="http://www.w3.org/2000/svg"
   xmlns:xlink="http://www.w3.org/1999/xlink"
   xmlns:sodipodi="http://sodipodi.sourceforge.net/DTD/sodipodi-0.dtd"
   xmlns:inkscape="http://www.inkscape.org/namespaces/inkscape"
   version="1.1"
   id="svg2"
   width="1258.6667"
   height="1024"
   viewBox="0 0 1258.6667 1024"
   sodipodi:docname="twitter_bird_logo.svg"
   inkscape:version="0.92.3 (2405546, 2018-03-11)">
  <metadata
     id="metadata8">
    <rdf:RDF>
      <cc:Work
         rdf:about="">
        <dc:format>image/svg+xml</dc:format>
        <dc:type
           rdf:resource="http://purl.org/dc/dcmitype/StillImage" />
        <dc:title></dc:title>
      </cc:Work>
    </rdf:RDF>
  </metadata>
  <defs
     id="defs6" />
  <sodipodi:namedview
     pagecolor="#ffffff"
     bordercolor="#666666"
     borderopacity="1"
     objecttolerance="10"
     gridtolerance="10"
     guidetolerance="10"
     inkscape:pageopacity="0"
     inkscape:pageshadow="2"
     inkscape:window-width="1853"
     inkscape:window-height="1025"
     id="namedview4"
     showgrid="false"
     inkscape:zoom="0.23046875"
     inkscape:cx="629.33337"
     inkscape:cy="512"
     inkscape:window-x="67"
     inkscape:window-y="27"
     inkscape:window-maximized="1"
     inkscape:current-layer="svg2" />
  <image
     sodipodi:absref="/home/philipp/Schreibtisch/twitter_bird_logo.png"
     xlink:href="twitter_bird_logo.png"
     y="0"
     x="0"
     id="image10"
     preserveAspectRatio="none"
     height="1024"
     width="1258.6667" />
  <path
     style="fill:#78bbe6;stroke-width:1.33333337;fill-opacity:1"
     d="M 353.33334,1020.0119 C 268.60233,1014.2688 190.54527,995.99417 114,963.9794 82.828482,950.94203 37.202942,927.24536 13.417204,911.73943 L 3.3333334,905.16575 12,905.88772 c 22.918425,1.90919 72.513932,2.39139 91.33334,0.88801 97.44321,-7.7842 184.88933,-39.59004 263.63007,-95.88733 l 14.29672,-10.22173 -5.63005,-0.88762 c -3.09654,-0.48818 -11.91071,-1.58488 -19.58706,-2.43709 -31.3038,-3.47528 -69.00839,-16.22724 -96.71835,-32.71083 -44.6744,-26.57508 -78.19513,-62.4347 -101.01323,-108.06141 -6.27156,-12.54051 -15.15726,-34.88292 -14.20536,-35.71827 0.30832,-0.27057 5.96059,0.36271 12.56059,1.40728 25.34452,4.01127 69.85622,2.07602 93.33334,-4.05788 l 6.66666,-1.74181 -7.33333,-1.75301 C 235.29898,611.35116 211.23975,602.42061 196.66667,595.15671 121.45411,557.6672 68.60736,485.20575 56.767956,403.33289 c -2.093081,-14.47425 -4.140387,-41.99956 -3.123885,-41.99956 0.346098,0 6.867769,2.93614 14.492601,6.52475 29.811653,14.03079 57.721628,21.54216 91.729358,24.68699 l 8.53269,0.78905 -9.19936,-6.89081 C 111.26367,350.53693 76.095355,296.87932 62.606494,239.06796 49.430787,182.59872 56.156433,121.29164 81.300237,68.666667 c 9.70904,-20.32063 8.912715,-19.86823 17.280396,-9.81718 31.470037,37.801024 74.386157,78.905203 114.568067,109.730953 111.31918,85.39905 241.15477,135.75197 382.04249,148.16395 12.38848,1.09141 22.79089,1.71798 23.11648,1.3924 0.32559,-0.32559 -0.0639,-3.78956 -0.86551,-7.69771 -4.69884,-22.90844 -5.63032,-61.75329 -2.06269,-86.01853 C 621.02775,186.00384 634.062,151.405 654.71734,120 666.35339,102.30817 676.03388,90.813841 692.93043,74.626881 729.75654,39.347319 774.75957,16.573856 826.00002,7.2879687 842.13658,4.3636729 881.33817,3.2334503 898.11436,5.2088372 954.96755,11.903267 1006.5215,35.74176 1046.142,73.656689 1052.0867,79.345511 1057.8182,84 1058.8786,84 c 3.6857,0 39.6081,-9.259004 54.6523,-14.08662 31.4509,-10.092473 73.6795,-28.630231 98.335,-43.167639 3.9182,-2.31022 7.4535,-3.870838 7.8563,-3.468041 2.0327,2.032727 -14.2655,38.426784 -25.233,56.345567 -17.6998,28.918043 -46.2324,58.633133 -75.1558,78.270583 -5.1334,3.48526 -8.1334,6.02832 -6.6667,5.65127 1.4667,-0.37705 5.9667,-1.08684 10,-1.57729 31.2357,-3.79826 79.7071,-17.02027 115.2569,-31.43967 8.758,-3.55234 16.1701,-6.21229 16.4714,-5.91102 0.892,0.89202 -12.1844,19.16011 -27.3779,38.24778 -23.0429,28.94896 -66.3937,70.57984 -97.0171,93.16811 -2.5485,1.87984 -2.6745,3.62065 -2.845,39.3003 -0.1915,40.08854 -2.1728,65.96664 -7.9115,103.33334 -16.1162,104.93916 -57.0492,211.06866 -116.1862,301.24277 -85.37834,130.18788 -206.13199,226.47132 -348.51686,277.89141 -57.83066,20.88466 -119.37324,34.20375 -186.01896,40.25835 -26.82729,2.4372 -91.7917,3.5385 -115.18814,1.9527 z"
     id="path817"
     inkscape:connector-curvature="0" />
</svg>
