<?xml version="1.0" encoding="UTF-8" standalone="no"?>
<!-- Created with Inkscape (http://www.inkscape.org/) -->

<svg
   xmlns:dc="http://purl.org/dc/elements/1.1/"
   xmlns:cc="http://creativecommons.org/ns#"
   xmlns:rdf="http://www.w3.org/1999/02/22-rdf-syntax-ns#"
   xmlns:svg="http://www.w3.org/2000/svg"
   xmlns="http://www.w3.org/2000/svg"
   xmlns:sodipodi="http://sodipodi.sourceforge.net/DTD/sodipodi-0.dtd"
   xmlns:inkscape="http://www.inkscape.org/namespaces/inkscape"
   version="1.1"
   id="svg2"
   width="824.31287"
   height="513.34271"
   viewBox="0 0 824.31287 513.34271"
   sodipodi:docname="visualization.svg"
   inkscape:version="0.92.5 (2060ec1f9f, 2020-04-08)">
  <metadata
     id="metadata8">
    <rdf:RDF>
      <cc:Work
         rdf:about="">
        <dc:format>image/svg+xml</dc:format>
        <dc:type
           rdf:resource="http://purl.org/dc/dcmitype/StillImage" />
        <dc:title></dc:title>
      </cc:Work>
    </rdf:RDF>
  </metadata>
  <defs
     id="defs6" />
  <sodipodi:namedview
     pagecolor="#ffffff"
     bordercolor="#666666"
     borderopacity="1"
     objecttolerance="10"
     gridtolerance="10"
     guidetolerance="10"
     inkscape:pageopacity="0"
     inkscape:pageshadow="2"
     inkscape:window-width="1848"
     inkscape:window-height="1016"
     id="namedview4"
     showgrid="false"
     inkscape:zoom="0.80642977"
     inkscape:cx="313.61596"
     inkscape:cy="251.26636"
     inkscape:window-x="72"
     inkscape:window-y="27"
     inkscape:window-maximized="1"
     inkscape:current-layer="svg2" />
  <path
     style="fill:#000000;stroke-width:1.06666672"
     d="M 149.40816,512.85192 C 99.20791,510.22149 47.726252,493.00841 10.226543,457.03547 -12.118594,445.5794 7.9715651,433.41515 15.796176,419.2061 c 14.324972,-19.22578 28.701318,-38.50172 41.969165,-58.42297 22.698811,18.99938 49.598419,37.61051 78.286889,43.57683 28.48427,5.64261 63.785,3.86819 86.20423,-17.66161 7.38102,-9.10051 11.10411,-29.64376 6.59728,-43.18215 -6.32298,-25.96339 -36.43961,-35.34492 -60.32497,-38.49188 -19.04444,-4.62372 -45.30362,-0.15976 -61.27654,-5.58557 0,-30.28529 0,-60.57059 0,-90.85588 33.80155,-1.29363 68.92901,-0.59277 95.75976,-22.82857 17.46846,-18.57059 17.74451,-59.97793 -10.42643,-72.6381 -28.99886,-10.88684 -61.4747,-4.18187 -86.4,12.8 -14.799633,6.13054 -29.754311,34.65797 -38.933333,10.10405 C 48.414924,112.6955 28.296835,89.98836 10.262152,66.33108 20.632539,61.41358 35.677735,45.55575 43.645891,43.45444 87.732623,12.45838 141.02667,0.08027 194.71889,4.79601 c 47.78314,3.49505 99.90837,19.09797 129.82132,60.1065 26.97581,37.00816 33.28494,91.85502 9.21991,131.86036 -12.29084,22.11121 -37.73782,39.76793 -62.12944,51.35574 -4.56365,7.83951 15.39788,7.5687 21.22157,12.73092 16.70958,7.87499 32.20039,18.78226 44.59338,32.39988 3.76379,5.41028 12.75573,17.20318 16.78549,26.72642 11.47458,26.62693 11.59101,58.44854 4.75444,86.4737 -13.49242,47.62726 -58.13435,82.68394 -105.13027,95.26549 -30.92649,11.68195 -70.07216,12.50057 -104.44713,11.1369 z M 10.18556,456.21486 c -5.7178547,-6.53038 -6.2243483,-4.18711 0,0 z M 417.38999,252.35288 C 417.29959,168.23525 417.20926,84.11763 417.1189,0 c 68.28158,1.44215 136.90227,-1.89022 204.88818,4.38938 41.69354,5.37706 82.87993,18.24645 117.75681,43.61966 18.95627,14.15613 31.9042,27.37739 44.2146,46.02647 16.76403,23.95542 27.11309,52.36864 33.06598,78.93445 9.97991,48.00754 8.62807,98.31248 2.28302,146.38934 -3.53748,8.90762 -3.58146,20.16373 -7.70263,28.92274 -6.93094,25.68898 -19.98838,50.42844 -34.50596,70.432 -27.20795,36.9029 -68.92139,62.10214 -112,74.1355 -30.14538,8.53948 -63.05118,12.06298 -96.09122,10.87945 -50.45527,0.36488 -100.91106,0.65186 -151.3666,0.97678 -0.0904,-84.11763 -0.18073,-168.23526 -0.27109,-252.35289 z m 161.08827,144.15095 c 23.45839,-1.06391 47.35182,-8.7342 64.74824,-22.0543 24.7759,-18.5136 37.37781,-50.1709 41.64804,-77.76512 3.66578,-35.03896 5.00844,-73.4783 -3.0616,-107.33571 -7.79071,-33.92691 -33.89995,-67.23303 -69.56741,-74.4278 -18.62402,-8.04165 -41.63221,-5.80127 -62.32663,-7.13105 0.005,96.53101 0.009,193.06201 0.014,289.59302 9.51154,-0.17608 19.1038,0.53976 28.54536,-0.87904 z m 74.90731,-30.0543 c 11.52589,-13.2406 -14.03435,13.39821 0,0 z"
     id="path817"
     inkscape:connector-curvature="0" />
</svg>
