<?xml version="1.0" encoding="UTF-8" standalone="no"?>
<!-- Created with Inkscape (http://www.inkscape.org/) -->

<svg
   xmlns:dc="http://purl.org/dc/elements/1.1/"
   xmlns:cc="http://creativecommons.org/ns#"
   xmlns:rdf="http://www.w3.org/1999/02/22-rdf-syntax-ns#"
   xmlns:svg="http://www.w3.org/2000/svg"
   xmlns="http://www.w3.org/2000/svg"
   xmlns:sodipodi="http://sodipodi.sourceforge.net/DTD/sodipodi-0.dtd"
   xmlns:inkscape="http://www.inkscape.org/namespaces/inkscape"
   version="1.1"
   id="svg2"
   width="827.73334"
   height="827.73334"
   viewBox="0 0 827.73334 827.73334"
   sodipodi:docname="visualization.svg"
   inkscape:version="0.92.3 (2405546, 2018-03-11)">
  <metadata
     id="metadata8">
    <rdf:RDF>
      <cc:Work
         rdf:about="">
        <dc:format>image/svg+xml</dc:format>
        <dc:type
           rdf:resource="http://purl.org/dc/dcmitype/StillImage" />
        <dc:title />
      </cc:Work>
    </rdf:RDF>
  </metadata>
  <defs
     id="defs6" />
  <sodipodi:namedview
     pagecolor="#ffffff"
     bordercolor="#666666"
     borderopacity="1"
     objecttolerance="10"
     gridtolerance="10"
     guidetolerance="10"
     inkscape:pageopacity="0"
     inkscape:pageshadow="2"
     inkscape:window-width="1853"
     inkscape:window-height="1052"
     id="namedview4"
     showgrid="false"
     inkscape:zoom="0.80642977"
     inkscape:cx="437.43512"
     inkscape:cy="413.86667"
     inkscape:window-x="1987"
     inkscape:window-y="0"
     inkscape:window-maximized="1"
     inkscape:current-layer="svg2" />
  <path
     style="fill:#000000;stroke-width:1.06666672"
     d="M 152.0226,669.60239 C 101.82235,666.97196 50.340692,649.75888 12.840983,613.78594 -9.5041536,602.32987 10.586005,590.16562 18.410616,575.95657 32.735588,556.73079 47.111934,537.45485 60.379781,517.5336 c 22.698811,18.99938 49.598419,37.61051 78.286889,43.57683 28.48427,5.64261 63.785,3.86819 86.20423,-17.66161 7.38102,-9.10051 11.10411,-29.64376 6.59728,-43.18215 -6.32298,-25.96339 -36.43961,-35.34492 -60.32497,-38.49188 -19.04444,-4.62372 -45.30362,-0.15976 -61.27654,-5.58557 0,-30.28529 0,-60.57059 0,-90.85588 33.80155,-1.29363 68.92901,-0.59277 95.75976,-22.82857 17.46846,-18.57059 17.74451,-59.97793 -10.42643,-72.6381 -28.99886,-10.88684 -61.4747,-4.18187 -86.4,12.8 -14.799633,6.13054 -29.754311,34.65797 -38.933333,10.10405 -18.837303,-23.32475 -38.955392,-46.03189 -56.990075,-69.68917 10.370387,-4.9175 25.415583,-20.77533 33.383739,-22.87664 44.086732,-30.99606 97.380779,-43.37417 151.072999,-38.65843 47.78314,3.49505 99.90837,19.09797 129.82132,60.1065 26.97581,37.00816 33.28494,91.85502 9.21991,131.86036 -12.29084,22.11121 -37.73782,39.76793 -62.12944,51.35574 -4.56365,7.83951 15.39788,7.5687 21.22157,12.73092 16.70958,7.87499 32.20039,18.78226 44.59338,32.39988 3.76379,5.41028 12.75573,17.20318 16.78549,26.72642 11.47458,26.62693 11.59101,58.44854 4.75444,86.4737 -13.49242,47.62726 -58.13435,82.68394 -105.13027,95.26549 -30.92649,11.68195 -70.07216,12.50057 -104.44713,11.1369 z M 12.8,612.96533 c -5.7178548,-6.53038 -6.2243484,-4.18711 0,0 z M 420.00443,409.10335 c -0.0904,-84.11763 -0.18073,-168.23525 -0.27109,-252.35288 68.28158,1.44215 136.90227,-1.89022 204.88818,4.38938 41.69354,5.37706 82.87993,18.24645 117.75681,43.61966 18.95627,14.15613 31.9042,27.37739 44.2146,46.02647 16.76403,23.95542 27.11309,52.36864 33.06598,78.93445 9.97991,48.00754 8.62807,98.31248 2.28302,146.38934 -3.53748,8.90762 -3.58146,20.16373 -7.70263,28.92274 -6.93094,25.68898 -19.98838,50.42844 -34.50596,70.432 -27.20795,36.9029 -68.92139,62.10214 -112,74.1355 -30.14538,8.53948 -63.05118,12.06298 -96.09122,10.87945 -50.45527,0.36488 -100.91106,0.65186 -151.3666,0.97678 -0.0904,-84.11763 -0.18073,-168.23526 -0.27109,-252.35289 z M 581.0927,553.2543 c 23.45839,-1.06391 47.35182,-8.7342 64.74824,-22.0543 24.7759,-18.5136 37.37781,-50.1709 41.64804,-77.76512 3.66578,-35.03896 5.00844,-73.4783 -3.0616,-107.33571 -7.79071,-33.92691 -33.89995,-67.23303 -69.56741,-74.4278 -18.62402,-8.04165 -41.63221,-5.80127 -62.32663,-7.13105 0.005,96.53101 0.009,193.06201 0.014,289.59302 9.51154,-0.17608 19.1038,0.53976 28.54536,-0.87904 z M 656.00001,523.2 c 11.52589,-13.2406 -14.03435,13.39821 0,0 z"
     id="path817"
     inkscape:connector-curvature="0" />
</svg>
